<svg xmlns="http://www.w3.org/2000/svg" xmlns:xlink="http://www.w3.org/1999/xlink" viewBox="0 0 512 512"><defs><style>.cls-1{fill:#e3e4c6;}.cls-2{fill:#1e8477;}.cls-11,.cls-13,.cls-14,.cls-16,.cls-17,.cls-18,.cls-19,.cls-2,.cls-20,.cls-21,.cls-22,.cls-23,.cls-25,.cls-26,.cls-29,.cls-3,.cls-30,.cls-31,.cls-32,.cls-33,.cls-34,.cls-36,.cls-40,.cls-41,.cls-42,.cls-44,.cls-48,.cls-5,.cls-54,.cls-7,.cls-9{stroke:#231f20;stroke-miterlimit:10;}.cls-3{fill:#eac369;}.cls-4{fill:#caaa5b;}.cls-27,.cls-5{fill:#d24834;}.cls-6{fill:#b13b29;}.cls-7{fill:#289e8f;}.cls-8{fill:#20877a;}.cls-9{fill:#0a4369;}.cls-10{fill:#003151;}.cls-11{fill:#dbb863;}.cls-12{fill:#cead5d;}.cls-13{fill:#2d2a2b;}.cls-14,.cls-28,.cls-52{fill:#9f3a28;}.cls-15{fill:#bd9f55;}.cls-16{fill:#c6c6c5;}.cls-17{fill:#231f20;}.cls-18{fill:url(#linear-gradient);}.cls-19{fill:#a5a3a2;}.cls-20{fill:url(#linear-gradient-2);}.cls-21{fill:#662628;}.cls-22{fill:#e25656;}.cls-23{fill:#12807b;}.cls-24{fill:#218a7c;}.cls-25{fill:#296e68;}.cls-26{fill:none;}.cls-29{fill:#bfc3aa;}.cls-30{fill:#909482;}.cls-31{fill:#aeb29c;}.cls-32{fill:#878b7a;}.cls-33{fill:#a63726;}.cls-34{fill:#307872;}.cls-35{fill:#096e69;}.cls-36{fill:#183247;}.cls-37{fill:#0a2437;}.cls-38{fill:#c8a95b;}.cls-39{fill:#050505;}.cls-40{fill:url(#linear-gradient-3);}.cls-41{fill:url(#linear-gradient-4);}.cls-42{fill:#0f5856;}.cls-43{fill:#ac3928;}.cls-44{fill:#eda721;}.cls-45{fill:#ad3a28;}.cls-46{fill:#1f8679;}.cls-47{fill:#1b5954;}.cls-48{fill:#e7664e;}.cls-49{fill:#aaa;}.cls-50{fill:#b5b5b5;}.cls-51{fill:#a83826;}.cls-52{opacity:0.5;}.cls-53{fill:#bf543f;}.cls-54{fill:#0d273a;}</style><linearGradient id="linear-gradient" x1="135.22" y1="144.87" x2="135.22" y2="134.19" gradientUnits="userSpaceOnUse"><stop offset="0" stop-color="#5a5c5b" stop-opacity="0"/><stop offset="0.54" stop-color="#3e3e3f" stop-opacity="0.7"/></linearGradient><linearGradient id="linear-gradient-2" x1="-1499.06" y1="145.83" x2="-1499.06" y2="135.15" gradientTransform="matrix(-1, 0, 0, 1, -1321.93, 0)" xlink:href="#linear-gradient"/><linearGradient id="linear-gradient-3" x1="-75.81" y1="160.23" x2="-75.81" y2="150.39" gradientTransform="translate(410.11)" xlink:href="#linear-gradient"/><linearGradient id="linear-gradient-4" x1="-1663.13" y1="160.33" x2="-1663.13" y2="150.49" gradientTransform="matrix(-1, 0, 0, 1, -1278.66, 0)" xlink:href="#linear-gradient"/></defs><title>maskot</title><g id="Layer_2" data-name="Layer 2"><path class="cls-1" d="M381,86.73c37.71,38.32,78.18,62.85,81.24,94.12S431,250.44,421.17,301.33c-10.12,50.89,4.29,114.35-16.55,156S327.67,519,278.31,509.79s-92-47.82-125.38-85.22c-33.72-37.71-58.56-74.19-78.48-116.8C54.21,264.85,39.19,216.1,58.51,185.45c19-31,72.65-43.84,114-81.24S242.75,4.88,274.94.28,343,48.11,381,86.73Z"/></g><g id="Layer_1" data-name="Layer 1"><path class="cls-2" d="M172.43,423.06s1.25-.12,1.52,2.82c0,0-17.32,9.18-17.32,3.9s1.43-6.72,2.8-6.72Z"/><path class="cls-2" d="M134.7,422.76s-1.62-.47-1.62,3.37c0,0,17.42,8.64,17.42,3.36s-1.43-6.73-2.8-6.73Z"/><path class="cls-3" d="M130.69,368.76s3.23,52.81,4.05,55.85l4.11,5.86L148.7,427l3.41-64.41-8.33-4.45-13.09,1.17Z"/><polygon class="cls-3" points="154.8 364.06 158.2 426.45 165.45 432.02 172.19 424.95 178.34 359.08 154.8 364.06"/><path class="cls-4" d="M138.63,422.74c-.82-3-3.13-54.44-3.13-54.44l4-10.62h-8.4l-.42,9.88S134.93,420,135.75,423l4.11,5.85,6.72-2.4Z"/><polygon class="cls-4" points="162.12 423.06 160 360.9 154.8 362.27 159.21 424.63 162.12 423.06"/><path class="cls-5" d="M132.6,398.34s10.08,5.81,17.62,0l-1.93,30.54H134.54Z"/><path class="cls-6" d="M138.18,401.21a22.39,22.39,0,0,1-5.1-2L135,429.78h5Z"/><path class="cls-5" d="M156.63,398.34s15.23,6.94,18.32-2.91l-3.06,36-13,.52-.65-4.09Z"/><path class="cls-6" d="M163.89,428.75l-1.54-27.89c-2.74-.69-5.25-1.63-5.25-1.63L158.73,429l1.11,3.87,4.67-.19Z"/><path class="cls-7" d="M132.71,277.36c8.77-11.27,6.39-51.12,6.39-51.12l10.3-11.07h21.06s10.43,1.67,8,9.55.65,51.06.65,51.06c20.46,24.89,24.41,76.79,24.41,76.79-6.05,14.2-21.25,9.83-21.25,9.83-16.82,16.86-28.94,2.94-28.94,2.94-14,11.47-24.94-2.59-24.94-2.59-16.55,7.66-22.24-9.84-22.24-9.84C104.62,346.61,123.07,289.75,132.71,277.36Z"/><path class="cls-8" d="M182.07,355.93c-16.56,16.61-28-1.34-28-1.34-13.78,11.3-23.36-1.51-23.36-1.51-16.29,7.54-18.06-9.58-18.06-9.58,1.57-6,16.51-61.62,26-73.82,8.63-11.1,10.17-50.78,10.17-50.78l1.75-1.87H149l-10.14,10.9s2.34,39.24-6.29,50.34c-9.49,12.2-27.67,68.19-26.18,74.39,0,0,5.61,17.24,21.9,9.69,0,0,10.78,13.86,24.56,2.55,0,0,11.94,13.72,28.5-2.89,9.53,1.82,16.06.71,19.71-7.3C195.56,356.39,182.07,355.93,182.07,355.93Z"/><path class="cls-9" d="M166.47,278.41a65.06,65.06,0,0,1,0-17.74c1.37-9.31,3.82-40.05,4-43.39s-2.78-4.62-.32-3.92,16.5-.23,21,15.09l-12,47.33S172.48,279.29,166.47,278.41Z"/><path class="cls-10" d="M171.33,263c.43-8.69-.74-19.08-.87-21.07s1.44-27.92.79-28.11c-2.46-.7,0,0-.17,3.34s-2.62,34.08-4,43.39a65.06,65.06,0,0,0,0,17.74c1.77.26,3.51-.49,5.2-.79A55.48,55.48,0,0,1,171.33,263Z"/><path class="cls-9" d="M146.94,278.24s1.46-16,.82-20.91,1.64-42.16,1.64-42.16,4.48-2.93,1.19-2.45-21.91.77-29.82,16.16c-4.6,9-6.51,24-6.51,24s17.49-.15,18.37-4.72c0,0,4.65,19.71.08,29.2C132.71,277.36,142,279.82,146.94,278.24Z"/><path class="cls-10" d="M136.56,276.14c4.56-9.48-3.85-30.4-3.85-30.4-.29,1.52,0,0,1,4,.8,6.5,2.3,22-.29,27.36,0,0,8.14,2.43,13.05.85,0,0,0-.62,0-.81A49.78,49.78,0,0,1,136.56,276.14Z"/><polygon class="cls-11" points="151.34 202.09 150.42 215.17 158.58 224.72 170.46 215.17 167.86 200.81 151.34 202.09"/><path class="cls-12" d="M157.25,213.18c-1.11-3,1.45-12,1.45-12l-6.93.54-.93,13.08,8.16,9.55,3.25-3S158.35,216.16,157.25,213.18Z"/><path class="cls-13" d="M135.48,192.63S111.12,207,94.39,175.44c-10.57-19.95-14.49-59.75,9.21-90,27.47-35,70-33.33,84.79-22.93,0,0,23.16-5.38,41.54,45.64,19,52.75-16.91,99.73-44.83,85.12-12.83-6.72-17.95,5.94-25.35,5C138,195.73,135.48,192.63,135.48,192.63Z"/><path class="cls-14" d="M113.22,146.2S92,91.36,159.69,78a29.91,29.91,0,0,0,3-.81c2.75-.89,8.77-2.07,8.77-4.31,0-3.59,2.42-11.84-11-9.89S83.34,80.51,106,142.73Z"/><path class="cls-3" d="M117.47,166c6.63,23.61,27,38.39,42.84,37.63s34.64-14,42.15-39.77c0,0,4,6.55,9.07,0s8.57-26.47-4.53-19.92c0,0,.5,2.78-4,9.84,0,0,8.06-26.21-4.54-37.29,0,0-13.1-12.6-19.65-29.23,0,0-8.46,11.41-43.84,24-14.62,5.21-21,17.78-19.54,41.23L112,142.43c-3.48-1.93-8.91-1.51-8.27,8.81.42,6.7,2.23,10.17,4.79,13.1C112.09,168.46,117.47,166,117.47,166Z"/><path class="cls-12" d="M125.7,167l-2.06-13.49c-1.51-23.45,4.92-36,19.53-41.23,20.89-7.44,31.57-13.85,37.49-18.36a63.77,63.77,0,0,1-2.72-5.78s-7.66,10.51-43.05,23.12c-14.61,5.2-21.06,18.63-19.55,42.08L111,142.92c-2.33-1.51-8-2-7.36,8.32.42,6.7,2,9.84,4.62,12.76,3.61,4.12,9.07,1,9.07,1,6.58,23.41,25.41,38.36,41.23,37.88C144.66,199.18,131.17,186.47,125.7,167Z"/><path class="cls-15" d="M110.37,145.66s-6.3-2.52-4.16,7.69c2,9.61,9.54,14,10,7.23l-1.89-7.23Z"/><path class="cls-16" d="M165.25,148.33S161,138.24,172.71,135s17.23,4.54,17.57,5.67c0,0,0,7.36-2.69,7.69-1.18.15-5.58-1.69-10.2-1.72A51.21,51.21,0,0,0,165.25,148.33Z"/><path class="cls-16" d="M146.9,147.38s4.24-10.09-7.45-13.36-17.24,4.53-17.57,5.67c0,0,0,7.35,2.68,7.69,1.18.14,5.58-1.7,10.2-1.72A50.52,50.52,0,0,1,146.9,147.38Z"/><path class="cls-17" d="M119.69,127.55s6.24-8.06,28.39-1.51c0,0,6.44-4.87-3.43-7.05S119.89,120.33,119.69,127.55Z"/><path class="cls-17" d="M196.38,127.55s-6.44-8.06-29.32-1.51c0,0-6.65-4.87,3.54-7.05S196.18,120.33,196.38,127.55Z"/><path class="cls-17" d="M121,133.17s2,1.78,6.86,0,9-3.81,14.64,1.91c0,0-11.9-5.47-19.37,3.56l.92-2.8A3.48,3.48,0,0,1,121,133.17Z"/><path class="cls-17" d="M128.43,146.44a16.83,16.83,0,0,1,14.11,0S133.93,145.06,128.43,146.44Z"/><path class="cls-17" d="M128.71,135s-5.18,7.69,1.89,11.22l11-.54s4.43-6.82,0-11.29C141.59,134.37,133.24,131.31,128.71,135Z"/><path class="cls-18" d="M141.29,139.53c0,2.95-2.72,5.34-6.07,5.34s-6.07-2.39-6.07-5.34,2.72-5.34,6.07-5.34S141.29,136.58,141.29,139.53Z"/><path class="cls-17" d="M137.56,139.11a2.34,2.34,0,1,1-2.34-2.36A2.35,2.35,0,0,1,137.56,139.11Z"/><path class="cls-19" d="M134.25,136.34a1.54,1.54,0,1,1-1.53-1.36A1.45,1.45,0,0,1,134.25,136.34Z"/><path class="cls-19" d="M136.84,137.5a.81.81,0,1,1-.81-.75A.77.77,0,0,1,136.84,137.5Z"/><path class="cls-17" d="M191.12,134.13s-2,1.78-6.86,0-9-3.82-14.64,1.91c0,0,11.89-5.47,19.36,3.56l-.91-2.8A3.49,3.49,0,0,0,191.12,134.13Z"/><path class="cls-17" d="M183.73,147.4a16.83,16.83,0,0,0-14.11,0S178.23,146,183.73,147.4Z"/><path class="cls-17" d="M183.64,135.93s5.18,7.7-1.89,11.22l-11-.54s-4.43-6.81,0-11.28C170.76,135.33,179.11,132.27,183.64,135.93Z"/><path class="cls-20" d="M171.06,140.49c0,2.95,2.72,5.34,6.07,5.34s6.08-2.39,6.08-5.34-2.72-5.34-6.08-5.34S171.06,137.54,171.06,140.49Z"/><path class="cls-17" d="M174.79,140.07a2.34,2.34,0,1,0,2.34-2.36A2.35,2.35,0,0,0,174.79,140.07Z"/><path class="cls-19" d="M178.1,137.29a1.54,1.54,0,1,0,1.53-1.36A1.46,1.46,0,0,0,178.1,137.29Z"/><path class="cls-19" d="M175.51,138.45a.81.81,0,0,0,1.62,0,.81.81,0,0,0-1.62,0Z"/><path class="cls-21" d="M143.71,174.84s15.79,2.3,27.72.4c0,0-.5,12-14.87,12.28C156.56,187.52,144.64,187.36,143.71,174.84Z"/><path class="cls-22" d="M148.25,184.22s-1.34-.84.81-1.63c2.47-.91,11.18-1.19,15.78.23a3.08,3.08,0,0,1,1.82,1.3S157.31,190.61,148.25,184.22Z"/><path class="cls-16" d="M146.88,178.85c1.2.94,15.09,3.23,21.92-.42l2.63-3s-15.2,2.27-27.72-.59A23.62,23.62,0,0,0,146.88,178.85Z"/><path class="cls-16" d="M146.73,182.9s14,2.41,21.42,0a21.6,21.6,0,0,1-11.59,4.62S150.46,186.76,146.73,182.9Z"/><path class="cls-23" d="M158.86,224.72s-5.77,9.87-11.17,1.49c0,0-6-8.42,2.73-11Z"/><path class="cls-23" d="M158.58,224.72l11.88-9.55c8.77,2.62,0,13,0,13-6.74,5.86-11.88-3.45-11.88-3.45"/><path class="cls-9" d="M160.57,234.56a1.9,1.9,0,1,1-1.9-2A1.95,1.95,0,0,1,160.57,234.56Z"/><path class="cls-9" d="M160.57,241.93a1.9,1.9,0,1,1-1.9-2A1.95,1.95,0,0,1,160.57,241.93Z"/><path class="cls-7" d="M133.08,426.13a5.28,5.28,0,0,1,2,2.63,6.18,6.18,0,0,1,6-4.8s6.71,0,6.79,5.21c0,0,.34-2.65,2.29-2.61l.45,5.15s5.14,18,1,20.68-19.54,2.89-22.33-1,1.08-16.93,1.72-19.56A55.1,55.1,0,0,1,133.08,426.13Z"/><path class="cls-24" d="M136.3,450.83c-2.79-3.85,1.08-16.93,1.72-19.56a55.1,55.1,0,0,1,2-5.74,5.27,5.27,0,0,1,2.05,2.64,6.82,6.82,0,0,1,2.59-3.81,10.47,10.47,0,0,0-3.49-.7c-5,0-6,5.1-6,5.1a4.13,4.13,0,0,0-2-2.36s-.93,3.39-1.46,5.55c-.64,2.63-4.34,15.42-1.55,19.27,2,2.76,9.33,3,15.5,2.2C141.19,453.23,137.6,452.63,136.3,450.83Z"/><path class="cls-25" d="M135.13,428.76s-6,12.25-.26,9.77c5-2.14,7.25-2,13.07-.09,2.21.71,2.14-3.35,0-9.27,0,0,.66-4.58-6.79-5.21C141.16,424,137.08,423.41,135.13,428.76Z"/><path class="cls-7" d="M132.75,432.53s3.91-3.91,8.59-3.85a10.79,10.79,0,0,1,8.23,4.29,3.92,3.92,0,0,1,.42,3.83c-.68,1.08-5.19-3.48-9.26-3.31-3.37.14-6.2,3.84-7.73,3.76S131,434.9,132.75,432.53Z"/><path class="cls-7" d="M174,425.88a9,9,0,0,0-1.95,3.18,6.18,6.18,0,0,0-6-4.8s-6.71,0-6.79,5.2c0,0-.33-2.64-2.29-2.6l-.45,5.14s-5.14,18-1,20.69,19.53,2.89,22.32-1-1.08-16.94-1.72-19.56C175.51,430,174,425.88,174,425.88Z"/><path class="cls-24" d="M161.11,451c-2.79-3.85,1.09-16.94,1.72-19.56.53-2.16,1-4.15,1-4.15s2.63-.56,3.06,1c0,0-.25-1.3,1.82-2.7a16.87,16.87,0,0,0-3.4-.95c-5,0-5.86,5.15-5.86,5.15a4.82,4.82,0,0,0-2.33-2.54,17,17,0,0,1-.29,4.78c-.64,2.62-4.39,15.77-1.6,19.62,2,2.76,9,3,15.17,2.2C166,453.64,162.41,452.75,161.11,451Z"/><path class="cls-25" d="M172,429.06s6,12.24.26,9.77c-5-2.15-7.25-2-13.07-.1-2.2.72-2.14-3.35,0-9.27,0,0-.66-4.57,6.79-5.2C166,424.26,170.05,423.7,172,429.06Z"/><path class="cls-7" d="M174.38,432.82s-3.91-3.9-8.59-3.84a10.79,10.79,0,0,0-8.23,4.28,3.94,3.94,0,0,0-.42,3.84c.68,1.07,5.19-3.49,9.26-3.32,3.38.14,6.2,3.84,7.73,3.76S176.17,435.19,174.38,432.82Z"/><path class="cls-12" d="M155.94,167c1.87-.51,4-4.9,3.78-5.91s-7.13-1.73-8.92.46S154.07,167.48,155.94,167Z"/><path class="cls-12" d="M158.27,141.26c-.8-.22-.77,12.92-3.19,18.84a2.79,2.79,0,0,0,3.44-.28C160.11,158.29,159.07,141.48,158.27,141.26Z"/><path class="cls-26" d="M157.56,146.44s-.19,10.55-3.24,13.82"/><path class="cls-26" d="M158.57,160s-14.89-1.33-5.79,5.95"/><path class="cls-12" d="M201.84,159.38s7-10.13,6.67-13.18c0,0,5.29-5.17,4.41,8.44,0,0-2,12.14-8.23,8.07C200.7,160.11,201.84,159.38,201.84,159.38Z"/><path class="cls-12" d="M157.58,193a14.58,14.58,0,0,1-6.42-1.55,7.24,7.24,0,0,0,6.38,3.94,8,8,0,0,0,6.86-4.16A17.46,17.46,0,0,1,157.58,193Z"/><path class="cls-8" d="M125.72,358.1c-3-34.27,15.68-78.56,15.68-78.56s-18.11,72.66-7.15,78.56Z"/><path class="cls-8" d="M151.17,362.75c-5.91-32.88,3.63-83.21,3.63-83.21s-4.49,78.28,2.2,81l-6.69-2.75"/><path class="cls-8" d="M184.18,357.68c-2.57-32.78-17.35-78.14-17.35-78.14s13.57,70,12.26,77.84.73.72.73.72Z"/><path class="cls-27" d="M164.67,63.1c-2.3-1.05-13.18,1.78-13.18,1.78-47.89,14.31-45.2,46.23-42.54,61.9-.28-16.71,9.56-34.9,33.18-44.4,0,0,12.19-6.29,17.22-8.14,2.63-1,8.44-3.78,8.44-5.95A5.52,5.52,0,0,0,164.67,63.1Z"/><path class="cls-5" d="M208.08,143.92s9.56-40.24-22.12-60.49c0,0-15.4-6.07-19.49-8.22S156,57.24,178.1,63.52s41.13,22.88,40.2,48.3-7,31.64-7,31.62S208.08,143.92,208.08,143.92Z"/><path class="cls-28" d="M191.12,84.65s-14.8-7.55-18.69-10.58c-2.78-2.15-7.58-9.48.18-11.2-15.6-2.32-9.86,10.38-6.14,12.34,4.09,2.15,19.48,8.22,19.48,8.22A42.2,42.2,0,0,1,204.51,103C204.56,103,200.35,91.68,191.12,84.65Z"/><path class="cls-9" d="M178.52,249.82s8.8,15.45,9.16,19.45-6.1,15.48-6.1,15.48,2.16,25.74,7.84,16.77,10.94-17.11,13.08-21.09,3.33-13.18,3.52-18.55-4.77-29.23-7.76-34.22-9.06-7.83-16-11.17"/><path class="cls-10" d="M185.43,283.27s6.47-11.48,6.1-15.48-5.3-12.35-5.3-12.35l-7-5.8s8.79,15.45,9.16,19.45-6.1,15.47-6.1,15.47,2.12,25.37,7.72,16.94C186.72,298.73,185.43,283.27,185.43,283.27Z"/><polygon class="cls-29" points="177.24 222.87 181.95 229.04 174.18 228.33 177.24 222.87"/><path class="cls-29" d="M140.58,208.49a1.85,1.85,0,0,0,2.36-1h0a1.81,1.81,0,0,0-.41-2.51l-2.1-1.15a1.85,1.85,0,0,0-2.36,1h0a1.82,1.82,0,0,0,.41,2.5Z"/><path class="cls-29" d="M144.55,206.13c.36.2.87,0,1.15-.54l.83-1.5a.9.9,0,0,0-.13-1.25h0c-.35-.19-.87,0-1.15.55l-.83,1.49a.9.9,0,0,0,.13,1.25Z"/><path class="cls-30" d="M173.61,228.2c1.12.63,2.76-.16,3.65-1.74h0c.89-1.59.7-3.39-.43-4l-33.29-18.37c-1.13-.62-2.77.16-3.66,1.75h0c-.89,1.59-.7,3.38.44,4Z"/><path class="cls-29" d="M158.27,210.41c.31.17.75,0,1-.47h0c.24-.44.19-.92-.12-1.09l-13.58-7.5c-.31-.16-.75,0-1,.48h0a.79.79,0,0,0,.12,1.08Z"/><path class="cls-31" d="M174.16,228.51c1.14.62,2.77-.16,3.66-1.75h0c.89-1.58.7-3.37-.43-4l-13.72-7.57c-1.13-.62-2.77.16-3.66,1.75h0c-.89,1.58-.7,3.38.43,4Z"/><polygon class="cls-32" points="137.47 312.28 135.49 308.78 147.51 266.09 186.13 265.76 189.57 267.93 137.47 312.28"/><polygon class="cls-29" points="150.35 267.93 137.47 312.28 174.44 312.93 189.57 267.93 150.35 267.93"/><path class="cls-31" d="M148.88,267.25a21.44,21.44,0,0,1,2.66,13.05c-.72,4.86-4.68,25.1-4.68,25.1l34.74,1.06s4.35-19.32,5.07-32.8c.18-3.44-3.41-5.84-3.41-5.84"/><path class="cls-31" d="M147.87,266.8s0-1.15,1.53,1.54c1.15,2,4,6.82,3.79,12.19-.18,4.91-3.13,22.81-3.13,22.81l35-.12s4.09-18.14,4.81-31.62c.18-3.44-3.75-5.84-3.75-5.84Z"/><path class="cls-3" d="M191.22,295.91c-.49,2.43-5,10-5.72,10.87s-7.77,2.84-8.51,2.6-5.54-.82-6.73-1.37,0-2.46.52-2.57,5,.5,6,.48,2.28.07,2.59-1h0a24.94,24.94,0,0,1-3.26.47c-1.4.07-9.14-1-10.91-1.31s-1.31-3,.09-2.91,9.18.84,10.16.79,5.32-.08,5.8-1.41-.71-.35-.71-.35-3.85,1.31-6,1.06L163.4,300c-2.75-.33-1.54-4.09,1-4.09,1.11,0,6.73.69,8.3.82,2.53.21,10.06-1.06,10.6-2.5h0s-6.92.4-8.64,0-7.83-1.74-9.44-2.29,1.3-4,2.43-3.79c3.16.59,9.54,2,9.54,2-1,.12,6.15-.09,8-2.14,0,0,2.58-3,2.64-3.74s1.53-4.82,1.5-6.94c0-1.93,2.56.17,2.92,1.12.55,1.49,0,4.74-.36,9.17C191.53,291.1,191.43,294.83,191.22,295.91Z"/><path class="cls-9" d="M110.51,262.13s14.18-28.66,15.75-31.49,16,7.15,12.81,11.29S128.88,273.54,122,280.24s-20.55-2-16.7-11.91c3.53-9.1,13.89-37.66,16.77-42.66,4.64-8,11-8.64,11-8.64"/><path class="cls-3" d="M166.34,209.41s2-1.13,4.22,4c1.86,4.3,5.55,4.36,4.18,6.89-1.15,2.13-3.05,2.76-6.22-.58a53.47,53.47,0,0,1-3.28-4.55s-6.17,2.09-7.48,1.94c0,0-5,2.82,1.25.69,2-.68,5-1.78,6.39-.29a65.71,65.71,0,0,1,4.39,5.69s2.73,2.66,2.16,3.72c-1.45,2.68-.47,3.06-3.85,1.3-1.11-.58-5.12-5.35-5.68-5.68-1.19-.71-5.62.83-9.27,1.54,0,0,8.16-2.83,10.13-.25s6.19,4.86,6.28,6.52a2.71,2.71,0,0,1-.68,2.33c-.57.9-2.48.38-4.47-1.42a46.82,46.82,0,0,0-4.55-3.26c-2.46-1-7.39,1.13-7.39,1.13-.39-.33,5.87-1.81,7.73-.13s4.62,4.48,4.62,4.48-.89,3.2-3.08,2.58c-1-.28-2.44-1.32-4.42-2.26-2.4-1.14-9.22,1.85-9.22,1.85l-8.73,1.14s-2,5-6,2.85c-1.67-.9-5.28-2.2-6-4.38-.75-2.42,3.41-6.9,5.63-10.8s11.94-8.25,15.25-10.23S166.34,209.41,166.34,209.41Z"/><path class="cls-10" d="M110,267c3.52-9.1,13.88-37.65,16.77-42.66a18.59,18.59,0,0,1,7.09-7.27l0,0c3.85-.36-6.27.51-10.95,8.64-2.88,5-13.24,33.56-16.77,42.66-3.64,9.38,6.81,16.74,14,12C113.29,281,107,274.82,110,267Z"/><path class="cls-12" d="M166.19,230.42a48.67,48.67,0,0,0-4.55-3.27A5.76,5.76,0,0,0,159,227a3.59,3.59,0,0,1,.7.17,4.11,4.11,0,0,1,.53.31,3.4,3.4,0,0,1,1.77.69c1,.91,2.17,2,3.08,2.94,1.53,1.14,2.9,1.46,3.5.89A8.28,8.28,0,0,1,166.19,230.42Z"/><path class="cls-12" d="M134.27,237.92a4.64,4.64,0,0,1-2.91-3.5c-.75-2.43,2.81-3.52,5-7.42s11.13-9.85,14.45-11.83c4.67-2.78,15.67-3.82,17.31-4.14,0-.71-1.49-1.15-1.49-1.15s-12.92,1.72-16.24,3.7-14.11,6.51-16.33,10.41-6.92,8.14-6.17,10.57c.67,2.17,4.28,3.76,6,4.66,1.15.62,2.23-.16,3-.42C136.6,238.71,134.62,238.11,134.27,237.92Z"/><path class="cls-12" d="M159.15,232.82a4.86,4.86,0,0,0-2.54-.18,2.93,2.93,0,0,1,.59.18c2,.94,3.45,2,4.42,2.26a1.81,1.81,0,0,0,1.48-.2C162.15,234.48,160.85,233.63,159.15,232.82Z"/><path class="cls-12" d="M170.31,218.77a52.14,52.14,0,0,1-3.28-4.54s-.23-.3-1.17,0c.22.32.08,1.29.42,1.78a35.49,35.49,0,0,1,4,4.4,2.84,2.84,0,0,0,2.87.48A8.19,8.19,0,0,1,170.31,218.77Z"/><path class="cls-12" d="M168.22,225.89l-3.82-4a4.25,4.25,0,0,0-2.15-.07c.22.32,1.6.87,1.94,1.35a35.49,35.49,0,0,1,4,4.4c1.17.77,1.53,1,2.29.64C169.65,227.86,169.3,227,168.22,225.89Z"/><path class="cls-12" d="M175.52,297.38c2.43.2,9.63-1,10.14-2.4l-2,.1c-.7,1.1-5.51,2.07-8.49,2.26Z"/><path class="cls-12" d="M185.54,294.09Z"/><path class="cls-12" d="M181.77,305.6s-1.06.23-2.16.36a1.72,1.72,0,0,1-1.22.52l.9,0C180.24,306.52,181.47,306.59,181.77,305.6Z"/><path class="cls-12" d="M178.17,302.62c.94,0,5.08-.08,5.54-1.34s-.67-.34-.67-.34-.54.18-1.33.4c-.49,1-3.24,1.17-4.73,1.24C177.56,302.61,178,302.63,178.17,302.62Z"/><path class="cls-12" d="M182.38,291.05c-.93.11,3.17-.88,4.9-2.85,0,0,2.46-2.83,2.53-3.57s1.31-4.26,1.28-6.29V278c-.84-.76-1.82-1.32-1.8-.07,0,2-1.37,5.9-1.44,6.64s-2.53,3.57-2.53,3.57a7.81,7.81,0,0,1-4.92,2.31C180.68,290.55,182.38,291.05,182.38,291.05Z"/><path class="cls-12" d="M166,291.53c1.54.53,8.43,1.91,10.08,2.31.65.16,1.63-.42,3.12-.43-.69,0-2.71-.07-3.06-.15-1.65-.4-6.25-1.44-7.79-2-1.24-.43.14-1.4,1.35-2.13-.43-.08-1.42-.37-1.79-.44C166.82,288.53,164.45,291,166,291.53Z"/><path class="cls-12" d="M173.05,307.38c-1-.48-.68-.8-.13-1.16a14.34,14.34,0,0,0-1.85-.15c-.52.11-1.17,1,0,1.56s5.78.82,6.49,1a6.63,6.63,0,0,0,1.23-.28C177.22,308.12,174,307.81,173.05,307.38Z"/><path class="cls-12" d="M176.53,304.89c.2,0,1.15-.42,1.35-.44-2.6-.23-8.3-.57-9.66-.8s-1.67-1.11-.74-1.57c-.67-.06-1.4-.1-1.67-.12-1.34-.1-1.24,1.39.45,1.67S175.19,305,176.53,304.89Z"/><path class="cls-12" d="M177.59,300.37c-2.49-.29-9.64-1-10.82-1.12-2.41-.29-2-2,.06-2.46-.63-.06-1.42-.41-1.67-.42-2.42,0-3.93,2.81-1.3,3.13,1.25.15,9.08.87,11.13,1.11A22.64,22.64,0,0,0,177.59,300.37Z"/><path class="cls-33" d="M333.19,415.76s7.48-2.33,19.68,1l0-2.7a26.22,26.22,0,0,0-19.72-1.25Z"/><path class="cls-33" d="M390.44,415.52s-7.48-2.33-19.68,1v-3.27a26.53,26.53,0,0,1,19.73-1.15Z"/><path class="cls-34" d="M371.36,426s.26-4.27,8.4-5.07,9.88.59,10.55,3.23a4.74,4.74,0,0,1-.78,4.24H372.36Z"/><path class="cls-23" d="M394.45,236.89,392,234c-6.84-3-13-5.56-13-5.56l-38.36,2.05a87.49,87.49,0,0,0-19.52,7.47c-7.95,4.13-22.59,40.56-22.59,40.56l9.67,8.8,20.11-23.49v50.73s16.23,3.69,30.8,3c13.75-.68,27.82-6.06,27.82-6.06l.13-46.16.64-.52.79.45Z"/><path class="cls-35" d="M332.77,280.3s-.67-27.73-4.15-17.75v52s2.07.47,5.38,1Z"/><polygon class="cls-3" points="331.93 371.92 335.92 429.51 350.52 428.09 353.72 371.31 331.93 371.92"/><polygon class="cls-3" points="367.33 369.93 373.57 425.18 388.19 423.66 388.99 367.04 367.33 369.93"/><polygon class="cls-4" points="336.51 364.57 331.93 364.7 335.92 422.29 340.29 421.87 336.51 364.57"/><polygon class="cls-4" points="373.71 368.07 367.49 368.9 373.73 424.14 379.17 423.58 373.71 368.07"/><path class="cls-36" d="M328.3,320.78s-.75,54.39.91,56.71,24.15,3.71,26-.32,3.42-27.63,3.42-27.63h3s2.05,25.63,3.31,27.68,24.13,2.6,25.63-.44S387.25,318,387.25,318Z"/><path class="cls-37" d="M332.33,320.47l-3.52.17s-.75,54.39.91,56.71c.33.47,1.51.89,3.19,1.25C331.76,369.83,332.27,325.28,332.33,320.47Z"/><path class="cls-37" d="M364.94,348.58l-2.94,1a42,42,0,0,1,0,4.28c.64,7.32,2.51,21.73,3.46,23.26.26.42,1.41.77,3.07,1C367.28,371.81,364.94,348.58,364.94,348.58Z"/><path class="cls-36" d="M328.3,313c-1.78-.05-1.64,6.89,0,7.78s14.76,3.28,31,3c9.75-.16,26.51-3.87,27.95-5.77s1.27-8.1-.41-8.2-16.13,5.75-27.63,6.23C348.54,316.51,330.08,313.05,328.3,313Z"/><polygon class="cls-11" points="345.8 215.96 345.68 226.51 359.58 234.65 372.13 225.31 372.13 215.24 370.79 209.67 348.02 210.02 345.8 215.96"/><polygon class="cls-38" points="354.3 228.75 354.42 213.97 355.61 209.51 348.58 209.62 346.36 215.56 346.24 226.11 360.14 234.25 360.6 233.91 354.3 228.75"/><path class="cls-13" d="M299.18,158.48s-4.56-20.7-2.43-29.65,48.17-43.54,48.17-43.54l51.69,10.35,25.6,23s4.78.64-4.4,37l-9.68,12.26-98.57,1.35Z"/><path class="cls-39" d="M412.5,113.18l-11-6s-13.89,15.57-36.69,16.48c0,0,8.9-5.44,6.17-13.53,0,0-1.89,3.62-7.19,7.12,2,7.71-6.37,12.84-6.37,12.84,22.79-.9,36.68-16.48,36.68-16.48l11,6c10.36,12.22,8.59,37.26,8.59,37.26.66-1.39,2.34-1.73,4.12-1.22,1.39-5.51,2.45-10.18,3.26-14.17C420.66,133.09,418.88,120.71,412.5,113.18Z"/><path class="cls-39" d="M333.19,130c18.87-.47,27-8.77,29.46-12.1-4.72,2.83-11.8,5.41-22.07,5.66,0,0,6.34-5.48,3.84-9.53,0,0-11.24,9.12-20.66,10.52,0,0-4.16.66-7.51,6.47l.12,0c9.42-1.41,20.65-10.52,20.65-10.52C339.53,124.54,333.19,130,333.19,130Z"/><path class="cls-3" d="M309.9,185.34s15.14,32.45,50.49,30.49,44.93-30.64,44.65-31c0,0,4.92,5.54,11-3.13,0,0,7.52-13,7.45-18.43-.09-7-8.1-9.93-9.76-6.47,0,0,1.78-25-8.59-37.25l-11-6S380.19,129.13,357.39,130c0,0,8.91-5.44,6.18-13.53,0,0-6.74,12.9-30.38,13.49,0,0,6.34-5.48,3.83-9.54,0,0-11.23,9.12-20.65,10.53,0,0-12.85,2-11.54,30.46,0,0-8.14-8.78-12,3.85,0,0-3,7.69,8.24,21.78C301.05,187.07,308.65,193.37,309.9,185.34Z"/><path class="cls-12" d="M421.42,156.81l-.45-.35c0,.65-.05,1-.05,1A2.4,2.4,0,0,1,421.42,156.81Z"/><path class="cls-12" d="M317.13,186c-.92-2.12-5.08-23.9-5.08-23.9-1.3-28.48,11.54-30.46,11.54-30.46,4.59-.69,8.23-2.93,12.18-5.33,1.13-1.8,3.26-4.27,2.09-6.16,0,0-11.23,9.12-20.65,10.53,0,0-13.48,3.2-12.17,31.68,0,0-7.42-9.6-11.87,2.4,0,0-2.92,8,8.28,22.09,0,0,7.31,6,8.56-2,0,0,13.74,28,43.74,30.55C328.28,209.84,318.25,188.58,317.13,186Z"/><path class="cls-12" d="M340.41,130.63c11-.27,17.14-3.69,21.84-6.75,1.29-2.2,3.24-4.5,2.16-7.69,0,0-5.06,10.56-22.24,13.4A2.62,2.62,0,0,1,340.41,130.63Z"/><path class="cls-12" d="M364.62,130.67c18.23-.72,30.75-10.82,35-14.84l-4.74-2.6a53.87,53.87,0,0,1-27.55,15.94A5.07,5.07,0,0,1,364.62,130.67Z"/><path class="cls-5" d="M309,127c18.64-9.47,36.73-21,51.14-22s27.34,14.46,43.5,19.64,20.74.17,19.73-8.82c0,0,5.55-10.13.26-18.56s-17.86-43-62.78-40.21-56.34,24.55-61,33.45-6.66,20.33-3.4,25.32C296.45,115.83,290.37,136.48,309,127Z"/><path class="cls-13" d="M316.35,145.37s5.32-8.66,15-9,19.32-.93,17.34,4.49c0,0-.61,2.93-7.45,1.54S327.75,139.18,316.35,145.37Z"/><path class="cls-13" d="M403.49,145.37s-5.32-8.66-15.06-9-19.31-.93-17.33,4.49c0,0,.61,2.93,7.45,1.54S392.08,139.18,403.49,145.37Z"/><path class="cls-16" d="M344.88,162.53s3.83-9.29-6.75-12.3-15.61,4.17-15.91,5.22c0,0,0,6.77,2.43,7.08,1.07.14,5.05-1.06,9.24-1.08A64,64,0,0,1,344.88,162.53Z"/><path class="cls-17" d="M328.4,151.11s-4.68,7.09,1.72,10.34l9.68.24s4.28-7,.27-11.13C340.07,150.56,332.51,147.74,328.4,151.11Z"/><path class="cls-40" d="M339.8,155.31a5.53,5.53,0,1,1-5.5-4.92A5.23,5.23,0,0,1,339.8,155.31Z"/><path class="cls-17" d="M336.42,154.92a2.12,2.12,0,1,1-2.12-2.18A2.14,2.14,0,0,1,336.42,154.92Z"/><path class="cls-19" d="M333.42,152.37a1.39,1.39,0,1,1-1.38-1.26A1.32,1.32,0,0,1,333.42,152.37Z"/><path class="cls-19" d="M335.77,153.43a.74.74,0,1,1-.73-.69A.71.71,0,0,1,335.77,153.43Z"/><path class="cls-17" d="M322.22,155.45s1.41-6.21,7.52-7.37,11.36.64,14.55,5.54A16.73,16.73,0,0,0,333,149.45s-7.62-.34-10.76,6.57"/><path class="cls-17" d="M325.84,162.44s12.29-2,17.42-.19C343.26,162.25,332.47,164.27,325.84,162.44Z"/><path class="cls-16" d="M373.89,162.63s-3.84-9.29,6.75-12.3,15.6,4.17,15.9,5.22c0,0,0,6.77-2.43,7.08-1.07.14-5.05-1.06-9.23-1.08A64,64,0,0,0,373.89,162.63Z"/><path class="cls-17" d="M390.36,151.21s4.69,7.09-1.71,10.34l-9.68.24s-4.28-7-.28-11.14C378.69,150.65,386.26,147.84,390.36,151.21Z"/><path class="cls-41" d="M379,155.41a5.53,5.53,0,1,0,5.49-4.92A5.23,5.23,0,0,0,379,155.41Z"/><path class="cls-17" d="M382.35,155a2.12,2.12,0,1,0,2.11-2.18A2.14,2.14,0,0,0,382.35,155Z"/><path class="cls-19" d="M385.34,152.47a1.39,1.39,0,1,0,1.39-1.26A1.32,1.32,0,0,0,385.34,152.47Z"/><path class="cls-19" d="M383,153.53a.72.72,0,0,0,.74.69.69.69,0,1,0,0-1.38A.72.72,0,0,0,383,153.53Z"/><path class="cls-17" d="M396.54,155.55s-1.4-6.21-7.52-7.37-11.35.64-14.55,5.54a16.73,16.73,0,0,1,11.31-4.17s7.63-.34,10.76,6.57"/><path class="cls-17" d="M392.93,162.54s-12.29-2-17.43-.19C375.5,162.35,386.29,164.37,392.93,162.54Z"/><path class="cls-21" d="M340,188a112.57,112.57,0,0,0,18.6.73c6.18-.28,12.95-1.72,18.88-2.82,0,0-.85,14.64-19.84,15.86C357.61,201.8,341.82,202.33,340,188Z"/><path class="cls-22" d="M346.46,198.73s-.82-1.26,2-2.25c3.23-1.14,13.3-1.54,19.44-.28a6.92,6.92,0,0,1,2.91,1.32S358.74,205.1,346.46,198.73Z"/><path class="cls-16" d="M342.64,191.32c1.31,1.55,8.84,2.27,15.93,2.18,6-.07,11.46-.57,14.64-3.09l4.24-4.47S356.66,190.38,340,188Z"/><path class="cls-16" d="M344.52,197.24c-.39-.77,6.31,1.17,13.44,1,6.81-.2,14.07-2.37,14.17-1.91.2.94-8.58,5.74-14.52,5.5S345.28,198.75,344.52,197.24Z"/><polygon class="cls-36" points="377.27 227.54 374.85 321.89 381.56 320.48 383.96 230.44 377.27 227.54"/><path class="cls-42" d="M345.68,226.24l-5.05,4.2s13.93,14.44,15.81,13.73,3.15-9.52,3.15-9.52Z"/><path class="cls-42" d="M372.13,225l5.14,2.55s-10,16.27-11.69,16.63-6-9.52-6-9.52Z"/><path class="cls-5" d="M359.59,236s14-4.09,15.53-.37.69,8.58-2.08,9.74-4.48.15-12.86-3.73Z"/><path class="cls-5" d="M359,236.4s-14.41-5.21-15.53-.45.29,9.11,2,9.75,4.49.17,12.89-3.66Z"/><path class="cls-43" d="M364.27,238.7a6.21,6.21,0,0,0-.62-2s2.32-.77,6.1-2.18l-10.55,1.66.59,5.22c1.31,1.5,3,.18,3.9-1A2.12,2.12,0,0,0,364.27,238.7Z"/><path class="cls-43" d="M363.86,239.26a6.1,6.1,0,0,1-1.1,1.81s2.06,1.32,5.37,3.62l-9.81-4.22L360,236c1.64-1.13,3.15.11,3.71,1.45A2.07,2.07,0,0,1,363.86,239.26Z"/><path class="cls-5" d="M362.64,238.7a3.46,3.46,0,1,1-3.44-3.88A3.68,3.68,0,0,1,362.64,238.7Z"/><polygon class="cls-36" points="334.99 232.56 334.99 322.26 341.38 323.06 340.63 230.44 334.99 232.56"/><path class="cls-36" d="M361.74,253.79a2.16,2.16,0,1,1-2.16-2.32A2.24,2.24,0,0,1,361.74,253.79Z"/><path class="cls-36" d="M361.74,266.41a2.16,2.16,0,1,1-2.16-2.32A2.24,2.24,0,0,1,361.74,266.41Z"/><path class="cls-36" d="M361.74,279.64a2.16,2.16,0,1,1-2.16-2.32A2.24,2.24,0,0,1,361.74,279.64Z"/><path class="cls-36" d="M361.74,293.54a2.16,2.16,0,1,1-2.16-2.32A2.24,2.24,0,0,1,361.74,293.54Z"/><path class="cls-36" d="M361.74,307.42a2.16,2.16,0,1,1-2.16-2.31A2.24,2.24,0,0,1,361.74,307.42Z"/><path class="cls-44" d="M340.34,318.78a2.17,2.17,0,1,1-2.16-2.32A2.25,2.25,0,0,1,340.34,318.78Z"/><path class="cls-44" d="M380.55,316.83a2.17,2.17,0,1,1-2.16-2.32A2.25,2.25,0,0,1,380.55,316.83Z"/><path class="cls-5" d="M372.36,417.24s11.16,2,16.43-1.79l-.34,16.08-14.72,1.41Z"/><path class="cls-45" d="M378,417.74a41.11,41.11,0,0,1-5.14-.49l1.37,15.69,4.91-.47Z"/><path class="cls-7" d="M397.41,448.82s-2.87-14.74-6.53-21.41c-.14-.24-.37-2.44-.59-2.66-.43-.41-3.89.38-4,2.08a6.13,6.13,0,0,0-5.29-3.1,5.37,5.37,0,0,0-5.39,3.4c-.23-1.25-4-1.8-4.33-1.11-.14.27.18,2.16.06,2.4-2.27,4.76-5.59,16.73-5.07,21.29C366.28,449.71,383.47,456.16,397.41,448.82Z"/><path class="cls-46" d="M377.37,426.56a3.53,3.53,0,0,0,0-.8,5.21,5.21,0,0,0-1.39,2c-.23-1.24-3.76-2.19-4.11-1.51-.14.27,0,2.54-.16,2.79-2.27,4.68-5.58,16.49-5.06,21a44.29,44.29,0,0,0,6.33,1.66C372.43,446.13,375.31,432.12,377.37,426.56Z"/><path class="cls-25" d="M397.5,450.5c.3-6.32-6.31-16.18-15.5-16.6s-18.46,12.92-16.09,18S395.63,456.71,397.5,450.5Z"/><path class="cls-47" d="M374.4,450.11c-.45-5.06,4.67-12.5,11.78-14.94a14.69,14.69,0,0,0-5.15-.88c-9.08.69-15.29,10-14.77,15.9,1.24,3.41,11.46,4.54,19.92,3.87C380.34,453.71,375.25,452.45,374.4,450.11Z"/><path class="cls-48" d="M397.22,447.6s-18.81,5.51-31.36.46a4.85,4.85,0,0,0,.9,4.71c.94,1.11,10.94,2.85,14.61,2.66s14.34-2,15.24-3.23A4.37,4.37,0,0,0,397.22,447.6Z"/><path class="cls-26" d="M373,432.42s8-8.11,16.3-.27"/><path class="cls-26" d="M373,435s8-8.11,16.3-.27"/><path class="cls-36" d="M353.14,347.62s6.84,4.31,13,0"/><path class="cls-5" d="M370.76,413.81s7.49,2.34,19.73-1v3.28a25.53,25.53,0,0,1-19.73,1.53Z"/><path class="cls-34" d="M352.31,426.93s-.27-4.27-8.41-5.07-9.88.59-10.54,3.23a4.76,4.76,0,0,0,.77,4.24h17.18Z"/><path class="cls-12" d="M357.36,179.83c1.87-.5,4-4.89,3.78-5.9s-7.13-1.73-8.92.45S355.49,180.34,357.36,179.83Z"/><path class="cls-5" d="M351.31,418.14s-11.16,2-16.44-1.79l.34,16.08,14.73,1.41Z"/><path class="cls-45" d="M340.75,434.54l-.31-14.45a12.29,12.29,0,0,1-4.84-1.88l.34,16.08,14.73,1.41,0-.22Z"/><path class="cls-7" d="M327.23,449.87S329.57,435,333,428.23a24.11,24.11,0,0,1,.49-2.67c.41-.43,3.9.24,4.07,1.94a6.12,6.12,0,0,1,5.16-3.29,5.38,5.38,0,0,1,5.52,3.2c.19-1.26,3.91-1.94,4.29-1.26.14.26-.11,2.16,0,2.4,2.44,4.68,6.18,16.52,5.82,21.1C358.37,449.65,341.42,456.7,327.23,449.87Z"/><path class="cls-46" d="M333.53,449s2.28-14.61,5.61-21.3c.07-.15.15-1,.26-1.73a5.75,5.75,0,0,0-1.55,1.9c-.16-1.67-3.54-2.33-3.94-1.91a25.88,25.88,0,0,0-.48,2.63c-3.33,6.69-5.61,21.3-5.61,21.3,8.15,4,17.24,3.18,23.31,1.86C345.76,452.27,339.4,451.89,333.53,449Z"/><path class="cls-25" d="M327.2,451.54c-.53-6.3,5.74-16.39,14.9-17.13s18.9,12.25,16.72,17.41S329.29,457.68,327.2,451.54Z"/><path class="cls-47" d="M335.41,451.66c-.45-5.32,4.12-13.36,11.23-15.93A11.1,11.1,0,0,0,342,435c-9.09.72-15.29,10.56-14.77,16.7,1.24,3.58,11.45,4.77,19.91,4.07C341.34,455.44,336.26,454.12,335.41,451.66Z"/><path class="cls-48" d="M327.38,448.63s19,4.84,31.35-.64a4.86,4.86,0,0,1-.72,4.74c-.91,1.13-10.84,3.23-14.51,3.17s-14.41-1.47-15.35-2.69A4.4,4.4,0,0,1,327.38,448.63Z"/><path class="cls-26" d="M351,432.61s-8.26-7.83-16.3.31"/><path class="cls-26" d="M351.18,435.14s-8.26-7.83-16.3.3"/><path class="cls-5" d="M352.91,414.72s-7.49,2.33-19.73-1V417a25.52,25.52,0,0,0,19.73,1.53Z"/><path class="cls-15" d="M305,165.19s-9.23-7.36-8.8,4.06,6.44,14.43,8.79,14.17,3.11-6,3.11-6Z"/><path class="cls-4" d="M413.31,162.77s9.84-8.61,6.58,4.95-8.85,14.86-11.17,15-1-5.81-1-5.81Z"/><path class="cls-49" d="M347.29,191.63l-2.14-2.57c-1.38-.09-2.75-.21-4.09-.38l2.15,2.6c.71.74,3.26,1.17,6.74,1.44C348.38,192.41,347.71,192.12,347.29,191.63Z"/><path class="cls-50" d="M369.85,187.64,366,191.25a11.13,11.13,0,0,1-3.52,1.54c4-.23,8.1-1,10.36-2.56l3.35-3.57S373.72,187.13,369.85,187.64Z"/><path class="cls-12" d="M359.69,154.12c-.8-.22-.77,12.91-3.19,18.84a2.79,2.79,0,0,0,3.44-.28C361.53,171.14,360.48,154.34,359.69,154.12Z"/><path class="cls-26" d="M359.69,173.37s-13.48-1.22-5.23,5.48"/><path class="cls-26" d="M359,159.53s-.19,10.55-3.24,13.82"/><path class="cls-12" d="M358.11,204.85a14.36,14.36,0,0,1-6.41-1.55,7.25,7.25,0,0,0,6.37,3.95,8,8,0,0,0,6.87-4.17A17.34,17.34,0,0,1,358.11,204.85Z"/><path class="cls-45" d="M336.82,417.8v-2.68c-1-.16-2-.58-3.13-.8V417a24.34,24.34,0,0,0,3.91,1.23C337.1,418,336.82,417.8,336.82,417.8Z"/><path class="cls-51" d="M358.13,238.45a3.38,3.38,0,0,1,2.19-2.87,5.82,5.82,0,0,0-1-.24,3.36,3.36,0,1,0,0,6.72,3.49,3.49,0,0,0,1.48-.34A3.37,3.37,0,0,1,358.13,238.45Z"/><path class="cls-43" d="M348.6,245.11c-1.73-.58-3.15-4.51-2-8.81.27-1,1.32-1.55,2.75-1.73-2.86-.25-5.34.05-5.78,1.73-1.12,4.3.29,8.23,2,8.81a6.16,6.16,0,0,0,3.14,0Z"/><path class="cls-28" d="M423.18,98.12a18.46,18.46,0,0,1-.79,1.72c1,8.91-3.51,13.89-19.43,8.74S374.3,88.08,360.11,89.1s-32,12.42-50.38,21.81-12.38-11.07-12.38-11.07-.12-.23-.18-.34c-1.8,6.45-2,12.75.18,16.11,0,0-6,20.47,12.38,11.08s36.19-20.8,50.38-21.82S387,119.21,403,124.35s20.43.17,19.43-8.74C422.39,115.61,427.47,106.28,423.18,98.12Z"/><path class="cls-52" d="M315.26,111.19c-3.3-4.9-1.3-16.11,3.44-24.84,3.55-6.55,10.92-20.2,33.51-27.77-37,5-47.16,23.79-51.52,31.83-4.74,8.74-6.74,19.94-3.44,24.85,0,0-6.14,20.25,12.72,10.95,2-1,4-2,6-3C312.68,119.72,315.26,111.19,315.26,111.19Z"/><path class="cls-28" d="M328.8,95.49s29.6-23.65,58.36-1.74C387.16,93.75,358.34,62.23,328.8,95.49Z"/><path class="cls-53" d="M336.29,454.45c-1.63-1.94-1.1-3.44-.91-3.86a44.15,44.15,0,0,1-7.67-1.52,3.75,3.75,0,0,0,.76,4.2c.66.78,6.33,1.34,10.79,1.81C337.86,454.77,336.56,454.76,336.29,454.45Z"/><path class="cls-53" d="M375.76,454.24c-1.64-1.87-1.91-3.25-1.72-3.65a30.68,30.68,0,0,1-7.77-1.87,4,4,0,0,0,1.06,4.06C368,453.53,376,454.54,375.76,454.24Z"/><path class="cls-45" d="M375.53,417.71v-2.6a28,28,0,0,1-4.44-.52v2.78a31.37,31.37,0,0,0,6.56.91C377,418.12,376.25,417.94,375.53,417.71Z"/><path class="cls-54" d="M364.74,320.47a5.55,5.55,0,1,1-5.54-5.54A5.54,5.54,0,0,1,364.74,320.47Z"/><polygon class="cls-29" points="371.73 265.23 374.52 272.47 367.26 269.62 371.73 265.23"/><path class="cls-29" d="M340.54,241.18a1.84,1.84,0,0,0,2.54-.28h0a1.82,1.82,0,0,0,.31-2.52l-1.69-1.69a1.84,1.84,0,0,0-2.54.28h0a1.81,1.81,0,0,0-.31,2.51Z"/><path class="cls-29" d="M345,240a.92.92,0,0,0,1.25-.2l1.22-1.2c.41-.41.51-1,.22-1.24h0a.92.92,0,0,0-1.25.2l-1.22,1.2c-.41.4-.51,1-.22,1.24Z"/><path class="cls-30" d="M366.75,269.33c.91.92,2.7.62,4-.65h0c1.3-1.28,1.61-3.06.7-4l-26.83-26.94c-.91-.91-2.71-.62-4,.66h0c-1.3,1.27-1.62,3-.7,4Z"/><path class="cls-29" d="M357,248a.81.81,0,0,0,1.09-.17h0a.81.81,0,0,0,.19-1.08l-10.95-11a.82.82,0,0,0-1.09.18h0c-.35.35-.44.83-.19,1.08Z"/><path class="cls-31" d="M367.2,269.78c.91.92,2.7.62,4-.65h0c1.3-1.28,1.61-3.05.7-4l-11.06-11.1c-.91-.91-2.7-.62-4,.66h0c-1.3,1.27-1.61,3-.7,4Z"/><path class="cls-23" d="M387.05,265.25s9.34,15.93,9.16,19.45-3.74,9.21-6.1,15.48-.94,24.45,4.7,20.53,14.12-21.55,16.21-24.85c2.94-4.64,4.77-12.88,4.94-18.54s-8.86-24-10.82-30.12C403.81,243,397.89,235.89,392,234"/><path class="cls-35" d="M393.13,298.15c2.36-6.27,5.93-11.95,6.1-15.48s-7.48-14.52-7.48-14.52l-4.84-4.93s9.33,15.93,9.16,19.45-3.74,9.21-6.1,15.48-.94,24.44,4.7,20.53l.18-.14C391.77,315.51,391.26,303.11,393.13,298.15Z"/><polygon class="cls-32" points="346.91 325.57 344.93 322.08 356.96 279.39 395.57 279.05 399.02 281.22 346.91 325.57"/><polygon class="cls-29" points="359.8 281.22 346.91 325.57 383.89 326.22 399.02 281.22 359.8 281.22"/><path class="cls-31" d="M358.33,280.54a21.44,21.44,0,0,1,2.66,13c-.72,4.86-4.69,25.1-4.69,25.1l34.75,1.06s4.35-19.32,5.07-32.8c.18-3.44-3.41-5.84-3.41-5.84"/><path class="cls-31" d="M357.31,280.09s0-1.15,1.54,1.54c1.14,2,4,6.82,3.78,12.19-.18,4.91-3.13,22.81-3.13,22.81l35-.12s4.09-18.14,4.81-31.62c.18-3.44-3.75-5.84-3.75-5.84Z"/><path class="cls-23" d="M300.56,277.85s14.54-17,16.36-19.62,16.21,9.31,12.66,13.15-16,19.07-23.45,25.12-18.11-5.64-13.37-15.18c4.33-8.75,21.18-36.33,25.15-40.54a20.6,20.6,0,0,1,9.11-5.44"/><path class="cls-3" d="M358.67,243.75s2.15-.87,3.68,4.46c1.29,4.51,4.94,5,3.26,7.37-1.41,2-3.37,2.34-6.09-1.38a52,52,0,0,1-2.67-4.92s-6.39,1.27-7.67.95c0,0-5.28,2.17,1.16.85,2.06-.42,5.2-1.12,6.37.53a65.33,65.33,0,0,1,3.62,6.21s2.37,3,1.67,4c-1.78,2.48-.86,3-4,.8-1-.72-4.39-6-4.9-6.36-1.09-.85-5.68.1-9.4.34,0,0,8.46-1.76,10.09,1.05s5.51,5.61,5.39,7.27a2.72,2.72,0,0,1-1,2.22c-.69.83-2.52.06-4.26-2a48.06,48.06,0,0,0-4.09-3.82c-2.32-1.26-7.47.18-7.47.18-.35-.38,6.05-1,7.68.86s4,5,4,5-1.3,3.06-3.39,2.16c-.93-.41-2.25-1.62-4.09-2.8-2.23-1.45-9.38.65-9.38.65l-7.09-1s-1.94,5-5.7,2.32c-1.54-1.11-6-3.38-6.35-5.63-.43-2.5,4.27-5.73,7-9.31s11.53-6.08,15.07-7.62S358.67,243.75,358.67,243.75Z"/><path class="cls-3" d="M400.53,309.84c-.49,2.43-5,10-5.72,10.87s-7.77,2.84-8.51,2.61-5.54-.83-6.73-1.38,0-2.46.52-2.57,5,.5,6,.48,2.28.07,2.59-1h0a24.94,24.94,0,0,1-3.26.47c-1.4.07-9.14-1-10.91-1.31s-1.31-3,.09-2.91,9.18.84,10.16.79,5.32-.08,5.8-1.41-.71-.35-.71-.35-3.85,1.31-6,1.06l-11.15-1.29c-2.75-.33-1.54-4.09,1-4.09,1.11,0,6.73.69,8.3.82,2.54.21,10.06-1.06,10.6-2.5h0s-6.92.41-8.64,0-7.83-1.74-9.44-2.29,1.3-4,2.43-3.79c3.16.59,9.54,2,9.54,2-1,.12,6.15-.09,8-2.14,0,0,2.58-3,2.64-3.74s1.53-4.81,1.5-6.94c0-1.93,2.56.17,2.92,1.12.55,1.49,0,4.74-.36,9.17C400.84,305,400.75,308.76,400.53,309.84Z"/><path class="cls-12" d="M355.62,264.33a51.92,51.92,0,0,0-4.32-3.71,5.63,5.63,0,0,0-2.48-.62,3.29,3.29,0,0,1,.63.29,2.94,2.94,0,0,1,.45.37,3.39,3.39,0,0,1,1.56.94c.79,1,2.25,2.25,3,3.24,1.26,1.31,2.82,2,3.48,1.57A9.93,9.93,0,0,1,355.62,264.33Z"/><path class="cls-12" d="M324.43,265.46c-1.43-1.12-.95-.65-1.22-2.78-.3-2.39,2.29-3.75,5-7s12.15-7.27,15.61-8.54c4.87-1.8,14.67-1.18,16.27-1.2.12-.66-1.14-1.25-1.14-1.25s-11.8-.38-15.26.9-13.53,3.7-16.28,6.94-8.77,7.76-8.46,10.15c.27,2.13,4.21,4.21,5.64,5.33,1,.77,2.36-.28,3.17-.38C327.51,267.49,324.73,265.69,324.43,265.46Z"/><path class="cls-12" d="M348.78,266.15a4.73,4.73,0,0,0-2.38-.6,2.38,2.38,0,0,1,.53.26c1.71,1.21,2.93,2.42,3.8,2.84a1.72,1.72,0,0,0,1.43.08C351.33,268.18,350.24,267.18,348.78,266.15Z"/><path class="cls-12" d="M361.35,253.59a51.06,51.06,0,0,1-2.35-4.77s-.16-.32-1.1-.2c.15.34-.14,1.21.1,1.72.53,1.44,2.4,3.5,3,4.76a2.76,2.76,0,0,0,2.63.93A7.81,7.81,0,0,1,361.35,253.59Z"/><path class="cls-12" d="M358.75,260.44l-3.43-4.37a3.38,3.38,0,0,0-2.14-.59c.19.34,1.61,1.68,1.9,2.2.33.15,2.35,3.53,3.48,4.39s.78,1.26,1.57,1C359.35,262.65,359.73,261.68,358.75,260.44Z"/><path class="cls-12" d="M384.77,311.3c2.43.2,9.63-1,10.14-2.39l-2,.1c-.7,1.1-5.51,2.07-8.49,2.26Z"/><path class="cls-12" d="M394.79,308Z"/><path class="cls-12" d="M391,319.53s-1.06.22-2.16.36a1.66,1.66,0,0,1-1.22.51c.4,0,.72.06.9.06C389.49,320.44,390.72,320.52,391,319.53Z"/><path class="cls-12" d="M387.42,316.55c.94,0,5.08-.08,5.54-1.34s-.67-.34-.67-.34-.54.18-1.33.39c-.49,1-3.24,1.18-4.73,1.24C386.81,316.54,387.24,316.56,387.42,316.55Z"/><path class="cls-12" d="M391.63,305c-.93.11,3.17-.89,4.9-2.85,0,0,2.46-2.83,2.53-3.57s1.31-4.26,1.28-6.29V292c-.84-.75-1.82-1.32-1.8-.06,0,2-1.37,5.9-1.44,6.64s-2.53,3.57-2.53,3.57a7.81,7.81,0,0,1-4.92,2.3C389.93,304.47,391.63,305,391.63,305Z"/><path class="cls-12" d="M375.23,305.46c1.54.53,8.43,1.91,10.08,2.31.65.16,1.63-.42,3.12-.44-.69,0-2.71-.06-3.06-.14-1.65-.4-6.25-1.44-7.79-2-1.24-.42.14-1.4,1.35-2.12-.43-.09-1.42-.37-1.79-.44C376.07,302.46,373.7,304.93,375.23,305.46Z"/><path class="cls-12" d="M382.3,321.3c-1-.48-.68-.8-.13-1.15a14.34,14.34,0,0,0-1.85-.15c-.52.11-1.17,1,0,1.56s5.78.82,6.49,1a6.63,6.63,0,0,0,1.23-.28C386.47,322.05,383.23,321.74,382.3,321.3Z"/><path class="cls-12" d="M385.78,318.82c.2,0,1.15-.42,1.35-.44-2.6-.24-8.3-.58-9.66-.8s-1.67-1.11-.74-1.58c-.67-.06-1.4-.1-1.67-.11-1.34-.1-1.24,1.39.45,1.67S384.44,318.88,385.78,318.82Z"/><path class="cls-12" d="M386.84,314.3c-2.49-.29-9.64-1-10.82-1.12-2.41-.29-1.95-2,.06-2.47-.63-.06-1.42-.41-1.67-.41-2.42,0-3.93,2.81-1.3,3.13,1.25.15,9.08.87,11.13,1.11A22.64,22.64,0,0,0,386.84,314.3Z"/><path class="cls-35" d="M317.81,258.88c-.29.43-.82.47-1.66,1.5l-14.1,16.94s13.88-13.16,17.72-18C318.18,258.44,318.27,258.19,317.81,258.88Z"/><path class="cls-35" d="M297.17,280.36c4.33-8.75,21.18-36.33,25.15-40.53a35.46,35.46,0,0,1,4.7-3.53,16.1,16.1,0,0,0-8,4.91c-4,4.2-21.64,32-26,40.74-4.54,9.16,4.6,18.69,12,14.24C298.82,295.44,293.51,287.74,297.17,280.36Z"/></g></svg>