<svg xmlns="http://www.w3.org/2000/svg" xmlns:xlink="http://www.w3.org/1999/xlink" viewBox="0 0 512 512"><defs><style>.cls-1{fill:#e3e4c6;}.cls-2{fill:#1e8477;}.cls-11,.cls-13,.cls-14,.cls-16,.cls-17,.cls-18,.cls-19,.cls-2,.cls-20,.cls-21,.cls-22,.cls-23,.cls-25,.cls-26,.cls-29,.cls-3,.cls-30,.cls-34,.cls-35,.cls-36,.cls-37,.cls-38,.cls-39,.cls-43,.cls-44,.cls-45,.cls-47,.cls-5,.cls-51,.cls-57,.cls-59,.cls-60,.cls-7,.cls-9{stroke:#231f20;stroke-miterlimit:10;}.cls-3{fill:#eac369;}.cls-4{fill:#caaa5b;}.cls-27,.cls-5{fill:#d24834;}.cls-6{fill:#b13b29;}.cls-7{fill:#289e8f;}.cls-8{fill:#20877a;}.cls-9{fill:#0a4369;}.cls-10{fill:#003151;}.cls-11{fill:#dbb863;}.cls-12{fill:#cead5d;}.cls-13{fill:#2d2a2b;}.cls-14,.cls-28,.cls-55{fill:#9f3a28;}.cls-15{fill:#bd9f55;}.cls-16{fill:#c6c6c5;}.cls-17{fill:#231f20;}.cls-18{fill:url(#linear-gradient);}.cls-19{fill:#a5a3a2;}.cls-20{fill:url(#linear-gradient-2);}.cls-21{fill:#662628;}.cls-22{fill:#e25656;}.cls-23{fill:#12807b;}.cls-24{fill:#218a7c;}.cls-25{fill:#296e68;}.cls-26{fill:none;}.cls-29{fill:#50413a;}.cls-30{fill:#e2e6c7;}.cls-31{opacity:0.3;}.cls-32{fill:#777b6c;}.cls-33{fill:#463933;}.cls-34{fill:url(#linear-gradient-3);}.cls-35{fill:#352a24;}.cls-36{fill:url(#linear-gradient-4);}.cls-37{fill:#a63726;}.cls-38{fill:#307872;}.cls-39{fill:#183247;}.cls-40{fill:#0a2437;}.cls-41{fill:#c8a95b;}.cls-42{fill:#050505;}.cls-43{fill:url(#linear-gradient-5);}.cls-44{fill:url(#linear-gradient-6);}.cls-45{fill:#0f5856;}.cls-46{fill:#ac3928;}.cls-47{fill:#eda721;}.cls-48{fill:#ad3a28;}.cls-49{fill:#1f8679;}.cls-50{fill:#1b5954;}.cls-51{fill:#e7664e;}.cls-52{fill:#aaa;}.cls-53{fill:#b5b5b5;}.cls-54{fill:#a83826;}.cls-55{opacity:0.5;}.cls-56{fill:#bf543f;}.cls-57{fill:#0d273a;}.cls-58{fill:#096e69;}.cls-59{fill:url(#linear-gradient-7);}.cls-60{fill:url(#linear-gradient-8);}</style><linearGradient id="linear-gradient" x1="135.15" y1="147.72" x2="135.15" y2="137.09" gradientUnits="userSpaceOnUse"><stop offset="0" stop-color="#5a5c5b" stop-opacity="0"/><stop offset="0.54" stop-color="#3e3e3f" stop-opacity="0.7"/></linearGradient><linearGradient id="linear-gradient-2" x1="-2570.51" y1="148.67" x2="-2570.51" y2="138.04" gradientTransform="matrix(-1, 0, 0, 1, -2393.65, 0)" xlink:href="#linear-gradient"/><linearGradient id="linear-gradient-3" x1="140.85" y1="245.06" x2="140.85" y2="218.35" gradientUnits="userSpaceOnUse"><stop offset="0" stop-color="#fff"/><stop offset="0.54" stop-color="#50413a"/><stop offset="1" stop-color="#e9eaeb"/></linearGradient><linearGradient id="linear-gradient-4" x1="132.5" y1="231.7" x2="149.2" y2="231.7" gradientUnits="userSpaceOnUse"><stop offset="0" stop-color="#221812"/><stop offset="0.54" stop-color="#4b3d2e"/><stop offset="1" stop-color="#332923"/></linearGradient><linearGradient id="linear-gradient-5" x1="-75.53" y1="158.82" x2="-75.53" y2="149.03" gradientTransform="translate(410.11)" xlink:href="#linear-gradient"/><linearGradient id="linear-gradient-6" x1="-2734.88" y1="158.92" x2="-2734.88" y2="149.13" gradientTransform="matrix(-1, 0, 0, 1, -2350.38, 0)" xlink:href="#linear-gradient"/><linearGradient id="linear-gradient-7" x1="338.42" y1="251.86" x2="338.42" y2="225.15" xlink:href="#linear-gradient-3"/><linearGradient id="linear-gradient-8" x1="330.07" y1="238.5" x2="346.77" y2="238.5" xlink:href="#linear-gradient-4"/></defs><title>maskot</title><g id="Layer_2" data-name="Layer 2"><path class="cls-1" d="M430.74,87c25.11,38,26.63,88.63,39.94,134.27,13.31,46,38.42,86.73,41.08,133.13s-17.11,98.14-54.77,116-93.19,1.9-136.18-15.6c-42.6-17.5-72.65-36.52-115.25-52.87-43-16-98.14-29.67-143.4-70C17.28,291.65-17.72,224.7,9.67,190.09c27.77-34.61,117.53-37.28,177.63-63.9,60.48-26.25,90.53-76.46,130.09-89C357,24.25,405.64,49.35,430.74,87Z"/></g><g id="Layer_1" data-name="Layer 1"><path class="cls-2" d="M172.18,424.54s1.24-.12,1.51,2.81c0,0-17.23,9.14-17.23,3.88s1.42-6.69,2.78-6.69Z"/><path class="cls-2" d="M134.64,424.25s-1.62-.47-1.62,3.35c0,0,17.34,8.59,17.34,3.34s-1.43-6.69-2.79-6.69Z"/><path class="cls-3" d="M130.64,370.51s3.22,52.55,4,55.58l4.08,5.83,9.81-3.5L152,364.33l-8.3-4.43-13,1.17Z"/><polygon class="cls-3" points="154.64 365.83 158.02 427.92 165.24 433.46 171.95 426.43 178.06 360.88 154.64 365.83"/><path class="cls-4" d="M138.55,424.23c-.82-3-3.12-54.17-3.12-54.17l4-10.57h-8.35l-.43,9.83s4.22,52.16,5,55.19l4.08,5.83,6.69-2.39Z"/><polygon class="cls-4" points="161.92 424.54 159.81 362.69 154.64 364.06 159.03 426.11 161.92 424.54"/><path class="cls-5" d="M132.54,399.94s10,5.78,17.54,0l-1.92,30.4H134.47Z"/><path class="cls-6" d="M138.1,402.8a22.22,22.22,0,0,1-5.08-2L135,431.23h5Z"/><path class="cls-5" d="M156.46,399.94s15.16,6.91,18.23-2.89l-3.05,35.83-12.92.51-.64-4.07Z"/><path class="cls-6" d="M163.69,430.21l-1.54-27.75c-2.73-.7-5.23-1.62-5.23-1.62l1.63,29.6,1.1,3.85,4.65-.19Z"/><path class="cls-7" d="M132.66,279.56c8.72-11.22,6.35-50.87,6.35-50.87l10.25-11h21s10.37,1.66,7.94,9.51.64,50.8.64,50.8c20.37,24.77,24.3,76.42,24.3,76.42-6,14.13-21.15,9.78-21.15,9.78-16.73,16.78-28.8,2.93-28.8,2.93-13.93,11.42-24.82-2.58-24.82-2.58-16.46,7.62-22.13-9.79-22.13-9.79C104.7,348.47,123.06,291.89,132.66,279.56Z"/><path class="cls-8" d="M181.78,357.75c-16.49,16.52-27.89-1.34-27.89-1.34-13.71,11.24-23.25-1.51-23.25-1.51-16.21,7.51-18-9.52-18-9.52,1.57-6,16.43-61.32,25.88-73.47,8.59-11,10.12-50.52,10.12-50.52l1.73-1.87h-1.51l-10.1,10.85s2.34,39.05-6.25,50.09c-9.45,12.15-27.53,67.86-26,74,0,0,5.58,17.15,21.79,9.65,0,0,10.72,13.78,24.44,2.53,0,0,11.88,13.65,28.36-2.87,9.48,1.8,16,.7,19.6-7.27C195.19,358.2,181.78,357.75,181.78,357.75Z"/><path class="cls-9" d="M166.25,280.6a64.41,64.41,0,0,1,0-17.65c1.37-9.26,3.8-39.85,4-43.17s-2.77-4.6-.32-3.9,22.33,2.43,27.26,21.08c0,0,1.93,10.63-.41,20.16-1.51,6.12-2.83,21-7.8,24.61S178.8,278,178.8,278,172.23,281.48,166.25,280.6Z"/><path class="cls-10" d="M171.09,265.27c.43-8.65-.74-19-.87-21s1.43-27.79.79-28c-2.45-.7,0,0-.18,3.32s-2.6,33.91-4,43.18a64.41,64.41,0,0,0,0,17.65c1.76.26,3.48-.49,5.17-.78A54.72,54.72,0,0,1,171.09,265.27Z"/><path class="cls-9" d="M146.82,280.43s1.44-15.91.81-20.8,1.63-42,1.63-42,4.46-2.91,1.19-2.44-21.29,1.05-29.68,16.08a74.16,74.16,0,0,0-8.71,31s-3.17-13.33-4.27-16-17.46-1.86-17.17,2c.2,2.68,9.74,35.28,18.3,38.25s10.57-.64,13.54-4.13S131.7,255,132.57,250.5c0,0,4.63,19.62.09,29.06C132.66,279.56,141.92,282,146.82,280.43Z"/><polygon class="cls-11" points="151.2 204.65 150.28 217.67 158.4 227.18 170.22 217.67 167.63 203.39 151.2 204.65"/><path class="cls-12" d="M157.07,215.69c-1.1-3,1.45-11.94,1.45-11.94l-6.9.53-.92,13,8.12,9.51,3.23-3S158.17,218.66,157.07,215.69Z"/><path class="cls-13" d="M135.41,195.24s-24.24,14.31-40.88-17.1C84,158.29,80.1,118.68,103.69,88.62,131,53.76,173.36,55.46,188.07,65.8c0,0,23-5.36,41.32,45.42,18.91,52.49-16.82,99.24-44.6,84.7-12.77-6.69-17.87,5.91-25.22,5C137.94,198.33,135.41,195.24,135.41,195.24Z"/><path class="cls-14" d="M113.26,149S92.11,94.48,159.5,81.16c0,0,1.32-.28,3-.81,2.74-.88,8.72-2.06,8.72-4.29,0-3.57,2.42-11.78-10.93-9.84s-76.72,17.46-54.2,79.37Z"/><path class="cls-3" d="M117.49,168.72c6.6,23.5,26.84,38.2,42.63,37.45s34.47-13.95,41.95-39.58c0,0,4,6.52,9,0s8.53-26.33-4.51-19.82c0,0,.5,2.77-4,9.79,0,0,8-26.07-4.52-37.1,0,0-13-12.54-19.55-29.09,0,0-8.42,11.36-43.63,23.9-14.54,5.19-20.94,17.7-19.44,41l-3.42-10c-3.47-1.92-8.87-1.5-8.23,8.76.42,6.67,2.21,10.13,4.76,13C112.14,171.19,117.49,168.72,117.49,168.72Z"/><path class="cls-12" d="M125.68,169.75l-2.05-13.42c-1.51-23.34,4.89-35.85,19.43-41,20.79-7.41,31.41-13.79,37.31-18.27a62,62,0,0,1-2.7-5.76s-7.63,10.46-42.84,23c-14.55,5.18-21,18.54-19.46,41.88l-4.31-10.38c-2.32-1.51-8-2-7.32,8.28.41,6.67,2,9.79,4.6,12.7,3.59,4.09,9,1,9,1,6.55,23.3,25.29,38.17,41,37.69C144.54,201.76,131.12,189.11,125.68,169.75Z"/><path class="cls-15" d="M110.42,148.5s-6.26-2.51-4.13,7.66c2,9.56,9.48,13.94,9.9,7.19l-1.88-7.19Z"/><path class="cls-16" d="M165,151.16s-4.21-10,7.42-13.29,17.15,4.51,17.48,5.64c0,0,0,7.32-2.67,7.65-1.18.15-5.56-1.68-10.15-1.71A50.88,50.88,0,0,0,165,151.16Z"/><path class="cls-16" d="M146.78,150.21s4.21-10-7.42-13.29-17.15,4.51-17.49,5.64c0,0,0,7.32,2.68,7.65,1.17.15,5.55-1.68,10.15-1.71A50.88,50.88,0,0,1,146.78,150.21Z"/><path class="cls-17" d="M119.7,130.49s6.21-8,28.24-1.51c0,0,6.41-4.84-3.4-7S119.9,123.3,119.7,130.49Z"/><path class="cls-17" d="M196,130.49s-6.42-8-29.18-1.51c0,0-6.62-4.84,3.52-7S195.81,123.3,196,130.49Z"/><path class="cls-17" d="M121,136.08s2,1.77,6.83,0,8.95-3.8,14.56,1.9c0,0-11.83-5.45-19.27,3.54l.91-2.78A3.46,3.46,0,0,1,121,136.08Z"/><path class="cls-17" d="M128.39,149.28a16.76,16.76,0,0,1,14,0S133.87,147.9,128.39,149.28Z"/><path class="cls-17" d="M128.67,137.87s-5.15,7.66,1.88,11.17l10.94-.54s4.41-6.78,0-11.23C141.49,137.27,133.18,134.23,128.67,137.87Z"/><path class="cls-18" d="M141.2,142.41c0,2.93-2.71,5.31-6,5.31s-6-2.38-6-5.31,2.7-5.32,6-5.32S141.2,139.47,141.2,142.41Z"/><path class="cls-17" d="M137.48,142a2.33,2.33,0,1,1-2.33-2.35A2.34,2.34,0,0,1,137.48,142Z"/><path class="cls-19" d="M134.19,139.23a1.54,1.54,0,1,1-1.52-1.36A1.45,1.45,0,0,1,134.19,139.23Z"/><path class="cls-19" d="M136.77,140.38a.81.81,0,1,1-.81-.74A.77.77,0,0,1,136.77,140.38Z"/><path class="cls-17" d="M190.78,137s-2,1.77-6.83,0-8.95-3.8-14.57,1.9c0,0,11.84-5.45,19.27,3.54l-.91-2.78A3.47,3.47,0,0,0,190.78,137Z"/><path class="cls-17" d="M183.42,150.23a16.76,16.76,0,0,0-14,0S178,148.85,183.42,150.23Z"/><path class="cls-17" d="M183.34,138.82s5.15,7.66-1.88,11.17l-10.94-.54s-4.41-6.78,0-11.23C170.52,138.22,178.83,135.18,183.34,138.82Z"/><path class="cls-20" d="M170.81,143.36c0,2.93,2.71,5.31,6.05,5.31s6-2.38,6-5.31-2.7-5.32-6-5.32S170.81,140.42,170.81,143.36Z"/><path class="cls-17" d="M174.53,142.94a2.33,2.33,0,1,0,2.33-2.35A2.34,2.34,0,0,0,174.53,142.94Z"/><path class="cls-19" d="M177.82,140.18a1.54,1.54,0,1,0,1.52-1.36A1.45,1.45,0,0,0,177.82,140.18Z"/><path class="cls-19" d="M175.24,141.33a.81.81,0,1,0,.81-.74A.77.77,0,0,0,175.24,141.33Z"/><path class="cls-21" d="M143.6,177.54s15.72,2.29,27.58.39c0,0-.5,11.91-14.79,12.23C156.39,190.16,144.52,190,143.6,177.54Z"/><path class="cls-22" d="M148.12,186.88s-1.34-.84.81-1.63c2.46-.91,11.12-1.18,15.69.23a3.13,3.13,0,0,1,1.82,1.3S157.14,193.23,148.12,186.88Z"/><path class="cls-16" d="M146.75,181.53c1.19.94,15,3.22,21.82-.42l2.61-3s-15.12,2.26-27.58-.59A23.42,23.42,0,0,0,146.75,181.53Z"/><path class="cls-16" d="M146.6,185.56s14,2.4,21.32,0a21.43,21.43,0,0,1-11.53,4.6S150.32,189.4,146.6,185.56Z"/><path class="cls-23" d="M158.68,227.18s-5.75,9.81-11.12,1.48c0,0-6-8.38,2.72-11Z"/><path class="cls-23" d="M158.4,227.18l11.82-9.51c8.73,2.61,0,12.94,0,12.94-6.71,5.83-11.82-3.43-11.82-3.43"/><path class="cls-7" d="M133,427.6a5.18,5.18,0,0,1,2,2.62,6.16,6.16,0,0,1,6-4.78s6.68,0,6.76,5.18c0,0,.33-2.63,2.28-2.59l.45,5.12s5.12,17.9,1,20.58-19.44,2.88-22.22-1,1.08-16.85,1.71-19.47A55.35,55.35,0,0,1,133,427.6Z"/><path class="cls-24" d="M136.22,452.18c-2.77-3.83,1.09-16.85,1.72-19.46a54.21,54.21,0,0,1,2-5.72,5.23,5.23,0,0,1,2.05,2.62,6.73,6.73,0,0,1,2.57-3.78,10.35,10.35,0,0,0-3.47-.7c-5,0-6,5.08-6,5.08a4.06,4.06,0,0,0-2-2.35s-.93,3.37-1.45,5.52c-.64,2.61-4.32,15.34-1.54,19.17,2,2.75,9.28,3,15.42,2.2C141.09,454.57,137.52,454,136.22,452.18Z"/><path class="cls-25" d="M135.06,430.22s-6,12.19-.26,9.72c5-2.13,7.22-2,13-.09,2.19.71,2.13-3.34,0-9.23,0,0,.66-4.55-6.76-5.18C141.06,425.44,137,424.89,135.06,430.22Z"/><path class="cls-7" d="M132.69,434s3.89-3.88,8.55-3.82a10.76,10.76,0,0,1,8.19,4.26,3.9,3.9,0,0,1,.42,3.82c-.68,1.07-5.17-3.47-9.21-3.3-3.36.14-6.17,3.82-7.69,3.74S130.92,436.32,132.69,434Z"/><path class="cls-7" d="M173.69,427.35a8.93,8.93,0,0,0-1.94,3.17,6.14,6.14,0,0,0-6-4.78s-6.67,0-6.76,5.18c0,0-.33-2.64-2.27-2.6l-.45,5.12s-5.12,17.91-1,20.59,19.44,2.87,22.22-1-1.08-16.85-1.72-19.46C175.25,431.46,173.69,427.35,173.69,427.35Z"/><path class="cls-24" d="M160.91,452.3c-2.77-3.83,1.09-16.86,1.72-19.47.52-2.15,1-4.13,1-4.13s2.62-.55,3.05,1c0,0-.26-1.29,1.81-2.69a17.05,17.05,0,0,0-3.38-.94c-5,0-5.84,5.12-5.84,5.12a4.79,4.79,0,0,0-2.32-2.53,17.12,17.12,0,0,1-.28,4.76c-.64,2.61-4.37,15.69-1.6,19.52,2,2.75,9,3,15.1,2.19C165.79,455,162.21,454.09,160.91,452.3Z"/><path class="cls-25" d="M171.75,430.52s6,12.18.26,9.72c-5-2.14-7.21-2-13-.1-2.19.71-2.12-3.33,0-9.22,0,0-.65-4.56,6.76-5.18C165.75,425.74,169.81,425.18,171.75,430.52Z"/><path class="cls-7" d="M174.12,434.26s-3.89-3.89-8.55-3.82a10.7,10.7,0,0,0-8.19,4.26,3.9,3.9,0,0,0-.41,3.81c.67,1.07,5.16-3.46,9.21-3.3,3.36.14,6.17,3.82,7.69,3.74S175.9,436.62,174.12,434.26Z"/><path class="cls-12" d="M155.77,169.72c1.86-.51,3.95-4.87,3.76-5.88s-7.09-1.72-8.87.45S153.91,170.22,155.77,169.72Z"/><path class="cls-12" d="M158.09,144.13c-.79-.22-.76,12.85-3.18,18.74a2.77,2.77,0,0,0,3.43-.28C159.92,161.07,158.88,144.34,158.09,144.13Z"/><path class="cls-26" d="M157.38,149.28s-.18,10.5-3.22,13.75"/><path class="cls-26" d="M158.38,162.8s-14.81-1.32-5.75,5.92"/><path class="cls-12" d="M201.44,162.16s7-10.09,6.64-13.12c0,0,5.27-5.14,4.39,8.4,0,0-2,12.08-8.19,8C200.31,162.88,201.44,162.16,201.44,162.16Z"/><path class="cls-12" d="M157.4,195.58A14.32,14.32,0,0,1,151,194a7.19,7.19,0,0,0,6.34,3.92,8,8,0,0,0,6.83-4.14A17.36,17.36,0,0,1,157.4,195.58Z"/><path class="cls-26" d="M178.8,278s1.48-24.58,5-28.76"/><path class="cls-10" d="M183.79,250.27s-2.81,26.63-1.87,30.27L179.53,278S179.78,256.62,183.79,250.27Z"/><path class="cls-8" d="M125.69,359.9c-3-34.1,15.61-78.17,15.61-78.17s-18,72.3-7.11,78.17Z"/><path class="cls-8" d="M151,364.53c-5.88-32.72,3.62-82.8,3.62-82.8s-4.47,77.89,2.18,80.63l-6.65-2.74"/><path class="cls-8" d="M183.88,359.49c-2.57-32.62-17.27-77.76-17.27-77.76s13.5,69.66,12.19,77.46.73.71.73.71Z"/><path class="cls-27" d="M164.46,66.35c-2.29-1-13.12,1.77-13.12,1.77-47.65,14.25-45,46-42.33,61.6-.27-16.63,9.51-34.73,33-44.18,0,0,12.13-6.26,17.14-8.1,2.61-1,8.39-3.77,8.39-5.93A5.47,5.47,0,0,0,164.46,66.35Z"/><path class="cls-5" d="M207.66,146.77s9.5-40-22-60.19c0,0-15.32-6-19.39-8.18s-10.4-17.88,11.57-11.64,40.93,22.77,40,48.07-6.91,31.49-7,31.46S207.66,146.77,207.66,146.77Z"/><path class="cls-28" d="M190.78,87.8s-14.73-7.52-18.61-10.53c-2.76-2.15-7.53-9.44.19-11.15-15.52-2.31-9.81,10.33-6.11,12.28,4.07,2.14,19.39,8.18,19.39,8.18A41.94,41.94,0,0,1,204.1,106C204.15,106.05,200,94.79,190.78,87.8Z"/><path class="cls-10" d="M112.68,266.18s4.15-19.83,12.54-34.86c6.8-12.19,18.76-15.25,25.23-16.09.13-.33,1.05-.15,0,0-3.27.48-21.29,1.05-29.68,16.09a70.53,70.53,0,0,0-7.16,19.5A124.91,124.91,0,0,0,112.68,266.18Z"/><path class="cls-10" d="M136.78,278c4.54-9.44-4.12-30.21-4.12-30.21-.32,1.66,2.37,9.42,2.24,13.68.61,6.11,0,13.35-2.24,18.11a55,55,0,0,0,11.49.38A23.92,23.92,0,0,1,136.78,278Z"/><path class="cls-10" d="M113.37,286.57c-8.57-3-18.11-35.58-18.31-38.26-.14-2,4.14-3.2,8.48-3.52-5.18-.43-13.12.8-12.92,3.52s9.74,35.28,18.3,38.26c3.38,1.17,5.73,1.31,7.53.84A23,23,0,0,1,113.37,286.57Z"/><path class="cls-9" d="M159.56,237.78a1.89,1.89,0,1,1-1.89-2A1.93,1.93,0,0,1,159.56,237.78Z"/><path class="cls-9" d="M159.56,245.12a1.89,1.89,0,1,1-1.89-2A1.93,1.93,0,0,1,159.56,245.12Z"/><path class="cls-29" d="M128.7,215.48a2.85,2.85,0,0,1-2.84,2.87H121a2.85,2.85,0,0,1-2.84-2.87h0a2.85,2.85,0,0,1,2.84-2.87h4.89a2.85,2.85,0,0,1,2.84,2.87Z"/><path class="cls-29" d="M163.55,215.48a2.63,2.63,0,0,1-2.31,2.87h-4a2.63,2.63,0,0,1-2.31-2.87h0a2.63,2.63,0,0,1,2.31-2.87h4a2.63,2.63,0,0,1,2.31,2.87Z"/><path class="cls-30" d="M168.94,240.59a6.43,6.43,0,0,1-6.63,6.21H119.43a6.43,6.43,0,0,1-6.64-6.21V220.5a6.43,6.43,0,0,1,6.64-6.21H130.6s.59-2.88,2.76-2.87c2.56,0,12.51,0,14.86,0,2.16,0,2.56,2.87,2.56,2.87h11.53a6.43,6.43,0,0,1,6.63,6.21Z"/><g class="cls-31"><path class="cls-32" d="M117.25,241.11V221c0-3.44,3-5.55,6.66-5.55l11.05-.29s.87-2.38,3-2.37c1.9,0,7.29,0,11.2,0-.35-.3-.27-.79-.85-.79l-14.56-.09c-2.17,0-2.52,2.88-2.52,2.88H119.61c-3.66,0-6.26,2.09-6.26,5.52l.44,20.36c0,3.43,1.86,5.37,5.52,5.37h2.33C119.29,245.11,117.25,243.66,117.25,241.11Z"/></g><polygon class="cls-29" points="168.94 240.63 112.79 240.63 112.79 222.24 130.5 222.34 130.5 218.35 150.58 218.35 150.58 222.34 168.94 222.24 168.94 240.63"/><rect class="cls-30" x="130.5" y="215.97" width="20.07" height="2.38"/><path class="cls-33" d="M151.29,222.76c-.22,0,1.65,1.49,1.43,1.53,2.25,2.93,1.93,5.2,1.92,7.41,0,1.62-.85,6.81-2.7,8.56a14.47,14.47,0,0,0,3-.76c2.18-2.73,2.63-3.72,2.63-9.33S154.51,222.76,151.29,222.76Z"/><path class="cls-34" d="M154.21,231.7a13.36,13.36,0,0,1-13.36,13.36c-7.37,0-13.35-5.48-13.35-12.85s6-13.86,13.35-13.86A13.36,13.36,0,0,1,154.21,231.7Z"/><path class="cls-35" d="M151.54,231.7A10.69,10.69,0,1,1,140.85,221,10.7,10.7,0,0,1,151.54,231.7Z"/><rect class="cls-36" x="132.5" y="227.68" width="16.69" height="8.04"/><path class="cls-3" d="M117.12,207.72s1.3-1.95,5.85,1.47c3.86,2.9,7.29,1.2,7.28,4.07,0,2.41-1.43,3.86-6,2.43a57.92,57.92,0,0,1-5.29-2.43S114.31,218,113,218.5c0,0-3,5.05,2.69,1.7a5.83,5.83,0,0,1,5.33-.74,34,34,0,0,1,6,2.87s3.32.84,3.32,2c0,3-.82,4.91-4.85,3.54-1.24-.42-5.35-2.69-6-2.72-1.44-.05-2.52,1.06-5.85,2.08a8.07,8.07,0,0,1,6.32-.4c3.1,1.31,8.22,2.6,9.13,4s.73,1.92.46,2.27-.16,3.56-3.27,1.75c-.52-.3-5.33-2.16-6.08-2.42-5.17-1.79-6,1.48-6,1.48-.53-.1,1.54-1.17,4.09-.58a36.15,36.15,0,0,1,7.14,3.16s1.13,2.79-1.19,3.28c-1,.21-4-.95-6.18-1.18a9.06,9.06,0,0,0-5.36,1.51l-6.83,4.32s-.56,4.12-3.84,4.12c-2,0-5.9,1.31-7.6-.28-1.9-1.78-.77-7-.11-11.83s6.46-12.7,8.53-16S117.12,207.72,117.12,207.72Z"/><path class="cls-9" d="M189,281.73c5.38-2.61,20.59-44.8,20.35-47.57s-12.59-6.73-14.82-3.76S185,255.54,185,255.54"/><path class="cls-3" d="M206.55,233.71a36,36,0,0,0,1.86-4.25l-10.7-2.93a12.11,12.11,0,0,0-.73,4.77C197.24,233.45,205.73,235.12,206.55,233.71Z"/><path class="cls-12" d="M200.09,231.94a11.49,11.49,0,0,1,.64-4.5L198,226.7a12.11,12.11,0,0,0-.73,4.77c.18,1.46,4.68,1.88,7.47,2.08C202.66,233,200.21,232.94,200.09,231.94Z"/><path class="cls-3" d="M220.22,211.62l-2.68-2.55-5.06-3.95,7.15-18.74s1.07-2.81-1.12-3.28-3.59,2.46-3.59,2.46l-9,17.83-1.25-.25s-.84-13.76-.68-18.34a2.41,2.41,0,0,0-2.63-2.78,2.69,2.69,0,0,0-2.49,1.82c-.5,2.11-1,13.33-1,18.6a14.46,14.46,0,0,1-1.53,6.28,27.28,27.28,0,0,1-5.6,6.94c4.34,16.8,12.45,12.15,12.45,12.15,7.51,7.07,13.41-4.74,13.41-4.74S220.18,213.8,220.22,211.62Z"/><path class="cls-12" d="M207.63,204.37s9-18.32,10.16-19c-.2-.37,1.42-1.38.83-1.51-2.19-.47-3.59,2.46-3.59,2.46l-8.65,17.76Z"/><path class="cls-12" d="M193.89,216.3a27.28,27.28,0,0,0,5.6-6.94,13.49,13.49,0,0,0,1.22-6.16c0-5.27.8-16.61,1.29-18.72.18-.76.25-.6,1-.88a2.49,2.49,0,0,0-1.82-.88c-1,0-1.25.28-1.5,1.35a152,152,0,0,0-1.47,18.53,14.46,14.46,0,0,1-1.53,6.29,22.15,22.15,0,0,1-5.6,6.51c3,11.44,7.58,12.52,10.28,12.3C198.84,226.64,196,224.36,193.89,216.3Z"/><path class="cls-3" d="M206.92,212.28a2.57,2.57,0,0,0,.26,3.43h0a2.2,2.2,0,0,0,3.22.26l6.85-7.35a2.57,2.57,0,0,0-.27-3.43h0a2.19,2.19,0,0,0-3.21-.26Z"/><path class="cls-3" d="M212.35,215.09a1.9,1.9,0,0,0,.42,2.64h0a1.89,1.89,0,0,0,2.66-.12l5.2-6.4a1.89,1.89,0,0,0-.43-2.64h0a1.88,1.88,0,0,0-2.66.12Z"/><path class="cls-3" d="M190.78,215.66s-1.11-6.5,4.17-6.58,12.52-1.29,13.46-.58-.8,5.74-4.49,6.51-6,1.23-6,1.23"/><path class="cls-12" d="M124.42,215.69c3.29,1,5.13-.79,4.84-.88-1.43-.45-5.44-1.76-5.44-1.76s-3.66-1.82-4.87-.67C120,212.85,123.81,215.5,124.42,215.69Z"/><path class="cls-12" d="M116.35,231.3c.22.06.45.12.69.21h0a6.7,6.7,0,0,1,3,0,53.18,53.18,0,0,1,7.76,3.37c.37-.51.71-.62.8-1-1.64-.66-6.18-3.14-6.69-3.31C118.49,229.45,117,230.46,116.35,231.3Z"/><path class="cls-12" d="M98.29,247.3c-1.9-1.78-.78-6.77-.12-11.58S104.88,222.29,107,219c1.67-2.67,10.8-10.9,10.8-10.9s-12.64,9.08-14.71,12.39-7.87,11.18-8.53,16-1.8,10.05.1,11.83c1.7,1.59,3.64.27,5.62.27a12.37,12.37,0,0,0,3.46-1.4C102,247.41,99.31,248.25,98.29,247.3Z"/><path class="cls-12" d="M123.09,237.76c-1.72-.17-4.43-.53-5.43,0,2.14.33,5.89,2.55,6.76,2.09.46-.25.42-1.08.51-1.73A9.17,9.17,0,0,0,123.09,237.76Z"/><path class="cls-12" d="M121,223.14c-1.07,0-2,.57-3.69,1.3l.09,0c1.16-.22,1.78,0,3.22.62s5,2,6.58,2.6c.21-.22,1.71-.2,1.83-.52C127.46,226.54,121.58,223.17,121,223.14Z"/><path class="cls-12" d="M197.61,210.18a60.71,60.71,0,0,0,10.3-1.26c-.93-.7-7.3.27-12.58.36s-4.17,6.58-4.17,6.58l3,.18C194.06,214.35,193.42,210.25,197.61,210.18Z"/><path class="cls-12" d="M209.06,215.3a2.57,2.57,0,0,1-.27-3.43l6.82-6.64s0,0,0,0c-.72-.21-1.12-.55-1.63,0l-6.75,7.12a2.45,2.45,0,0,0,0,3.36c.93,1,1.88.47,2.71-.29C209.45,215.3,209.42,215.68,209.06,215.3Z"/><path class="cls-12" d="M214.22,216.56c-.86-.69-.53-1.06.09-1.82,0,0,5.3-5.71,5.35-5.75-.74-.27-1-.91-1.52-.32l-5.33,6.58c-.61.76-.15,1.73.71,2.42s1.22-.31,1.86-.93C215.16,216.66,214.42,216.72,214.22,216.56Z"/><path class="cls-37" d="M333.47,413.11s7.44-2.33,19.59,1l0-2.69a26.15,26.15,0,0,0-19.63-1.24Z"/><path class="cls-37" d="M390.44,412.86s-7.44-2.32-19.59,1V410.6a26.45,26.45,0,0,1,19.64-1.14Z"/><path class="cls-38" d="M371.45,423.32s.27-4.25,8.37-5.05,9.83.6,10.49,3.22a4.77,4.77,0,0,1-.77,4.22H372.45Z"/><path class="cls-23" d="M392.86,229.62l-13.82-3-38.17,2s-8.38,2.62-19.42,7.43,7.16,25.75,7.16,25.75v50.48s16.14,3.67,30.65,2.95c13.68-.69,27.68-6,27.68-6l.13-45.93.64-.52,29.23,14.75L399.62,239Z"/><polygon class="cls-3" points="332.22 369.48 336.19 426.79 350.72 425.37 353.9 368.87 332.22 369.48"/><polygon class="cls-3" points="367.44 367.49 373.65 422.47 388.2 420.97 388.99 364.62 367.44 367.49"/><polygon class="cls-4" points="336.78 362.16 332.22 362.29 336.19 419.6 340.53 419.18 336.78 362.16"/><polygon class="cls-4" points="373.8 365.64 367.6 366.47 373.81 421.44 379.23 420.88 373.8 365.64"/><path class="cls-39" d="M328.61,318.58s-.75,54.13.9,56.44,24,3.69,25.9-.32,3.41-27.5,3.41-27.5h3s2,25.51,3.3,27.55,24,2.58,25.5-.44S389,344,389,333.05l-1.72-17.19Z"/><path class="cls-40" d="M332.61,318.28l-3.5.17s-.74,54.12.9,56.43c.34.46,1.51.89,3.18,1.24C332.05,367.4,332.55,323.06,332.61,318.28Z"/><path class="cls-40" d="M365.07,346.25l-2.93.95a41.63,41.63,0,0,1,0,4.26c.64,7.29,2.5,21.63,3.44,23.15.26.41,1.4.76,3.06,1C367.4,369.36,365.07,346.25,365.07,346.25Z"/><path class="cls-39" d="M328.61,310.84c-1.77,0-1.64,6.86,0,7.74s14.69,3.27,30.85,3c9.69-.15,26.37-3.85,27.81-5.74s1.26-8.06-.41-8.16-16.05,5.73-27.5,6.2C348.75,314.33,330.38,310.89,328.61,310.84Z"/><polygon class="cls-11" points="346.02 214.28 345.9 224.78 359.74 232.88 372.22 223.58 372.22 213.56 370.89 208.02 348.23 208.37 346.02 214.28"/><polygon class="cls-41" points="354.48 227.01 354.6 212.3 355.79 207.86 348.78 207.97 346.57 213.88 346.46 224.38 360.29 232.48 360.74 232.14 354.48 227.01"/><path class="cls-13" d="M299.63,157.08s-4.54-20.6-2.42-29.5,47.94-43.33,47.94-43.33l51.44,10.3,25.46,22.85s4.76.64-4.37,36.86L408,166.46,310,167.79Z"/><path class="cls-42" d="M412.39,112l-11-6s-13.82,15.5-36.51,16.4c0,0,8.87-5.41,6.15-13.46,0,0-1.89,3.6-7.16,7.08,2,7.67-6.34,12.78-6.34,12.78,22.68-.89,36.51-16.39,36.51-16.39l11,6c10.31,12.16,8.54,37.08,8.54,37.08.66-1.38,2.33-1.73,4.11-1.22,1.38-5.47,2.44-10.12,3.24-14.09C420.51,131.82,418.74,119.49,412.39,112Z"/><path class="cls-42" d="M333.47,128.76c18.78-.46,26.83-8.72,29.32-12-4.7,2.81-11.74,5.38-22,5.63,0,0,6.31-5.45,3.81-9.49,0,0-11.18,9.08-20.55,10.48,0,0-4.14.65-7.47,6.43l.11,0c9.37-1.4,20.56-10.48,20.56-10.48C339.78,123.31,333.47,128.76,333.47,128.76Z"/><path class="cls-3" d="M310.3,183.81s15.06,32.29,50.24,30.34,44.71-30.49,44.43-30.8c0,0,4.89,5.5,10.91-3.12,0,0,7.48-13,7.41-18.35-.09-6.95-8.06-9.88-9.71-6.43,0,0,1.77-24.91-8.55-37.07l-11-6s-13.83,15.5-36.51,16.4c0,0,8.86-5.41,6.14-13.46,0,0-6.7,12.84-30.23,13.42,0,0,6.31-5.45,3.81-9.49,0,0-11.18,9.07-20.55,10.47,0,0-12.78,2-11.48,30.32,0,0-8.09-8.74-12,3.83,0,0-2.94,7.65,8.2,21.67C301.49,185.53,309.05,191.8,310.3,183.81Z"/><path class="cls-12" d="M421.27,155.42l-.45-.35c0,.65-.05,1-.05,1A2.26,2.26,0,0,1,421.27,155.42Z"/><path class="cls-12" d="M317.49,184.45c-.91-2.12-5.05-23.78-5.05-23.78-1.3-28.35,11.48-30.32,11.48-30.32,4.57-.68,8.19-2.91,12.12-5.3,1.12-1.8,3.24-4.25,2.08-6.13,0,0-11.18,9.08-20.55,10.48,0,0-13.41,3.18-12.11,31.52,0,0-7.38-9.55-11.81,2.39,0,0-2.91,8,8.23,22,0,0,7.28,6,8.53-2,0,0,13.66,27.86,43.52,30.4C328.59,208.19,318.61,187,317.49,184.45Z"/><path class="cls-12" d="M340.66,129.36c10.95-.26,17-3.66,21.73-6.71,1.28-2.18,3.22-4.48,2.15-7.65,0,0-5,10.5-22.13,13.34A2.57,2.57,0,0,1,340.66,129.36Z"/><path class="cls-12" d="M364.75,129.41c18.14-.72,30.6-10.77,34.87-14.77l-4.72-2.58a53.68,53.68,0,0,1-27.42,15.86A5,5,0,0,1,364.75,129.41Z"/><path class="cls-5" d="M309.42,125.76c18.55-9.43,36.55-20.87,50.89-21.89s27.2,14.39,43.29,19.55,20.64.17,19.63-8.78c0,0,5.53-10.08.26-18.47s-17.77-42.75-62.47-40S305,80.59,300.29,89.45s-6.63,20.22-3.38,25.19C296.91,114.64,290.86,135.19,309.42,125.76Z"/><path class="cls-13" d="M316.71,144s5.3-8.62,15-8.93,19.22-.92,17.26,4.46c0,0-.61,2.93-7.42,1.54S328.06,137.88,316.71,144Z"/><path class="cls-13" d="M403.43,144s-5.3-8.62-15-8.93-19.21-.92-17.25,4.46c0,0,.61,2.93,7.42,1.54S392.08,137.88,403.43,144Z"/><path class="cls-16" d="M345.11,161.11s3.81-9.24-6.73-12.24-15.52,4.16-15.83,5.2c0,0,0,6.73,2.43,7,1.06.14,5-1.05,9.18-1.08A63.58,63.58,0,0,1,345.11,161.11Z"/><path class="cls-17" d="M328.71,149.75S324,156.8,330.41,160l9.64.25s4.26-7,.27-11.08C340.32,149.2,332.79,146.39,328.71,149.75Z"/><path class="cls-43" d="M340.05,153.92a5.5,5.5,0,1,1-5.47-4.89A5.21,5.21,0,0,1,340.05,153.92Z"/><path class="cls-17" d="M336.68,153.54a2.11,2.11,0,1,1-2.1-2.17A2.13,2.13,0,0,1,336.68,153.54Z"/><path class="cls-19" d="M333.7,151a1.38,1.38,0,1,1-1.38-1.25A1.32,1.32,0,0,1,333.7,151Z"/><path class="cls-19" d="M336,152.06a.73.73,0,1,1-.73-.69A.71.71,0,0,1,336,152.06Z"/><path class="cls-17" d="M322.55,154.07s1.41-6.19,7.49-7.34,11.3.64,14.48,5.52a16.59,16.59,0,0,0-11.25-4.15s-7.59-.35-10.72,6.53"/><path class="cls-17" d="M326.15,161s12.23-2,17.34-.19C343.49,160.83,332.76,162.84,326.15,161Z"/><path class="cls-16" d="M374,161.21S370.15,152,380.69,149s15.52,4.15,15.83,5.19c0,0,0,6.74-2.43,7.05-1.06.14-5-1.05-9.18-1.08A63.4,63.4,0,0,0,374,161.21Z"/><path class="cls-17" d="M390.36,149.85s4.67,7.05-1.7,10.28l-9.64.25s-4.26-7-.27-11.09C378.75,149.29,386.28,146.49,390.36,149.85Z"/><path class="cls-44" d="M379,154a5.51,5.51,0,0,0,11,0c0-2.7-2.45-4.89-5.48-4.89A5.21,5.21,0,0,0,379,154Z"/><path class="cls-17" d="M382.39,153.64a2.11,2.11,0,1,0,2.1-2.17A2.13,2.13,0,0,0,382.39,153.64Z"/><path class="cls-19" d="M385.37,151.1a1.39,1.39,0,1,0,1.38-1.25A1.32,1.32,0,0,0,385.37,151.1Z"/><path class="cls-19" d="M383,152.16a.73.73,0,1,0,.73-.69A.71.71,0,0,0,383,152.16Z"/><path class="cls-17" d="M396.52,154.16s-1.41-6.18-7.49-7.33-11.3.64-14.48,5.52a16.59,16.59,0,0,1,11.25-4.15s7.6-.35,10.72,6.53"/><path class="cls-17" d="M392.92,161.12s-12.23-2-17.34-.19C375.58,160.93,386.31,162.94,392.92,161.12Z"/><path class="cls-21" d="M340.22,186.49a112.2,112.2,0,0,0,18.51.72c6.14-.28,12.88-1.71,18.79-2.8,0,0-.85,14.57-19.75,15.78C357.77,200.19,342.06,200.72,340.22,186.49Z"/><path class="cls-22" d="M346.67,197.14s-.81-1.26,2-2.25c3.21-1.13,13.23-1.53,19.35-.28a6.91,6.91,0,0,1,2.89,1.32S358.9,203.47,346.67,197.14Z"/><path class="cls-16" d="M342.88,189.76c1.3,1.54,8.79,2.26,15.85,2.17,5.95-.07,11.4-.57,14.57-3.08l4.22-4.44s-20.69,4.42-37.3,2.08Z"/><path class="cls-16" d="M344.75,195.65c-.39-.77,6.28,1.17,13.37,1,6.78-.19,14-2.35,14.1-1.89.2.93-8.54,5.71-14.45,5.47S345.5,197.16,344.75,195.65Z"/><polygon class="cls-39" points="377.34 225.81 374.93 319.69 381.6 318.29 384.03 227.23 377.34 225.81"/><path class="cls-45" d="M345.9,224.51l-5,4.18s13.87,14.37,15.74,13.66,3.13-9.47,3.13-9.47Z"/><path class="cls-45" d="M372.22,223.26l5.12,2.55S367.4,242,365.71,242.35s-6-9.47-6-9.47Z"/><path class="cls-5" d="M359.74,234.22s13.94-4.07,15.45-.37.69,8.54-2.06,9.69-4.46.15-12.8-3.7Z"/><path class="cls-5" d="M359.14,234.62s-14.34-5.18-15.46-.45.29,9.07,2,9.7,4.46.17,12.82-3.64Z"/><path class="cls-46" d="M364.4,236.91a6.1,6.1,0,0,0-.62-2s2.31-.77,6.07-2.17l-10.5,1.65.59,5.19c1.31,1.49,3,.18,3.88-1A2.1,2.1,0,0,0,364.4,236.91Z"/><path class="cls-46" d="M364,237.46a6.1,6.1,0,0,1-1.1,1.81s2,1.31,5.34,3.6l-9.76-4.2,1.68-4.43c1.63-1.12,3.13.12,3.69,1.44A2.1,2.1,0,0,1,364,237.46Z"/><path class="cls-5" d="M362.77,236.91a3.45,3.45,0,1,1-3.42-3.87A3.66,3.66,0,0,1,362.77,236.91Z"/><polygon class="cls-39" points="335.26 230.79 335.26 320.06 341.62 320.86 340.87 228.69 335.26 230.79"/><path class="cls-39" d="M361.88,251.92a2.15,2.15,0,1,1-2.14-2.3A2.23,2.23,0,0,1,361.88,251.92Z"/><path class="cls-39" d="M361.88,264.48a2.15,2.15,0,1,1-2.14-2.3A2.23,2.23,0,0,1,361.88,264.48Z"/><path class="cls-39" d="M361.88,277.64a2.15,2.15,0,1,1-2.14-2.3A2.23,2.23,0,0,1,361.88,277.64Z"/><path class="cls-39" d="M361.88,291.48a2.15,2.15,0,1,1-2.14-2.3A2.23,2.23,0,0,1,361.88,291.48Z"/><path class="cls-39" d="M361.88,305.29a2.15,2.15,0,1,1-2.14-2.3A2.23,2.23,0,0,1,361.88,305.29Z"/><path class="cls-47" d="M340.58,316.6a2.15,2.15,0,1,1-2.14-2.31A2.23,2.23,0,0,1,340.58,316.6Z"/><path class="cls-47" d="M380.6,314.66a2.16,2.16,0,1,1-2.15-2.31A2.23,2.23,0,0,1,380.6,314.66Z"/><path class="cls-5" d="M372.45,414.57s11.1,2,16.35-1.78l-.34,16-14.65,1.4Z"/><path class="cls-48" d="M378.06,415.07a40.73,40.73,0,0,1-5.11-.49l1.36,15.62,4.88-.47Z"/><path class="cls-7" d="M397.38,446s-2.86-14.67-6.51-21.31a23.9,23.9,0,0,0-.58-2.64c-.42-.41-3.87.38-4,2.07a6.09,6.09,0,0,0-5.26-3.09,5.36,5.36,0,0,0-5.37,3.38c-.23-1.24-4-1.79-4.31-1.1-.13.27.18,2.15.06,2.39-2.26,4.73-5.55,16.65-5,21.19C366.4,446.89,383.51,453.3,397.38,446Z"/><path class="cls-49" d="M377.43,423.84a2.91,2.91,0,0,0,0-.79,5.26,5.26,0,0,0-1.38,2c-.23-1.23-3.74-2.17-4.09-1.5-.14.27,0,2.53-.15,2.77-2.26,4.66-5.56,16.41-5,20.88a44.46,44.46,0,0,0,6.3,1.65C372.52,443.32,375.39,429.39,377.43,423.84Z"/><path class="cls-25" d="M397.47,447.67c.3-6.29-6.29-16.1-15.43-16.52s-18.37,12.86-16,17.9S395.61,453.84,397.47,447.67Z"/><path class="cls-50" d="M374.48,447.28c-.45-5,4.64-12.44,11.72-14.86a14.53,14.53,0,0,0-5.12-.88c-9,.68-15.22,10-14.7,15.82,1.23,3.39,11.4,4.52,19.82,3.85C380.39,450.87,375.33,449.61,374.48,447.28Z"/><path class="cls-51" d="M397.18,444.78s-18.71,5.48-31.2.46a4.83,4.83,0,0,0,.89,4.69c.94,1.1,10.89,2.83,14.54,2.65s14.27-2,15.17-3.22A4.35,4.35,0,0,0,397.18,444.78Z"/><path class="cls-26" d="M373.11,429.68s7.94-8.08,16.22-.27"/><path class="cls-26" d="M373,432.2s7.93-8.07,16.22-.27"/><path class="cls-39" d="M353.32,345.3s6.82,4.28,13,0"/><path class="cls-5" d="M370.85,411.16s7.46,2.33,19.64-1v3.25A25.35,25.35,0,0,1,370.85,415Z"/><path class="cls-38" d="M352.5,424.22s-.27-4.26-8.37-5.05-9.83.59-10.49,3.22a4.73,4.73,0,0,0,.77,4.22H351.5Z"/><path class="cls-12" d="M357.52,178.33c1.86-.5,4-4.87,3.77-5.87s-7.1-1.73-8.88.45S355.66,178.83,357.52,178.33Z"/><path class="cls-5" d="M351.5,415.47s-11.1,2-16.36-1.78l.34,16,14.66,1.4Z"/><path class="cls-48" d="M341,431.78l-.3-14.37a12.19,12.19,0,0,1-4.82-1.87l.34,16,14.66,1.4,0-.21Z"/><path class="cls-7" d="M327.54,447s2.33-14.77,5.74-21.53c.13-.24.28-2.44.49-2.66.41-.42,3.88.24,4.05,1.93a6.09,6.09,0,0,1,5.14-3.27,5.35,5.35,0,0,1,5.49,3.19c.18-1.26,3.89-1.93,4.26-1.26.15.26-.1,2.15,0,2.39,2.42,4.65,6.14,16.44,5.78,21C358.52,446.82,341.66,453.84,327.54,447Z"/><path class="cls-49" d="M333.81,446.2s2.27-14.54,5.58-21.2c.07-.14.15-1,.26-1.72a5.82,5.82,0,0,0-1.54,1.89c-.16-1.67-3.53-2.32-3.92-1.9a25.69,25.69,0,0,0-.48,2.62c-3.31,6.66-5.58,21.2-5.58,21.2,8.11,4,17.15,3.16,23.19,1.84A32.93,32.93,0,0,1,333.81,446.2Z"/><path class="cls-25" d="M327.51,448.71c-.52-6.28,5.71-16.32,14.83-17S361.15,443.85,359,449,329.59,454.81,327.51,448.71Z"/><path class="cls-50" d="M335.68,448.82c-.45-5.28,4.1-13.3,11.18-15.85a11,11,0,0,0-4.58-.68c-9,.71-15.22,10.5-14.7,16.62,1.23,3.56,11.4,4.74,19.82,4C341.58,452.59,336.52,451.27,335.68,448.82Z"/><path class="cls-51" d="M327.69,445.81s18.9,4.82,31.2-.64a4.82,4.82,0,0,1-.72,4.72c-.9,1.13-10.79,3.21-14.44,3.16s-14.34-1.47-15.27-2.68A4.36,4.36,0,0,1,327.69,445.81Z"/><path class="cls-26" d="M351.21,429.87s-8.22-7.79-16.22.3"/><path class="cls-26" d="M351.38,432.38s-8.22-7.78-16.22.31"/><path class="cls-5" d="M353.1,412.06s-7.46,2.33-19.64-1v3.25a25.41,25.41,0,0,0,19.64,1.53Z"/><path class="cls-15" d="M305.4,163.75s-9.19-7.31-8.75,4,6.4,14.37,8.74,14.11,3.1-6,3.1-6Z"/><path class="cls-4" d="M413.2,161.35s9.79-8.56,6.54,4.92-8.8,14.79-11.1,14.9-1-5.78-1-5.78Z"/><path class="cls-52" d="M347.5,190.07l-2.13-2.56c-1.37-.09-2.73-.21-4.06-.38l2.13,2.59c.71.74,3.25,1.17,6.71,1.43C348.58,190.85,347.92,190.55,347.5,190.07Z"/><path class="cls-53" d="M370,186.1l-3.83,3.59a10.79,10.79,0,0,1-3.5,1.53c4-.22,8.06-1,10.3-2.55l3.34-3.54S373.8,185.59,370,186.1Z"/><path class="cls-12" d="M359.84,152.74c-.79-.22-.76,12.85-3.18,18.75a2.77,2.77,0,0,0,3.43-.28C361.68,169.68,360.63,153,359.84,152.74Z"/><path class="cls-26" d="M359.84,171.9s-13.41-1.22-5.21,5.45"/><path class="cls-26" d="M359.14,158.12s-.19,10.51-3.23,13.75"/><path class="cls-12" d="M358.27,203.23a14.48,14.48,0,0,1-6.38-1.54,7.19,7.19,0,0,0,6.34,3.92,8,8,0,0,0,6.83-4.14A17.49,17.49,0,0,1,358.27,203.23Z"/><path class="cls-48" d="M337.09,415.13v-2.67c-1-.16-2-.57-3.12-.8v2.65a24,24,0,0,0,3.89,1.23C337.36,415.29,337.09,415.13,337.09,415.13Z"/><path class="cls-54" d="M358.28,236.66a3.36,3.36,0,0,1,2.19-2.86,6.88,6.88,0,0,0-1-.24,3.35,3.35,0,1,0,1.48,6.35A3.36,3.36,0,0,1,358.28,236.66Z"/><path class="cls-46" d="M348.81,243.28c-1.73-.57-3.13-4.48-2-8.76.27-1,1.32-1.54,2.74-1.72-2.84-.25-5.31,0-5.75,1.72-1.11,4.28.29,8.19,2,8.76a6.05,6.05,0,0,0,3.12,0Z"/><path class="cls-28" d="M423,97c-.44,1.08-.78,1.72-.78,1.72,1,8.86-3.5,13.82-19.34,8.7S374.38,87,360.26,88s-31.85,12.36-50.13,21.71-12.32-11-12.32-11-.12-.23-.18-.34c-1.79,6.42-2,12.69.18,16,0,0-6,20.37,12.32,11s36-20.69,50.13-21.7,26.8,14.26,42.64,19.38,20.33.17,19.34-8.7C422.24,114.42,427.29,105.14,423,97Z"/><path class="cls-55" d="M315.63,110c-3.28-4.88-1.29-16,3.42-24.72,3.53-6.52,10.87-20.1,33.35-27.63-36.83,5-46.93,23.67-51.27,31.68-4.71,8.69-6.71,19.84-3.42,24.72,0,0-6.12,20.15,12.65,10.9,2-1,4-2,6-3C313.06,118.51,315.63,110,315.63,110Z"/><path class="cls-28" d="M329.11,94.4s29.45-23.53,58.07-1.74C387.18,92.66,358.5,61.3,329.11,94.4Z"/><path class="cls-56" d="M336.56,451.6c-1.63-1.93-1.09-3.43-.91-3.84a44.55,44.55,0,0,1-7.64-1.51,3.75,3.75,0,0,0,.77,4.18c.65.77,6.3,1.33,10.73,1.8C338.12,451.92,336.82,451.91,336.56,451.6Z"/><path class="cls-56" d="M375.83,451.4c-1.63-1.87-1.89-3.24-1.7-3.64a30.11,30.11,0,0,1-7.74-1.86,4,4,0,0,0,1.05,4C368.09,450.68,376.09,451.69,375.83,451.4Z"/><path class="cls-48" d="M375.6,415v-2.58a27.9,27.9,0,0,1-4.42-.52v2.76a31.28,31.28,0,0,0,6.53.91C377,415.45,376.32,415.27,375.6,415Z"/><path class="cls-57" d="M364.87,318.28a5.52,5.52,0,1,1-5.52-5.51A5.52,5.52,0,0,1,364.87,318.28Z"/><path class="cls-23" d="M328.94,260.87s-10.55,24-15.05,30.61c-2.64,3.87-8,8.51-12.64,7.41-4.39-1.06-7.77-9.19-9-14.27-1.73-7-1-23.17-1.74-28.3s15.75-5.3,16.08-.89-.41,15.59-.41,15.59c6.25-15.87,9.08-30.84,12.75-32.91"/><path class="cls-58" d="M305.7,274.78c4.42-11.23,13.14-27.19,15.64-33.27l-2.35-3.4c-2.66,1.51-4.89,9.85-8.32,20.4C309.71,263.51,305.7,274.78,305.7,274.78Z"/><path class="cls-58" d="M305.31,296c-4.39-1.05-6.78-8.64-8-13.72-1.73-7-.58-23.42-1.28-28.55,0-.23-.74-.4-.71-.61-2.45.61-4.57,1.2-4.32,3,.7,5.12.43,21.84,2.16,28.83,1.25,5.08,4.15,12.37,8.54,13.42,3.22.77,6.5-1.39,9.28-4C309.09,295.28,307.14,296.44,305.31,296Z"/><path class="cls-3" d="M396.52,256.76s-1-14.62-3.27-18.28-7.82-7.19-7.82-7.19-1.46-5.59-4.05-6.36-4.36,11.94,2.18,13.95c0,0-6.07-1.46-9.5,0a1.56,1.56,0,0,0-.69.64,2.72,2.72,0,0,0-1,2.08c0,.37,1.37,1.57,1.5,1.9-.05.72-1.36.65-1.35,1.48a2.7,2.7,0,0,0,.29,4.48c0,.36.07.71.11,1.06a2.12,2.12,0,0,0-.55,1.4,2.17,2.17,0,0,0,1,1.78c.12.8.23,1.52.33,2.13a2.1,2.1,0,0,0-.05.43,1.89,1.89,0,0,0,.3,1c.08.41.12.64.12.64l.57.06a2.54,2.54,0,0,0,1.35.38,7.83,7.83,0,0,0,4.64,1.31,20.85,20.85,0,0,0,3.41-.43s6.47,7.08,9.4,7.58c2.17.36,3.74-.55,5.62-2.31C401.15,262.51,396.52,256.76,396.52,256.76Z"/><path class="cls-12" d="M385.07,238.14c-4.79-1.47-3.42-7.72-2.23-11.17-.46-.51-.66-1.87-1.22-2-2.24-.66-3.68,8.11.11,12C384,239.05,385.07,238.14,385.07,238.14Z"/><path class="cls-12" d="M396.94,266.05c-2.93-.49-9.88-9.33-9.88-9.33s.22.45-2.33.64-5.24.23-5.24.23a2.51,2.51,0,0,1-1.35-.38l-.57,0s-.05-.24-.12-.64a1.83,1.83,0,0,1-.3-1,2,2,0,0,1,.05-.43c-.1-.61-.22-1.33-.33-2.13a2.18,2.18,0,0,1-1-1.78,2.12,2.12,0,0,1,.55-1.4l-.12-1.07a2.69,2.69,0,0,1-.28-4.48c0-.82,1.3-.76,1.35-1.48-.13-.32-1.5-1.53-1.5-1.9,0-.84-.19-.9.41-1.4.15-.23.83-.46,1-.58-1.11.06-1.25-.27-2.16.11a2.11,2.11,0,0,0-.93.59,2.65,2.65,0,0,0-1,2,9.93,9.93,0,0,0,.88,1.87c-.06.72-.72.63-.7,1.46a2.65,2.65,0,0,0-1.21,2,3.37,3.37,0,0,0,1.56,2.61c0,.36-.65.55-.61.9-.34.39-.15.87-.15,1.4a2.59,2.59,0,0,0,1.11,1.93c.12.8-.31,1.37-.21,2,0,.14.5.62.5.77a5.76,5.76,0,0,0,.45,1.35,2.5,2.5,0,0,0,1.34.38,13.58,13.58,0,0,0,8.26.2s6.27,7.76,9.19,8.26a5,5,0,0,0,3.58-.71Z"/><path class="cls-23" d="M413.08,273.5s-12.88-18.1-14.45-20.91-16.9,7.77-13.72,11.89,14.14,20.34,21,27,18.45-4,14.62-13.84c-3.51-9.06-17.33-39.31-20.89-43.84s-7.83-4.41-7.83-4.41"/><path class="cls-9" d="M357.13,244.58a1.89,1.89,0,1,1-1.89-2A1.93,1.93,0,0,1,357.13,244.58Z"/><path class="cls-9" d="M357.13,251.92a1.89,1.89,0,1,1-1.89-2A1.93,1.93,0,0,1,357.13,251.92Z"/><path class="cls-29" d="M326.27,222.28a2.85,2.85,0,0,1-2.84,2.87h-4.89a2.85,2.85,0,0,1-2.84-2.87h0a2.85,2.85,0,0,1,2.84-2.87h4.89a2.85,2.85,0,0,1,2.84,2.87Z"/><path class="cls-29" d="M361.12,222.28a2.63,2.63,0,0,1-2.31,2.87h-4a2.63,2.63,0,0,1-2.31-2.87h0a2.63,2.63,0,0,1,2.31-2.87h4a2.63,2.63,0,0,1,2.31,2.87Z"/><path class="cls-30" d="M366.51,247.39a6.43,6.43,0,0,1-6.63,6.21H317a6.43,6.43,0,0,1-6.64-6.21V227.3a6.43,6.43,0,0,1,6.64-6.21h11.17s.59-2.88,2.77-2.87c2.55,0,12.5,0,14.86,0,2.15,0,2.55,2.87,2.55,2.87h11.53a6.43,6.43,0,0,1,6.63,6.21Z"/><g class="cls-31"><path class="cls-32" d="M314.82,247.91V227.83c0-3.44,3-5.55,6.66-5.55l11-.29s.87-2.38,3-2.37h11.2c-.35-.3-.27-.79-.85-.79l-14.56-.09c-2.17,0-2.52,2.88-2.52,2.88H317.18c-3.66,0-6.26,2.09-6.26,5.52l.44,20.36c0,3.43,1.86,5.37,5.52,5.37h2.33C316.87,251.91,314.82,250.46,314.82,247.91Z"/></g><polygon class="cls-29" points="366.51 247.44 310.36 247.44 310.36 229.04 328.07 229.15 328.07 225.15 348.15 225.15 348.15 229.15 366.51 229.04 366.51 247.44"/><path class="cls-33" d="M348.86,229.56c-.22,0,1.65,1.49,1.43,1.53,2.25,2.93,1.93,5.2,1.92,7.41,0,1.62-.85,6.81-2.7,8.56a13.87,13.87,0,0,0,3-.76c2.18-2.73,2.63-3.72,2.63-9.33S352.09,229.56,348.86,229.56Z"/><path class="cls-59" d="M351.78,238.5a13.36,13.36,0,0,1-13.36,13.36c-7.37,0-13.35-5.48-13.35-12.85s6-13.86,13.35-13.86A13.36,13.36,0,0,1,351.78,238.5Z"/><path class="cls-35" d="M349.11,238.5a10.69,10.69,0,1,1-10.69-10.68A10.7,10.7,0,0,1,349.11,238.5Z"/><rect class="cls-60" x="330.07" y="234.48" width="16.69" height="8.04"/><rect class="cls-30" x="328.07" y="222.77" width="20.07" height="2.38"/><path class="cls-3" d="M316.36,214.54s1.3-1.95,5.85,1.47c3.86,2.89,7.28,1.19,7.28,4.07,0,2.41-1.43,3.85-6,2.42a55.36,55.36,0,0,1-5.28-2.42s-4.64,4.75-5.93,5.24c0,0-3,5.05,2.7,1.69a5.87,5.87,0,0,1,5.32-.74,34.39,34.39,0,0,1,6,2.88s3.32.84,3.32,2c0,3-.83,4.9-4.86,3.54-1.24-.42-5.34-2.7-6-2.72-1.45-.06-2.52,1.05-5.85,2.08a8.09,8.09,0,0,1,6.32-.41c3.1,1.32,8.21,2.61,9.12,4s.74,1.92.46,2.26-.16,3.56-3.27,1.76c-.51-.3-5.33-2.16-6.08-2.43-5.16-1.79-6,1.49-6,1.49-.52-.1,1.55-1.18,4.1-.58a35.82,35.82,0,0,1,7.13,3.15s1.14,2.8-1.19,3.28c-1,.22-4-.94-6.18-1.17a9,9,0,0,0-5.35,1.51l-6.83,4.32s.69,5.37-4.15,5.37c-2,0-5.95.56-7.65-1-1.9-1.77-.3-7.66-.19-12.13s6.9-12.9,9-16.21S316.36,214.54,316.36,214.54Z"/><path class="cls-12" d="M323.37,222.14c3.29,1,5.12-.79,4.84-.88-1.43-.45-5.44-1.76-5.44-1.76s-3.67-1.82-4.87-.67C318.9,219.3,322.76,222,323.37,222.14Z"/><path class="cls-12" d="M315.23,238.07l.69.21h0a6.69,6.69,0,0,1,3,0,52,52,0,0,1,7.75,3.37c.38-.51.71-.62.8-1-1.64-.66-6.18-3.13-6.68-3.31C317.37,236.23,315.87,237.24,315.23,238.07Z"/><path class="cls-12" d="M297.84,254.07c-1.9-1.77-.78-6.77-.12-11.58s6.71-13.42,8.78-16.72c1.67-2.67,10.8-10.9,10.8-10.9s-12.64,9.08-14.71,12.38-7.87,11.19-8.53,16-1.79,10.06.1,11.84c1.7,1.59,3.41.78,5.39.78a11.75,11.75,0,0,0,3.43-.53A7.29,7.29,0,0,1,297.84,254.07Z"/><path class="cls-12" d="M322.23,244.54c-1.72-.18-4.42-.53-5.42,0,2.14.32,5.88,2.54,6.76,2.08.46-.24.42-1.07.51-1.73A9.21,9.21,0,0,0,322.23,244.54Z"/><path class="cls-12" d="M320,229.92c-1.08,0-1.95.56-3.69,1.3l.09,0c1.16-.23,1.77,0,3.22.62s5,2,6.58,2.6c.21-.22,1.71-.21,1.83-.52C326.51,233.32,320.62,229.94,320,229.92Z"/><polygon class="cls-58" points="333.19 310.53 331.26 263.68 329.02 261.13 329.27 310.06 333.19 310.53"/><path class="cls-58" d="M407.78,287.31c-6.84-6.66-17.81-22.88-21-27-.2-.26.38-.55.32-.86-1.58,1.9-2.56,3.49-1.59,4.75,3.18,4.12,14.31,20.36,21.15,27,5.32,5.19,11.89-.06,13.48-7.31C417.05,288.72,412,291.42,407.78,287.31Z"/></g></svg>