<svg xmlns="http://www.w3.org/2000/svg" xmlns:xlink="http://www.w3.org/1999/xlink" viewBox="0 0 512 512"><defs><style>.cls-1{fill:#e3e4c6;}.cls-2{fill:#a63726;}.cls-11,.cls-13,.cls-15,.cls-17,.cls-2,.cls-20,.cls-22,.cls-24,.cls-25,.cls-26,.cls-27,.cls-28,.cls-29,.cls-3,.cls-30,.cls-31,.cls-32,.cls-33,.cls-35,.cls-38,.cls-4,.cls-41,.cls-42,.cls-49,.cls-5,.cls-51,.cls-52,.cls-53,.cls-7,.cls-9{stroke:#231f20;stroke-miterlimit:10;}.cls-3{fill:#307872;}.cls-4{fill:#12807b;}.cls-5{fill:#1e8477;}.cls-6{fill:#096e69;}.cls-7{fill:#eac369;}.cls-8{fill:#caaa5b;}.cls-9{fill:#183247;}.cls-10{fill:#0a2437;}.cls-11{fill:#dbb863;}.cls-12{fill:#c8a95b;}.cls-13,.cls-50{fill:#d24834;}.cls-14{fill:#b13b29;}.cls-15{fill:#289e8f;}.cls-16{fill:#20877a;}.cls-17{fill:#0a4369;}.cls-18{fill:#003151;}.cls-19{fill:#cead5d;}.cls-20{fill:#2d2a2b;}.cls-21{fill:#050505;}.cls-22,.cls-46,.cls-47{fill:#9f3a28;}.cls-23{fill:#bd9f55;}.cls-24{fill:#c6c6c5;}.cls-25{fill:#231f20;}.cls-26{fill:url(#linear-gradient);}.cls-27{fill:#a5a3a2;}.cls-28{fill:url(#linear-gradient-2);}.cls-29{fill:#662628;}.cls-30{fill:#e25656;}.cls-31{fill:url(#linear-gradient-3);}.cls-32{fill:url(#linear-gradient-4);}.cls-33{fill:#0f5856;}.cls-34{fill:#ac3928;}.cls-35{fill:#eda721;}.cls-36{fill:#ad3a28;}.cls-37{fill:#218a7c;}.cls-38{fill:#296e68;}.cls-39{fill:#1f8679;}.cls-40{fill:#1b5954;}.cls-41{fill:#e7664e;}.cls-42{fill:none;}.cls-43{fill:#aaa;}.cls-44{fill:#b5b5b5;}.cls-45{fill:#a83826;}.cls-47{opacity:0.5;}.cls-48{fill:#bf543f;}.cls-49{fill:#0d273a;}.cls-51,.cls-56{fill:#bfc3aa;}.cls-52,.cls-54{fill:#777b6c;}.cls-53,.cls-55{fill:#e2e6c7;}.cls-55{font-size:16.85px;font-family:BebasNeue-Regular, BebasNeue Regular;}.cls-57{fill:#036661;}</style><linearGradient id="linear-gradient" x1="136.72" y1="147.72" x2="136.72" y2="137.09" gradientUnits="userSpaceOnUse"><stop offset="0" stop-color="#5a5c5b" stop-opacity="0"/><stop offset="0.54" stop-color="#3e3e3f" stop-opacity="0.7"/></linearGradient><linearGradient id="linear-gradient-2" x1="-3665.19" y1="148.67" x2="-3665.19" y2="138.04" gradientTransform="matrix(-1, 0, 0, 1, -3486.77, 0)" xlink:href="#linear-gradient"/><linearGradient id="linear-gradient-3" x1="-73.96" y1="158.82" x2="-73.96" y2="149.03" gradientTransform="translate(410.11)" xlink:href="#linear-gradient"/><linearGradient id="linear-gradient-4" x1="-3829.56" y1="158.92" x2="-3829.56" y2="149.13" gradientTransform="matrix(-1, 0, 0, 1, -3443.5, 0)" xlink:href="#linear-gradient"/></defs><title>maskot</title><g id="Layer_2" data-name="Layer 2"><path class="cls-1" d="M391.85,55.18c56.48,24.42,114.07,64.5,119.53,114.07,5.83,49.2-39.72,108.24-67.42,166.18-27.7,58.31-37.54,115.89-71.06,137.39-33.9,21.5-91.48,6.93-140.31-5.83C184.12,454.6,144.4,443.67,120,419.25,95.2,394.83,85.36,356.57,60.58,315,35.43,273.11-4.66,228.29.44,193.3s55.4-59.77,100.22-88.19c44.46-28.06,83.82-60.13,131.2-71.8S335.36,30.4,391.85,55.18Z"/></g><g id="Layer_1" data-name="Layer 1"><path class="cls-2" d="M335,413.1s7.44-2.32,19.59,1l0-2.69A26.11,26.11,0,0,0,335,410.17Z"/><path class="cls-2" d="M392,412.86s-7.44-2.32-19.58,1V410.6a26.42,26.42,0,0,1,19.63-1.14Z"/><path class="cls-3" d="M373,423.32s.26-4.25,8.36-5.05,9.83.59,10.5,3.22a4.77,4.77,0,0,1-.77,4.22H374Z"/><path class="cls-4" d="M399.43,240.23l-3.22-5c-6.8-3-17.31-9.38-17.31-9.38l-36.46,2.88s-8.38,2.62-19.42,7.43C316.34,239,297,283,297,283l7.11,8.31,26.05-29.48v50.48s16.15,3.67,30.65,2.95c13.69-.69,27.68-6,27.68-6l.13-45.93s.24-.18.64-.51l.79.44S399.33,240.21,399.43,240.23Z"/><path class="cls-5" d="M173.74,424.54s1.25-.12,1.52,2.81c0,0-17.24,9.14-17.24,3.88s1.43-6.69,2.79-6.69Z"/><path class="cls-6" d="M334.62,278.31s-.66-27.6-4.13-17.67v51.72s2.06.47,5.35,1Z"/><path class="cls-5" d="M136.2,424.25s-1.61-.47-1.61,3.35c0,0,17.34,8.59,17.34,3.34s-1.43-6.69-2.79-6.69Z"/><polygon class="cls-7" points="333.78 369.48 337.75 426.79 352.29 425.37 355.47 368.87 333.78 369.48"/><polygon class="cls-7" points="369.01 367.49 375.22 422.47 389.76 420.96 390.56 364.61 369.01 367.49"/><polygon class="cls-8" points="338.34 362.16 333.78 362.29 337.75 419.6 342.1 419.18 338.34 362.16"/><polygon class="cls-8" points="375.36 365.64 369.17 366.47 375.38 421.44 380.8 420.88 375.36 365.64"/><path class="cls-9" d="M330.17,318.58s-.74,54.13.91,56.44,24,3.69,25.9-.32,3.4-27.5,3.4-27.5h3s2,25.51,3.3,27.55,24,2.58,25.49-.44-1.58-41.67-1.58-41.67l-1.72-16.78Z"/><path class="cls-10" d="M334.18,318.28l-3.51.17s-.74,54.12.91,56.43c.33.46,1.51.89,3.18,1.24C333.61,367.39,334.12,323.06,334.18,318.28Z"/><path class="cls-10" d="M366.63,346.25l-2.92.95a41.63,41.63,0,0,1,0,4.26c.63,7.29,2.49,21.63,3.44,23.15.25.41,1.4.76,3.06,1C369,369.36,366.63,346.25,366.63,346.25Z"/><path class="cls-9" d="M330.17,310.84c-1.77,0-1.63,6.86,0,7.74s14.69,3.27,30.85,3c9.7-.15,26.38-3.85,27.82-5.74s1.26-8.06-.41-8.16-16.05,5.73-27.5,6.2C350.31,314.33,331.94,310.89,330.17,310.84Z"/><polygon class="cls-11" points="347.58 214.28 347.47 224.78 361.3 232.88 373.79 223.58 373.79 213.56 372.45 208.03 349.79 208.37 347.58 214.28"/><path class="cls-7" d="M132.21,370.51s3.22,52.55,4,55.58l4.09,5.83,9.8-3.5,3.4-64.09-8.3-4.43-13,1.17Z"/><polygon class="cls-7" points="156.2 365.83 159.59 427.92 166.8 433.46 173.51 426.43 179.63 360.88 156.2 365.83"/><path class="cls-8" d="M140.11,424.23c-.81-3-3.11-54.17-3.11-54.17l4-10.57h-8.36l-.42,9.83s4.22,52.16,5,55.19l4.08,5.83L148,428Z"/><polygon class="cls-12" points="356.05 227.01 356.16 212.3 357.35 207.86 350.35 207.97 348.14 213.88 348.02 224.38 361.86 232.48 362.31 232.14 356.05 227.01"/><polygon class="cls-8" points="163.49 424.54 161.37 362.69 156.2 364.06 160.59 426.11 163.49 424.54"/><path class="cls-13" d="M134.11,399.94s10,5.78,17.53,0l-1.91,30.4H136Z"/><path class="cls-14" d="M139.66,402.8a22.25,22.25,0,0,1-5.07-2l1.93,30.39h4.95Z"/><path class="cls-13" d="M158,399.94s15.16,6.91,18.23-2.89l-3,35.83-12.92.51-.65-4.07Z"/><path class="cls-14" d="M165.25,430.21l-1.53-27.75c-2.73-.7-5.23-1.62-5.23-1.62l1.63,29.59,1.09,3.86,4.66-.19Z"/><path class="cls-15" d="M134.22,279.56c8.73-11.22,6.36-50.87,6.36-50.87l10.25-11h21s10.37,1.66,7.94,9.51.64,50.8.64,50.8c20.37,24.77,24.29,76.42,24.29,76.42-6,14.13-21.14,9.78-21.14,9.78-16.74,16.78-28.8,2.93-28.8,2.93-13.93,11.42-24.82-2.58-24.82-2.58-16.46,7.62-22.13-9.79-22.13-9.79C106.27,348.47,124.63,291.89,134.22,279.56Z"/><path class="cls-16" d="M183.34,357.75c-16.48,16.52-27.88-1.34-27.88-1.34-13.71,11.24-23.25-1.51-23.25-1.51-16.21,7.51-18-9.52-18-9.52,1.57-6,16.44-61.32,25.88-73.47,8.59-11,10.12-50.52,10.12-50.52l1.74-1.87h-1.52l-10.09,10.85s2.33,39.05-6.26,50.09c-9.45,12.15-27.53,67.86-26,74,0,0,5.58,17.15,21.8,9.64,0,0,10.72,13.79,24.43,2.54,0,0,11.88,13.65,28.37-2.88,9.48,1.81,16,.71,19.6-7.26C196.76,358.2,183.34,357.75,183.34,357.75Z"/><path class="cls-17" d="M167.82,280.6a64.41,64.41,0,0,1,0-17.65c1.36-9.26,3.79-39.85,4-43.17s-2.77-4.6-.33-3.9,15.26,1.41,17.46,9.93L180.37,278S173.79,281.48,167.82,280.6Z"/><path class="cls-18" d="M172.65,265.27c.43-8.65-.73-19-.86-21s1.43-27.78.78-28c-2.44-.7,0,0-.17,3.33s-2.61,33.9-4,43.17a64.41,64.41,0,0,0,0,17.65c1.76.26,3.48-.49,5.16-.78A55.73,55.73,0,0,1,172.65,265.27Z"/><path class="cls-17" d="M148.38,280.43s1.45-15.91.81-20.8,1.64-42,1.64-42,4.46-2.91,1.19-2.44-21.29,1.05-29.68,16.08-6.48,23.89-6.48,23.89-2.86-21.49-4-24.2-16.15.09-15.86,4c.2,2.68,5.87,48.61,14.44,51.58s10.56-.64,13.54-4.13,9.23-27.38,10.11-31.93c0,0,4.63,19.62.08,29.06C134.22,279.56,143.49,282,148.38,280.43Z"/><path class="cls-18" d="M116.37,254.34c-.24-2.54,2.92-11.92,9.79-24.23,5-9,13.85-11.86,20.54-13.57-6.93,1.19-18.32,3.55-24.36,14.38a60.15,60.15,0,0,0-4.52,10A45.33,45.33,0,0,0,116.37,254.34Z"/><path class="cls-18" d="M114.31,285.36c-8.56-3-14.24-48.91-14.44-51.58-.12-1.66,2.54-3.12,5.71-4-4.5.62-9.7,2.55-9.53,4.85.2,2.68,5.87,48.61,14.44,51.58,4.39,1.53,7.05,1.31,9,.28A17.58,17.58,0,0,1,114.31,285.36Z"/><path class="cls-18" d="M138.05,278.35c4.54-9.44-3.83-30.25-3.83-30.25-.29,1.5,0,0,.95,4,.8,6.46,2.29,21.87-.28,27.22,0,0,8.09,2.42,13,.85,0,0,0-.62,0-.81A49.79,49.79,0,0,1,138.05,278.35Z"/><polygon class="cls-11" points="152.76 204.65 151.84 217.67 159.97 227.18 171.79 217.67 169.2 203.39 152.76 204.65"/><path class="cls-19" d="M158.64,215.69c-1.1-3,1.44-11.94,1.44-11.94l-6.9.54-.92,13,8.12,9.51,3.23-3S159.74,218.66,158.64,215.69Z"/><path class="cls-20" d="M301.19,157.08s-4.53-20.6-2.42-29.5,47.94-43.33,47.94-43.33l51.44,10.3,25.47,22.85s4.75.63-4.37,36.86l-9.64,12.2-98.09,1.34Z"/><path class="cls-21" d="M414,112l-11-6s-13.82,15.5-36.51,16.4c0,0,8.86-5.42,6.14-13.46,0,0-1.88,3.6-7.15,7.08,2,7.67-6.34,12.79-6.34,12.79,22.68-.91,36.5-16.4,36.5-16.4l11,6c10.32,12.16,8.55,37.08,8.55,37.08.66-1.38,2.33-1.73,4.1-1.22,1.38-5.47,2.44-10.12,3.25-14.09C422.08,131.81,420.31,119.49,414,112Z"/><path class="cls-21" d="M335,128.76c18.78-.46,26.83-8.72,29.32-12-4.7,2.82-11.75,5.38-22,5.63,0,0,6.31-5.45,3.82-9.48,0,0-11.18,9.07-20.56,10.47,0,0-4.14.65-7.47,6.43l.12,0c9.37-1.4,20.55-10.48,20.55-10.48C341.35,123.31,335,128.76,335,128.76Z"/><path class="cls-20" d="M137,195.24s-24.24,14.31-40.89-17.1c-10.52-19.85-14.42-59.46,9.16-89.52,27.34-34.86,69.67-33.16,84.38-22.82,0,0,23-5.36,41.33,45.42,18.91,52.49-16.82,99.24-44.6,84.7-12.77-6.68-17.87,5.91-25.23,5C139.51,198.33,137,195.24,137,195.24Z"/><path class="cls-22" d="M114.82,149S93.67,94.48,161.07,81.16c0,0,1.31-.28,3-.81,2.73-.88,8.72-2.06,8.72-4.29,0-3.57,2.41-11.78-10.93-9.84s-76.72,17.46-54.2,79.37Z"/><path class="cls-7" d="M119.05,168.72c6.61,23.5,26.84,38.2,42.64,37.45s34.46-13.95,41.94-39.58c0,0,4,6.52,9,0s8.52-26.33-4.51-19.82c0,0,.5,2.77-4,9.79,0,0,8-26.07-4.51-37.1,0,0-13-12.54-19.56-29.09,0,0-8.41,11.36-43.62,23.9-14.54,5.19-20.94,17.7-19.44,41l-3.43-10c-3.46-1.92-8.87-1.5-8.22,8.76.41,6.67,2.21,10.13,4.76,13C113.7,171.19,119.05,168.72,119.05,168.72Z"/><path class="cls-19" d="M127.25,169.75l-2.06-13.42c-1.5-23.34,4.9-35.85,19.44-41,20.79-7.41,31.41-13.79,37.3-18.27a62,62,0,0,1-2.7-5.76s-7.63,10.46-42.84,23c-14.54,5.18-21,18.54-19.45,41.88l-4.31-10.38c-2.32-1.51-8-2-7.33,8.28.42,6.67,2,9.79,4.6,12.7,3.59,4.1,9,1,9,1,6.54,23.3,25.29,38.17,41,37.69C146.11,201.76,132.69,189.11,127.25,169.75Z"/><path class="cls-23" d="M112,148.5s-6.27-2.51-4.14,7.66c2,9.56,9.49,13.94,9.91,7.19l-1.88-7.19Z"/><path class="cls-24" d="M166.6,151.16s-4.21-10,7.42-13.29,17.15,4.51,17.49,5.64c0,0,0,7.32-2.68,7.65-1.17.15-5.55-1.68-10.15-1.71A51,51,0,0,0,166.6,151.16Z"/><path class="cls-24" d="M148.35,150.21s4.21-10-7.43-13.29-17.14,4.51-17.48,5.64c0,0,0,7.32,2.67,7.65,1.18.15,5.56-1.68,10.15-1.71A51,51,0,0,1,148.35,150.21Z"/><path class="cls-25" d="M121.27,130.49s6.21-8,28.24-1.51c0,0,6.41-4.84-3.41-7S121.47,123.3,121.27,130.49Z"/><path class="cls-25" d="M197.58,130.49s-6.41-8-29.18-1.51c0,0-6.62-4.84,3.52-7S197.38,123.3,197.58,130.49Z"/><path class="cls-25" d="M122.61,136.08s2,1.77,6.82,0,9-3.8,14.57,1.9c0,0-11.83-5.45-19.27,3.54l.91-2.79A3.46,3.46,0,0,1,122.61,136.08Z"/><path class="cls-25" d="M130,149.28a16.76,16.76,0,0,1,14,0S135.44,147.9,130,149.28Z"/><path class="cls-25" d="M130.24,137.87s-5.15,7.66,1.88,11.17l10.94-.54s4.41-6.78,0-11.23C143.06,137.27,134.75,134.23,130.24,137.87Z"/><path class="cls-26" d="M142.76,142.41c0,2.93-2.7,5.31-6,5.31s-6-2.38-6-5.31,2.7-5.32,6-5.32S142.76,139.47,142.76,142.41Z"/><path class="cls-25" d="M139,142a2.33,2.33,0,1,1-2.32-2.35A2.33,2.33,0,0,1,139,142Z"/><path class="cls-27" d="M135.76,139.23a1.54,1.54,0,1,1-1.53-1.36A1.46,1.46,0,0,1,135.76,139.23Z"/><path class="cls-27" d="M138.33,140.38a.81.81,0,1,1-.8-.74A.77.77,0,0,1,138.33,140.38Z"/><path class="cls-25" d="M192.34,137s-2,1.77-6.83,0-8.95-3.8-14.56,1.9c0,0,11.83-5.45,19.27,3.54l-.91-2.78A3.46,3.46,0,0,0,192.34,137Z"/><path class="cls-25" d="M185,150.23a16.76,16.76,0,0,0-14,0S179.51,148.85,185,150.23Z"/><path class="cls-25" d="M184.9,138.82s5.16,7.66-1.88,11.17l-10.93-.54s-4.41-6.78,0-11.23C172.09,138.22,180.4,135.18,184.9,138.82Z"/><path class="cls-28" d="M172.38,143.36c0,2.93,2.71,5.31,6.05,5.31s6-2.38,6-5.31-2.71-5.32-6-5.32S172.38,140.42,172.38,143.36Z"/><path class="cls-25" d="M176.1,142.94a2.33,2.33,0,1,0,2.33-2.35A2.34,2.34,0,0,0,176.1,142.94Z"/><path class="cls-27" d="M179.39,140.18a1.54,1.54,0,1,0,1.52-1.36A1.45,1.45,0,0,0,179.39,140.18Z"/><path class="cls-27" d="M176.81,141.33a.81.81,0,1,0,.81-.74A.77.77,0,0,0,176.81,141.33Z"/><path class="cls-29" d="M145.17,177.54s15.71,2.29,27.58.39c0,0-.5,11.91-14.79,12.23C158,190.16,146.09,190,145.17,177.54Z"/><path class="cls-30" d="M149.69,186.88s-1.34-.84.8-1.63c2.46-.91,11.13-1.18,15.7.23a3.12,3.12,0,0,1,1.81,1.3S158.7,193.23,149.69,186.88Z"/><path class="cls-24" d="M148.32,181.53c1.19.94,15,3.22,21.81-.42l2.62-3s-15.13,2.26-27.58-.59A23.42,23.42,0,0,0,148.32,181.53Z"/><path class="cls-24" d="M148.17,185.56s14,2.4,21.31,0a21.51,21.51,0,0,1-11.52,4.6S151.89,189.41,148.17,185.56Z"/><path class="cls-7" d="M311.87,183.81s15.06,32.29,50.23,30.34,44.71-30.49,44.44-30.8c0,0,4.89,5.5,10.91-3.12,0,0,7.48-13,7.41-18.35-.09-6.95-8.07-9.88-9.71-6.43,0,0,1.76-24.91-8.55-37.07l-11-6s-13.82,15.5-36.51,16.4c0,0,8.87-5.41,6.15-13.46,0,0-6.7,12.84-30.24,13.42,0,0,6.32-5.45,3.82-9.49,0,0-11.18,9.07-20.55,10.47,0,0-12.78,2-11.48,30.32,0,0-8.1-8.74-12,3.83,0,0-2.95,7.65,8.2,21.67C303.06,185.53,310.62,191.8,311.87,183.81Z"/><path class="cls-19" d="M422.83,155.42l-.44-.35c0,.65-.05,1-.05,1A2.37,2.37,0,0,1,422.83,155.42Z"/><path class="cls-19" d="M319.06,184.45c-.92-2.12-5.06-23.78-5.06-23.78-1.3-28.35,11.49-30.32,11.49-30.32,4.56-.68,8.19-2.91,12.11-5.3,1.13-1.8,3.24-4.25,2.09-6.13,0,0-11.18,9.08-20.56,10.48,0,0-13.41,3.18-12.11,31.52,0,0-7.37-9.55-11.81,2.39,0,0-2.9,8,8.24,22,0,0,7.28,6,8.52-2,0,0,13.67,27.86,43.53,30.4C330.15,208.19,320.17,187,319.06,184.45Z"/><path class="cls-19" d="M342.22,129.37c11-.28,17.06-3.67,21.74-6.72,1.28-2.18,3.21-4.48,2.14-7.65,0,0-5,10.5-22.12,13.34A2.63,2.63,0,0,1,342.22,129.37Z"/><path class="cls-19" d="M366.31,129.41c18.14-.72,30.61-10.77,34.88-14.77l-4.72-2.58a53.68,53.68,0,0,1-27.42,15.86A5.09,5.09,0,0,1,366.31,129.41Z"/><path class="cls-13" d="M311,125.76c18.56-9.43,36.56-20.87,50.9-21.89s27.2,14.39,43.28,19.55,20.64.17,19.63-8.78c0,0,5.53-10.08.26-18.47s-17.76-42.75-62.47-40-56.06,24.44-60.72,33.3-6.63,20.22-3.38,25.19C298.48,114.64,292.43,135.19,311,125.76Z"/><path class="cls-20" d="M318.28,144s5.29-8.62,15-8.93,19.22-.92,17.25,4.46c0,0-.6,2.93-7.42,1.54S329.63,137.88,318.28,144Z"/><path class="cls-20" d="M405,144s-5.29-8.62-15-8.93-19.22-.92-17.25,4.46c0,0,.6,2.93,7.41,1.54S393.64,137.88,405,144Z"/><path class="cls-24" d="M346.67,161.11s3.81-9.24-6.72-12.24-15.53,4.15-15.83,5.2c0,0,0,6.73,2.42,7,1.07.14,5-1.05,9.19-1.08A63.54,63.54,0,0,1,346.67,161.11Z"/><path class="cls-25" d="M330.28,149.75S325.61,156.8,332,160l9.63.25s4.26-7,.27-11.08C341.88,149.2,334.36,146.39,330.28,149.75Z"/><path class="cls-31" d="M341.61,153.92a5.5,5.5,0,1,1-5.47-4.89A5.21,5.21,0,0,1,341.61,153.92Z"/><path class="cls-25" d="M338.25,153.54a2.11,2.11,0,1,1-2.11-2.17A2.13,2.13,0,0,1,338.25,153.54Z"/><path class="cls-27" d="M335.27,151a1.39,1.39,0,1,1-1.38-1.25A1.32,1.32,0,0,1,335.27,151Z"/><path class="cls-27" d="M337.61,152.06a.74.74,0,1,1-.74-.69A.72.72,0,0,1,337.61,152.06Z"/><path class="cls-25" d="M324.12,154.07s1.4-6.18,7.48-7.34,11.31.64,14.48,5.52a16.56,16.56,0,0,0-11.25-4.15s-7.59-.35-10.71,6.53"/><path class="cls-25" d="M327.72,161s12.23-2,17.34-.19C345.06,160.83,334.32,162.84,327.72,161Z"/><path class="cls-24" d="M375.53,161.21S371.72,152,382.25,149s15.53,4.15,15.83,5.19c0,0,0,6.74-2.42,7.05-1.06.14-5-1.05-9.19-1.08A63.54,63.54,0,0,0,375.53,161.21Z"/><path class="cls-25" d="M391.93,149.85s4.66,7.05-1.71,10.28l-9.63.25s-4.26-7-.27-11.09C380.32,149.29,387.85,146.49,391.93,149.85Z"/><path class="cls-32" d="M380.59,154a5.5,5.5,0,1,0,5.47-4.89A5.21,5.21,0,0,0,380.59,154Z"/><path class="cls-25" d="M384,153.64a2.11,2.11,0,1,0,2.11-2.17A2.14,2.14,0,0,0,384,153.64Z"/><path class="cls-27" d="M386.93,151.1a1.39,1.39,0,1,0,1.38-1.25A1.32,1.32,0,0,0,386.93,151.1Z"/><path class="cls-27" d="M384.6,152.16a.73.73,0,0,0,1.46,0,.73.73,0,0,0-1.46,0Z"/><path class="cls-25" d="M398.08,154.16s-1.4-6.18-7.48-7.33-11.3.64-14.48,5.52a16.56,16.56,0,0,1,11.25-4.15s7.59-.35,10.71,6.53"/><path class="cls-25" d="M394.48,161.12s-12.23-2-17.34-.19C377.14,160.93,387.88,162.94,394.48,161.12Z"/><path class="cls-29" d="M341.79,186.48a111.5,111.5,0,0,0,18.51.73c6.14-.28,12.88-1.71,18.79-2.8,0,0-.86,14.57-19.75,15.78C359.34,200.19,343.63,200.72,341.79,186.48Z"/><path class="cls-30" d="M348.24,197.14s-.81-1.26,2-2.25c3.21-1.12,13.23-1.53,19.34-.27a6.83,6.83,0,0,1,2.9,1.31S360.47,203.47,348.24,197.14Z"/><path class="cls-24" d="M344.44,189.76c1.31,1.55,8.8,2.26,15.86,2.17,5.95-.07,11.4-.57,14.56-3.08l4.23-4.44s-20.69,4.42-37.3,2.07Z"/><path class="cls-24" d="M346.31,195.65c-.38-.77,6.28,1.17,13.37,1,6.79-.19,14-2.35,14.11-1.89.2.93-8.54,5.71-14.45,5.47S347.07,197.16,346.31,195.65Z"/><path class="cls-4" d="M160.24,227.18s-5.74,9.81-11.11,1.48c0,0-6-8.38,2.71-11Z"/><path class="cls-4" d="M160,227.18l11.82-9.51c8.72,2.61,0,12.94,0,12.94-6.72,5.83-11.82-3.43-11.82-3.43"/><path class="cls-17" d="M162,237a1.89,1.89,0,1,1-1.89-2A1.93,1.93,0,0,1,162,237Z"/><path class="cls-17" d="M162,244.3a1.89,1.89,0,1,1-1.89-2A1.94,1.94,0,0,1,162,244.3Z"/><polygon class="cls-9" points="379.08 226.74 376.49 319.69 383.17 318.29 385.57 229.62 379.08 226.74"/><path class="cls-33" d="M347.47,224.51l-5,4.18s13.86,14.37,15.74,13.66,3.12-9.47,3.12-9.47Z"/><path class="cls-33" d="M373.79,223.26l5.11,2.55S369,242,367.27,242.35s-6-9.47-6-9.47Z"/><path class="cls-13" d="M361.3,234.22s13.95-4.07,15.46-.37.69,8.54-2.07,9.69-4.46.15-12.8-3.7Z"/><path class="cls-13" d="M360.7,234.62s-14.34-5.18-15.45-.45.29,9.07,2,9.7,4.46.18,12.82-3.64Z"/><path class="cls-34" d="M366,236.91a6.1,6.1,0,0,0-.62-2s2.31-.77,6.07-2.17l-10.5,1.65.59,5.19c1.3,1.49,3,.18,3.88-1A2.1,2.1,0,0,0,366,236.91Z"/><path class="cls-34" d="M365.56,237.46a6.1,6.1,0,0,1-1.1,1.81s2.05,1.31,5.35,3.6l-9.77-4.2,1.68-4.43c1.64-1.12,3.14.12,3.7,1.44A2.09,2.09,0,0,1,365.56,237.46Z"/><path class="cls-13" d="M364.34,236.91a3.45,3.45,0,1,1-3.42-3.87A3.66,3.66,0,0,1,364.34,236.91Z"/><polygon class="cls-9" points="336.83 230.79 336.83 320.06 343.18 320.86 342.44 228.69 336.83 230.79"/><path class="cls-9" d="M363.45,251.93a2.15,2.15,0,1,1-2.15-2.31A2.23,2.23,0,0,1,363.45,251.93Z"/><path class="cls-9" d="M363.45,264.48a2.15,2.15,0,1,1-2.15-2.3A2.23,2.23,0,0,1,363.45,264.48Z"/><path class="cls-9" d="M363.45,277.64a2.15,2.15,0,1,1-2.15-2.3A2.24,2.24,0,0,1,363.45,277.64Z"/><path class="cls-9" d="M363.45,291.48a2.15,2.15,0,1,1-2.15-2.3A2.24,2.24,0,0,1,363.45,291.48Z"/><path class="cls-9" d="M363.45,305.29a2.15,2.15,0,1,1-2.15-2.3A2.23,2.23,0,0,1,363.45,305.29Z"/><path class="cls-35" d="M342.15,316.6a2.15,2.15,0,1,1-2.15-2.31A2.23,2.23,0,0,1,342.15,316.6Z"/><path class="cls-35" d="M382.16,314.66a2.15,2.15,0,1,1-2.15-2.31A2.23,2.23,0,0,1,382.16,314.66Z"/><path class="cls-13" d="M374,414.57s11.11,2,16.36-1.78l-.34,16-14.65,1.4Z"/><path class="cls-36" d="M379.63,415.07a40.45,40.45,0,0,1-5.11-.49l1.36,15.62,4.88-.47Z"/><path class="cls-15" d="M134.59,427.6a5.24,5.24,0,0,1,2,2.62,6.15,6.15,0,0,1,6-4.78s6.68,0,6.76,5.18c0,0,.33-2.63,2.28-2.59l.44,5.12s5.12,17.9,1,20.58-19.44,2.88-22.22-1,1.09-16.85,1.72-19.46A52.55,52.55,0,0,1,134.59,427.6Z"/><path class="cls-37" d="M137.79,452.18c-2.78-3.83,1.08-16.85,1.72-19.46a54.21,54.21,0,0,1,2-5.72,5.18,5.18,0,0,1,2,2.62,6.78,6.78,0,0,1,2.58-3.78,10.35,10.35,0,0,0-3.47-.7c-5,0-6,5.08-6,5.08a4.1,4.1,0,0,0-2-2.35s-.93,3.37-1.46,5.52c-.63,2.61-4.31,15.34-1.53,19.17,2,2.75,9.28,3,15.42,2.2C142.66,454.57,139.09,454,137.79,452.18Z"/><path class="cls-38" d="M136.63,430.22s-6,12.19-.26,9.72c5-2.13,7.21-2,13-.09,2.19.71,2.12-3.34,0-9.23,0,0,.65-4.55-6.76-5.18C142.63,425.44,138.57,424.89,136.63,430.22Z"/><path class="cls-15" d="M134.26,434s3.89-3.88,8.55-3.82A10.76,10.76,0,0,1,151,434.4a3.93,3.93,0,0,1,.41,3.82c-.67,1.07-5.16-3.47-9.21-3.3-3.36.14-6.16,3.82-7.69,3.74S132.48,436.32,134.26,434Z"/><path class="cls-15" d="M175.26,427.35a8.78,8.78,0,0,0-1.94,3.17,6.14,6.14,0,0,0-6-4.78s-6.68,0-6.76,5.17c0,0-.33-2.63-2.28-2.58l-.44,5.11s-5.12,17.91-1,20.59,19.44,2.87,22.22-1-1.08-16.85-1.71-19.46C176.81,431.46,175.26,427.35,175.26,427.35Z"/><path class="cls-37" d="M162.48,452.29c-2.78-3.83,1.08-16.85,1.72-19.46.52-2.15,1-4.13,1-4.13s2.62-.55,3,1c0,0-.25-1.29,1.81-2.69a17.05,17.05,0,0,0-3.38-.94c-5,0-5.83,5.12-5.83,5.12a4.83,4.83,0,0,0-2.32-2.53,16.89,16.89,0,0,1-.29,4.76c-.63,2.61-4.37,15.69-1.59,19.52,2,2.75,9,3,15.1,2.19C167.35,455,163.78,454.09,162.48,452.29Z"/><path class="cls-38" d="M173.32,430.52s6,12.18.26,9.72c-5-2.14-7.22-2-13-.1-2.19.71-2.12-3.33,0-9.23,0,0-.66-4.55,6.76-5.17C167.32,425.74,171.38,425.18,173.32,430.52Z"/><path class="cls-15" d="M175.69,434.26s-3.89-3.89-8.55-3.82A10.7,10.7,0,0,0,159,434.7a3.88,3.88,0,0,0-.41,3.81c.67,1.07,5.16-3.46,9.2-3.29,3.36.13,6.17,3.81,7.69,3.73S177.46,436.62,175.69,434.26Z"/><path class="cls-15" d="M398.94,446s-2.85-14.67-6.5-21.31a23.94,23.94,0,0,0-.59-2.64c-.42-.41-3.86.38-4,2.07a6.09,6.09,0,0,0-5.25-3.09,5.37,5.37,0,0,0-5.38,3.38c-.22-1.24-4-1.78-4.3-1.1-.14.27.18,2.15.06,2.39-2.26,4.73-5.56,16.65-5,21.19C368,446.89,385.08,453.3,398.94,446Z"/><path class="cls-39" d="M379,423.84a2.91,2.91,0,0,0,0-.79,5.26,5.26,0,0,0-1.38,2c-.23-1.23-3.75-2.17-4.1-1.5-.13.27,0,2.53-.15,2.77-2.26,4.66-5.55,16.41-5,20.88a44.89,44.89,0,0,0,6.31,1.65C374.09,443.32,377,429.38,379,423.84Z"/><path class="cls-38" d="M399,447.67c.3-6.29-6.28-16.1-15.43-16.52s-18.36,12.86-16,17.91S397.17,453.85,399,447.67Z"/><path class="cls-40" d="M376,447.28c-.44-5,4.65-12.44,11.73-14.86a14.54,14.54,0,0,0-5.13-.88c-9,.68-15.21,10-14.69,15.82,1.23,3.4,11.4,4.52,19.82,3.85C382,450.87,376.89,449.61,376,447.28Z"/><path class="cls-41" d="M398.75,444.78s-18.72,5.48-31.2.46a4.83,4.83,0,0,0,.89,4.69c.94,1.1,10.89,2.83,14.54,2.65s14.27-2,15.17-3.22A4.37,4.37,0,0,0,398.75,444.78Z"/><path class="cls-42" d="M374.68,429.68s7.93-8.07,16.22-.27"/><path class="cls-42" d="M374.6,432.2s7.94-8.07,16.22-.27"/><path class="cls-9" d="M354.89,345.3s6.81,4.29,13,0"/><path class="cls-13" d="M372.42,411.16s7.45,2.33,19.63-1v3.25A25.39,25.39,0,0,1,372.42,415Z"/><path class="cls-3" d="M354.06,424.22s-.26-4.25-8.36-5.05-9.83.59-10.5,3.22a4.74,4.74,0,0,0,.77,4.21h17.1Z"/><path class="cls-19" d="M359.09,178.33c1.86-.5,4-4.87,3.76-5.87s-7.09-1.73-8.88.45S357.23,178.83,359.09,178.33Z"/><path class="cls-13" d="M353.07,415.47s-11.11,2-16.36-1.78l.34,16,14.65,1.4Z"/><path class="cls-36" d="M342.56,431.78l-.3-14.37a12.13,12.13,0,0,1-4.82-1.87l.34,16,14.65,1.4,0-.21Z"/><path class="cls-15" d="M329.1,447s2.34-14.77,5.75-21.53a23.93,23.93,0,0,1,.49-2.66c.41-.42,3.87.24,4,1.93a6.1,6.1,0,0,1,5.15-3.27A5.34,5.34,0,0,1,350,424.7c.19-1.26,3.9-1.93,4.27-1.26.14.26-.1,2.15,0,2.39,2.43,4.65,6.15,16.44,5.79,21C360.09,446.82,343.22,453.84,329.1,447Z"/><path class="cls-39" d="M335.38,446.2s2.26-14.54,5.57-21.2a14.88,14.88,0,0,0,.26-1.72,5.87,5.87,0,0,0-1.53,1.89c-.16-1.66-3.53-2.32-3.93-1.9a25.66,25.66,0,0,0-.47,2.62c-3.31,6.66-5.58,21.2-5.58,21.2,8.11,4,17.15,3.16,23.19,1.84A32.93,32.93,0,0,1,335.38,446.2Z"/><path class="cls-38" d="M329.07,448.71c-.52-6.28,5.71-16.32,14.84-17s18.81,12.19,16.63,17.32S331.15,454.81,329.07,448.71Z"/><path class="cls-40" d="M337.24,448.82c-.44-5.29,4.11-13.3,11.19-15.84a10.89,10.89,0,0,0-4.59-.69c-9,.71-15.21,10.5-14.7,16.62,1.24,3.56,11.4,4.74,19.82,4C343.15,452.59,338.09,451.27,337.24,448.82Z"/><path class="cls-41" d="M329.26,445.81s18.9,4.82,31.2-.64a4.84,4.84,0,0,1-.73,4.72c-.9,1.13-10.78,3.21-14.44,3.16S331,451.58,330,450.37A4.37,4.37,0,0,1,329.26,445.81Z"/><path class="cls-42" d="M352.78,429.86s-8.22-7.78-16.22.31"/><path class="cls-42" d="M352.94,432.38s-8.22-7.78-16.22.31"/><path class="cls-13" d="M354.66,412.06s-7.45,2.33-19.63-1v3.25a25.39,25.39,0,0,0,19.63,1.53Z"/><path class="cls-23" d="M307,163.75s-9.18-7.31-8.75,4.05,6.41,14.36,8.75,14.1,3.09-6,3.09-6Z"/><path class="cls-8" d="M414.76,161.35s9.8-8.56,6.55,4.92-8.8,14.79-11.11,14.9-1-5.78-1-5.78Z"/><path class="cls-43" d="M349.07,190.07l-2.13-2.56c-1.38-.09-2.74-.21-4.07-.37l2.14,2.58c.71.74,3.24,1.17,6.71,1.44C350.15,190.85,349.49,190.55,349.07,190.07Z"/><path class="cls-44" d="M371.51,186.1l-3.82,3.59a10.94,10.94,0,0,1-3.51,1.53c4-.22,8.06-1,10.31-2.55l3.33-3.54S375.37,185.59,371.51,186.1Z"/><path class="cls-19" d="M361.41,152.74c-.79-.22-.76,12.85-3.18,18.75a2.78,2.78,0,0,0,3.42-.28C363.24,169.68,362.2,153,361.41,152.74Z"/><path class="cls-42" d="M361.41,171.9s-13.42-1.22-5.21,5.45"/><path class="cls-42" d="M360.7,158.13s-.18,10.5-3.23,13.75"/><path class="cls-19" d="M359.84,203.23a14.38,14.38,0,0,1-6.38-1.55,7.18,7.18,0,0,0,6.34,3.93,8,8,0,0,0,6.83-4.14A17.36,17.36,0,0,1,359.84,203.23Z"/><path class="cls-36" d="M338.65,415.13v-2.67c-1-.16-2-.57-3.12-.8v2.65a24,24,0,0,0,3.9,1.23C338.93,415.29,338.65,415.13,338.65,415.13Z"/><path class="cls-45" d="M359.85,236.66A3.38,3.38,0,0,1,362,233.8a7.19,7.19,0,0,0-1-.24,3.35,3.35,0,1,0,0,6.69,3.28,3.28,0,0,0,1.47-.34A3.35,3.35,0,0,1,359.85,236.66Z"/><path class="cls-34" d="M350.37,243.28c-1.72-.57-3.13-4.48-2-8.76.27-1,1.31-1.54,2.74-1.72-2.84-.25-5.31,0-5.75,1.72-1.12,4.28.29,8.19,2,8.76a6.09,6.09,0,0,0,3.13,0Z"/><path class="cls-46" d="M424.58,97a16.58,16.58,0,0,1-.78,1.7c1,8.87-3.49,13.83-19.33,8.71S376,87,361.83,88,330,100.4,311.7,109.75s-12.33-11-12.33-11l-.18-.34c-1.78,6.42-2,12.69.18,16,0,0-5.95,20.37,12.33,11s36-20.69,50.13-21.7,26.79,14.27,42.64,19.38,20.33.17,19.33-8.7C423.8,114.42,428.86,105.13,424.58,97Z"/><path class="cls-47" d="M317.19,110c-3.28-4.88-1.29-16,3.43-24.72,3.53-6.51,10.87-20.1,33.34-27.63-36.82,5-46.92,23.67-51.26,31.68C298,98,296,109.19,299.27,114.07c0,0-6.11,20.15,12.66,10.9,2-1,4-2,6-3C314.63,118.51,317.19,110,317.19,110Z"/><path class="cls-46" d="M330.67,94.4s29.46-23.53,58.08-1.74C388.75,92.66,360.07,61.3,330.67,94.4Z"/><path class="cls-48" d="M338.13,451.6c-1.63-1.93-1.1-3.43-.91-3.84a44.55,44.55,0,0,1-7.64-1.51,3.74,3.74,0,0,0,.76,4.18c.66.77,6.3,1.33,10.74,1.8C339.68,451.92,338.39,451.91,338.13,451.6Z"/><path class="cls-48" d="M377.4,451.4c-1.63-1.87-1.9-3.24-1.71-3.64A30.77,30.77,0,0,1,368,445.9a4,4,0,0,0,1.06,4C369.66,450.68,377.66,451.69,377.4,451.4Z"/><path class="cls-36" d="M377.17,415v-2.59a27.13,27.13,0,0,1-4.42-.51v2.76a31.1,31.1,0,0,0,6.53.91C378.59,415.45,377.88,415.27,377.17,415Z"/><path class="cls-19" d="M157.33,169.72c1.87-.51,4-4.87,3.77-5.88s-7.1-1.72-8.88.45S155.47,170.22,157.33,169.72Z"/><path class="cls-19" d="M159.65,144.13c-.79-.22-.76,12.85-3.17,18.74a2.76,2.76,0,0,0,3.42-.28C161.49,161.07,160.45,144.34,159.65,144.13Z"/><path class="cls-42" d="M159,149.28s-.19,10.5-3.23,13.75"/><path class="cls-42" d="M160,162.8s-14.82-1.32-5.75,5.92"/><path class="cls-19" d="M203,162.16s7-10.09,6.64-13.12c0,0,5.26-5.14,4.39,8.4,0,0-2,12.08-8.19,8C201.88,162.88,203,162.16,203,162.16Z"/><path class="cls-19" d="M159,195.58a14.34,14.34,0,0,1-6.39-1.54,7.21,7.21,0,0,0,6.35,3.92,8,8,0,0,0,6.83-4.14A17.36,17.36,0,0,1,159,195.58Z"/><path class="cls-7" d="M110.07,232.8a33,33,0,0,0-.08-4.4l-12.95,4a5.41,5.41,0,0,0,1,3.52C99.34,237.72,109.92,234.48,110.07,232.8Z"/><path class="cls-7" d="M84.86,214.43l3.77-3.18,5.89-4,4.68-1.89s1.17-12.89,1.3-17.47c0-1.76,2.52-2.7,3.58-2.39a3.44,3.44,0,0,1,2.26,2.39c.36,2.14.91,12.58,1.07,18.34s2.71,7.8,2.71,7.8c1.81-2.24,4.8,5.5,4.8,5.5-5.39,16.5-13.19,11.35-13.19,11.35-7.93,6.58-13.09-5.57-13.09-5.57S84.76,216.6,84.86,214.43Z"/><path class="cls-49" d="M366.43,318.28a5.52,5.52,0,1,1-5.51-5.51A5.52,5.52,0,0,1,366.43,318.28Z"/><path class="cls-19" d="M91.35,224.52s-3.88-8.68-3.78-10.85l3.76-3.18,8.56-4.29,2-1.63s1.17-12.89,1.29-17.47c0-.64.76-.76.71-.77a2,2,0,0,0-2.7,1.93c-.12,4.58-1.32,17.07-1.32,17.07l-5.53,1.9-5.9,4-3.15,2.67c-.11,2.17,3.52,10.92,3.52,10.92s4.59,9.83,11.51,6.23C95.09,231.1,91.35,224.52,91.35,224.52Z"/><path class="cls-19" d="M104.09,229a11,11,0,0,1-2.26,1,5.06,5.06,0,0,0,5.21.52A4.1,4.1,0,0,1,104.09,229Z"/><path class="cls-16" d="M127.26,359.9c-3-34.1,15.61-78.17,15.61-78.17s-18,72.31-7.12,78.17Z"/><path class="cls-16" d="M152.59,364.53c-5.88-32.72,3.61-82.8,3.61-82.8s-4.47,77.89,2.19,80.63l-6.66-2.74"/><path class="cls-16" d="M185.44,359.49c-2.56-32.62-17.26-77.76-17.26-77.76s13.5,69.66,12.19,77.46.73.71.73.71Z"/><path class="cls-50" d="M166,66.35c-2.3-1-13.12,1.77-13.12,1.77-47.66,14.25-45,46-42.33,61.6-.28-16.63,9.51-34.73,33-44.18,0,0,12.13-6.26,17.14-8.1,2.62-1,8.39-3.77,8.39-5.93A5.46,5.46,0,0,0,166,66.35Z"/><path class="cls-13" d="M209.22,146.77s9.51-40-22-60.19c0,0-15.32-6-19.39-8.18s-10.4-17.88,11.57-11.64,40.93,22.77,40,48.07-6.91,31.49-7,31.46S209.22,146.77,209.22,146.77Z"/><path class="cls-46" d="M192.34,87.8s-14.72-7.52-18.6-10.53c-2.76-2.15-7.54-9.44.18-11.15-15.52-2.3-9.81,10.33-6.11,12.28,4.07,2.14,19.39,8.18,19.39,8.18A42,42,0,0,1,205.67,106C205.72,106.05,201.53,94.79,192.34,87.8Z"/><path class="cls-7" d="M102.7,216.15c.47,1.14-.38,2.55-1.88,3.16h0c-1.5.61-3.1.18-3.56-1l-3.89-9.58c-.46-1.14.38-2.55,1.89-3.16h0c1.5-.61,3.09-.18,3.56,1Z"/><path class="cls-7" d="M97.19,217.86a2.24,2.24,0,0,1-1.37,2.84h0a2.24,2.24,0,0,1-3-.92L89,211a2.25,2.25,0,0,1,1.38-2.85h0a2.25,2.25,0,0,1,3,.93Z"/><path class="cls-7" d="M92.54,220.18a2,2,0,0,1-1,2.61h0a2,2,0,0,1-2.71-.69l-4-7.67a2,2,0,0,1,1-2.61h0a2,2,0,0,1,2.7.68Z"/><path class="cls-17" d="M181.93,218.56c20.32,1.89,25.48,46,25,54.19s-41.81,30.41-45.7,31.82-8-9.49-8-9.49,32.43-21.74,33.71-24.84-4.07-16-4.07-16"/><path class="cls-4" d="M301.47,280s10.12-23,11.69-25.79,17.67,4.8,14.5,8.92-12.15,28.18-19,34.85-18.44-4-14.61-13.84c3.51-9.06,18.31-40.4,22.85-43.93a40.69,40.69,0,0,1,8.29-5"/><path class="cls-6" d="M298.88,282.4c3.51-9.06,17.2-40.72,21.75-44.25,1.43-1.11,1.95-2.15-2.44,1.26-4.55,3.53-20,35.9-23.52,45-3.64,9.41,6.06,18.41,13,13.62C301.35,298.15,295.86,290.21,298.88,282.4Z"/><path class="cls-7" d="M318.23,235.76c2.29-3.66,7.82-7.18,7.82-7.18s1.46-5.59,4.05-6.36,4.36,11.94-2.17,13.94c0,0,6.06-1.45,9.49,0a1.62,1.62,0,0,1,.69.64,2.72,2.72,0,0,1,1,2.08c0,.37-1.37,1.58-1.5,1.9.05.72,1.36.66,1.35,1.48a2.7,2.7,0,0,1-.28,4.48l-.12,1.07a2.12,2.12,0,0,1,.55,1.4,2.19,2.19,0,0,1-1,1.78c-.12.8-.23,1.52-.33,2.13a2,2,0,0,1,0,.43,1.92,1.92,0,0,1-.3,1c-.07.4-.12.64-.12.64l-.57,0a2.54,2.54,0,0,1-1.35.38s-4.64,1.32-7.19,1.13-3.12,1.27-3.12,1.27a51.83,51.83,0,0,0-4.66-2.58c-3.72-1.7-4.23-1.43-4.23-1.43C314.19,252,315.94,239.42,318.23,235.76Z"/><path class="cls-12" d="M321.08,254.23c-3.71-1.71-2-14.65.27-18.31s7.82-7.19,7.82-7.19a10.76,10.76,0,0,1,2.11-3.76c-.4-.83-.7-2.31-1.25-2.15-2.59.77-3.51,5.87-3.51,5.87s-5.16,3.46-7.46,7.12-3.71,13.81-2.45,16.93c0,0,.29,1.14,4,2.85a51.83,51.83,0,0,1,4.66,2.58S322,254.66,321.08,254.23Z"/><path class="cls-18" d="M157.15,297.73s32.44-21.73,33.72-24.84-4.07-16-4.07-16l-3.51-2.55s5.36,12.9,4.07,16-33.71,24.84-33.71,24.84,3.58,8.82,7.23,8.92A38.05,38.05,0,0,1,157.15,297.73Z"/><path class="cls-4" d="M396.21,235.19c16.43,8.92,17.05,39.35,16.58,49.61s-34,26.6-38.06,28.48-11-10.29-11-10.29,29.58-15.69,30.05-20.84-5.27-19.78-5.27-19.78"/><path class="cls-6" d="M368,302.8s29.58-15.7,30-20.85-5.79-17.47-5.79-17.47l-3.45-2.3s5.73,14.63,5.26,19.77-30,20.85-30,20.85c7.28,12.76,11.62,10,11,10.29-.24.11,1-1.06,1.47-1.27C372.69,309.49,368,302.8,368,302.8Z"/><polygon class="cls-51" points="396.38 305.58 408.68 291.65 408.39 285.99 345.64 286.96 321.24 303.37 396.38 305.58"/><polygon class="cls-52" points="395.16 300.91 403.39 292.13 336.58 291.51 323.25 299.97 395.16 300.91"/><polygon class="cls-53" points="310.42 255.62 320.01 303.51 395.16 305.72 387.26 255.62 310.42 255.62"/><path class="cls-54" d="M361.3,281a10.53,10.53,0,1,1-10.53-10.52A10.52,10.52,0,0,1,361.3,281Z"/><text class="cls-55" transform="translate(344.28 286.63)">DG</text><polygon class="cls-56" points="325.97 300.62 314.79 256.06 311.32 256.06 320.68 302.82 394.23 305.01 393.79 303.48 325.97 300.62"/><polygon class="cls-51" points="183.41 297.02 195.71 283.09 195.41 277.42 132.66 278.39 108.26 294.81 183.41 297.02"/><polygon class="cls-52" points="182.19 292.35 190.41 283.56 123.6 282.95 110.28 291.41 182.19 292.35"/><polygon class="cls-53" points="97.44 247.06 107.04 294.95 182.19 297.16 174.28 247.06 97.44 247.06"/><polygon class="cls-56" points="112.97 292.22 101.8 247.65 98.32 247.65 107.68 294.42 181.23 296.61 180.79 295.08 112.97 292.22"/><path class="cls-54" d="M148,270.44a10.53,10.53,0,1,1-10.53-10.53A10.54,10.54,0,0,1,148,270.44Z"/><text class="cls-55" transform="translate(130.97 276.1)">DG</text><path class="cls-7" d="M145.79,303.57c-2.46-.13-18.82-2.92-19.74-3.52s-3.91-7.25-3.78-8,0-5.57.39-6.82,2.41-.37,2.6.14.23,5,.39,6,.26,2.25,1.33,2.41h0a25.3,25.3,0,0,1-.93-3.14c-.27-1.37-.6-10.31-.56-12.09s3.06-.57,3.17.83.48,9.16.67,10.12,1.09,4.48,2.46,4.76h0s-1.84-3.61-1.9-5.76-.34-11.8-.37-13.12c-.07-2.76,4.24-2.12,4.6.37.15,1.09-.1,8.71,0,10.26.15,2.53,1.83,7.66,3.32,8s.53,0,.53,0-1.27-5.45-1.1-7.2,1.44-9.36,1.75-11,3.93.38,3.88,1.52-.74,10.45-.49,11.4.18,3.75,2.46,5.23a10.09,10.09,0,0,0,2.51.53c.77,0,2.72.42,2.78-.35a4.35,4.35,0,0,0,.19-2.26c-.31-1.09-2.12-5.72-1.92-6.46a2.26,2.26,0,0,1,3-.77,19.31,19.31,0,0,1,3.58,4,11.91,11.91,0,0,1,1,3.39l.47,3.12a11.5,11.5,0,0,0,3.5.85c1.36,0,1.32,5.8,0,6S148.26,303.7,145.79,303.57Z"/><path class="cls-7" d="M358.38,313.56c-2.46-.13-18.82-2.91-19.74-3.52s-3.9-7.24-3.78-8,0-5.57.39-6.82,2.42-.37,2.6.15.24,5,.39,6,.26,2.26,1.33,2.41h0a24.71,24.71,0,0,1-.93-3.14c-.27-1.36-.6-10.3-.56-12.08s3.06-.57,3.17.82.48,9.16.67,10.12,1.09,4.48,2.46,4.77h0s-1.84-3.61-1.9-5.76-.34-11.81-.37-13.13c-.07-2.75,4.24-2.12,4.6.37.15,1.09-.1,8.71,0,10.27.15,2.53,1.83,7.66,3.32,8s.53,0,.53,0-1.27-5.45-1.1-7.21,1.44-9.36,1.75-11,3.93.39,3.88,1.52-.74,10.46-.48,11.4.17,3.75,2.45,5.24a10.58,10.58,0,0,0,2.51.53c.77-.05,2.72.42,2.78-.35a4.46,4.46,0,0,0,.2-2.26c-.31-1.1-2.13-5.73-1.92-6.46a2.24,2.24,0,0,1,3-.77,19.5,19.5,0,0,1,3.58,4,11.9,11.9,0,0,1,1.05,3.4l.48,3.11a11.63,11.63,0,0,0,3.5.86c1.36,0,1.31,5.8,0,6S360.85,313.7,358.38,313.56Z"/><path class="cls-7" d="M114.92,219.5s1.48-7-3.32-7a89,89,0,0,1-10.18-.9s-1.19,5.85,2.15,6.56a32.58,32.58,0,0,1,5.22,1.47"/><path class="cls-57" d="M152.4,227s-4.54-5-.56-8.39h-.69c-6.85,2.48-1.94,9.76-1.94,9.76,2.93,4.55,5.3,3.67,7.45,2C155.11,230.35,154.07,229.54,152.4,227Z"/><path class="cls-57" d="M164,225.54l8.37-7c-.31-.14.06,0-.31-.14l-11.26,8.76s4,7.92,10.41,3.16C166.46,230.94,164,225.54,164,225.54Z"/><path class="cls-19" d="M99.05,217l-3.89-9.58c-.26-.66.84-.8,1.32-1.43-.09,0-.34.05-.44.08-1.5.61-2.79,1.45-2.32,2.59l3.94,9.61c.47,1.14,1.4,1.18,2.9.57a2,2,0,0,0,1.1-.88C100.24,218.36,99.48,218,99.05,217Z"/><path class="cls-19" d="M94.59,218.37,91,210.15c-.25-.59.49-.94.83-1.49a6.73,6.73,0,0,0-1.1,0c-1.21.53-1.72,1.23-1.27,2.28l3.71,8.65c.45,1,1.22,1.09,2.43.56.54-.23.66-.53.92-1C95.48,219.39,95,219.25,94.59,218.37Z"/><path class="cls-19" d="M90.63,220.69l-4-7.67c-.27-.52,0-.14.22-.66-.27,0-.17-.17-.44,0-1,.53-1.52.89-1.05,1.81l3.69,7.54c.47.92,1.08,1.11,2.1.57a1.65,1.65,0,0,0,.79-.92C91.17,221.42,91,221.37,90.63,220.69Z"/><path class="cls-19" d="M110.58,218.18a32.58,32.58,0,0,0-5.22-1.47c-2.27-.48-1.56-2.47-1.44-4.25a14.61,14.61,0,0,0-2.09-.09s-1.59,4.86,1.76,5.56a32.63,32.63,0,0,1,5.21,1.47Z"/><path class="cls-19" d="M150.34,293.85c0,.2.15.81-.06.88.89.07,1.18.15,1.23-.45a4.46,4.46,0,0,0,.2-2.26c-.31-1.1-2.13-5.73-1.92-6.46.09-.32.34-.34.88-.55-1.22-.53-2.11-.19-2.28.43s2,5.4,2.28,6.5S150.37,293.46,150.34,293.85Z"/><path class="cls-19" d="M133.54,294.48l.33.06Z"/><path class="cls-19" d="M139.2,294.21c1.49.31.52,0,.52,0s-1.26-5.45-1.1-7.21,1.44-9.36,1.75-11c0-.15-.07.09,0,0-.88-.38-1.38-.62-1.52.16-.32,1.66-1.22,8.77-1.39,10.53a28.68,28.68,0,0,0,.64,5.72C138.61,293.4,138.65,294.09,139.2,294.21Z"/><path class="cls-19" d="M130.08,279.71c.11,1.39.46,8.63.65,9.59s1.08,4.48,2.45,4.76a18.05,18.05,0,0,1-1.54-5.34c-.06-2.15-.34-11.81-.37-13.13,0-.87.62-.73,1.21-1-1.3-.42-3-.65-3,1,0,.38,0,1.45.07,2.82A1.58,1.58,0,0,1,130.08,279.71Z"/><path class="cls-19" d="M127.74,298.83c-.92-.61-3.84-5.8-3.72-6.56s0-5.57.39-6.82c0-.15,0-.06,0-.15-.69-.34-1.14-.54-1.4.31-.37,1.25-.22,6-.35,6.74s2.88,6.93,3.8,7.54,16.84,2.8,19.31,2.8a17.51,17.51,0,0,0,2.57-.52C144.91,301.82,128.63,299.41,127.74,298.83Z"/><path class="cls-19" d="M128,294.34s-.26-2-.53-3.4-.32-9.51-.28-11.29a2.33,2.33,0,0,1,.34-.94c-.89-.45-1.56-.93-1.58.12,0,.88.07,3.59.17,6.18C126.22,286.1,127,294.18,128,294.34Z"/><path class="cls-19" d="M362.78,303.91c0,.2.14.81-.07.88.89.07,1.19.15,1.23-.45a4.35,4.35,0,0,0,.2-2.26c-.31-1.1-2.12-5.73-1.92-6.47.09-.31.35-.33.88-.54-1.21-.53-2.1-.19-2.27.43s2,5.4,2.27,6.5S362.81,303.52,362.78,303.91Z"/><path class="cls-19" d="M346,304.53c.14,0,.24.05.33.07Z"/><path class="cls-19" d="M351.66,304.26c1.5.32.53,0,.53,0s-1.27-5.45-1.1-7.21,1.44-9.36,1.75-11c0-.15-.08.09,0,0-.89-.38-1.38-.62-1.53.16-.31,1.66-1.21,8.77-1.38,10.53a28.68,28.68,0,0,0,.64,5.72C351.08,303.46,351.11,304.15,351.66,304.26Z"/><path class="cls-19" d="M342.58,289.77c.1,1.39.45,8.63.64,9.59s1.08,4.48,2.45,4.76a18.05,18.05,0,0,1-1.54-5.34c-.06-2.15-.34-11.81-.37-13.13,0-.87.62-.73,1.21-1-1.29-.42-3-.65-3,1,0,.38,0,1.45.08,2.82A1.61,1.61,0,0,1,342.58,289.77Z"/><path class="cls-19" d="M340.24,308.89c-.92-.61-3.83-5.8-3.71-6.56s0-5.57.39-6.82c.05-.15,0-.06.05-.15-.69-.34-1.14-.54-1.39.31-.37,1.25-.23,6-.35,6.74s2.87,6.93,3.79,7.54,16.78,2.8,19.24,2.8a17.51,17.51,0,0,0,2.57-.52C357.36,311.88,341.13,309.47,340.24,308.89Z"/><path class="cls-19" d="M340.54,304.4s-.26-2-.53-3.4-.32-9.51-.28-11.29a2.33,2.33,0,0,1,.34-.94c-.89-.45-1.55-.93-1.57.12,0,.88.06,3.59.17,6.18C338.73,296.16,339.47,304.24,340.54,304.4Z"/></g></svg>