<?xml version="1.0" encoding="UTF-8"?>
<!DOCTYPE svg PUBLIC "-//W3C//DTD SVG 1.1//EN" "http://www.w3.org/Graphics/SVG/1.1/DTD/svg11.dtd">
<!-- Creator: CorelDRAW 2019 (64-Bit) -->
<svg xmlns="http://www.w3.org/2000/svg" xml:space="preserve" width="210mm" height="297mm" version="1.1" style="shape-rendering:geometricPrecision; text-rendering:geometricPrecision; image-rendering:optimizeQuality; fill-rule:evenodd; clip-rule:evenodd"
viewBox="0 0 21000 29700"
 xmlns:xlink="http://www.w3.org/1999/xlink"
 xmlns:xodm="http://www.corel.com/coreldraw/odm/2003"
 enable-background="new 0 0 720 720">
 <defs>
  <style type="text/css">
   <![CDATA[
    .str2 {stroke:#E1E7D5;stroke-width:13.23;stroke-miterlimit:22.9256}
    .str0 {stroke:black;stroke-width:26.46;stroke-miterlimit:22.9256}
    .str1 {stroke:#050505;stroke-width:26.46;stroke-miterlimit:22.9256}
    .fil25 {fill:none}
    .fil16 {fill:black}
    .fil9 {fill:#003151}
    .fil35 {fill:#050505}
    .fil51 {fill:#096E69}
    .fil33 {fill:#0A2437}
    .fil8 {fill:#0A4369}
    .fil50 {fill:#0D273A}
    .fil38 {fill:#0F5856}
    .fil22 {fill:#12807B}
    .fil32 {fill:#183247}
    .fil43 {fill:#1B5954}
    .fil12 {fill:#1C1B1C}
    .fil1 {fill:#1E8477}
    .fil42 {fill:#1F8679}
    .fil7 {fill:#20877A}
    .fil23 {fill:#218A7C}
    .fil29 {fill:#252125}
    .fil6 {fill:#289E8F}
    .fil24 {fill:#296E68}
    .fil27 {fill:#302D31}
    .fil31 {fill:#307872}
    .fil26 {fill:#363639}
    .fil20 {fill:#662628}
    .fil13 {fill:#9F3A28}
    .fil18 {fill:#A5A3A2}
    .fil30 {fill:#A63726}
    .fil47 {fill:#A83826}
    .fil45 {fill:#AAAAAA}
    .fil39 {fill:#AC3928}
    .fil41 {fill:#AD3A28}
    .fil5 {fill:#B13B29}
    .fil46 {fill:#B5B5B5}
    .fil14 {fill:#BD9F55}
    .fil49 {fill:#BF543F}
    .fil15 {fill:#C6C6C5}
    .fil34 {fill:#C8A95B}
    .fil3 {fill:#CAAA5B}
    .fil11 {fill:#CEAD5D}
    .fil4 {fill:#D24834}
    .fil10 {fill:#DBB863}
    .fil28 {fill:#E1E7D5}
    .fil21 {fill:#E25656}
    .fil0 {fill:#E4E5C6}
    .fil44 {fill:#E7664E}
    .fil2 {fill:#EAC369}
    .fil40 {fill:#EDA721}
    .fil48 {fill:#9F3A28;fill-opacity:0.501961}
    .fil17 {fill:url(#id0)}
    .fil37 {fill:url(#id1)}
    .fil36 {fill:url(#id2)}
    .fil19 {fill:url(#id3)}
   ]]>
  </style>
  <linearGradient id="id0" gradientUnits="userSpaceOnUse" x1="5958.99" y1="9267.49" x2="5958.99" y2="8779.28">
   <stop offset="0" style="stop-opacity:0; stop-color:#5A5C5B"/>
   <stop offset="0.541176" style="stop-opacity:0.701961; stop-color:#3D3D3E"/>
   <stop offset="1" style="stop-opacity:1; stop-color:#3D3D3E"/>
  </linearGradient>
  <linearGradient id="id1" gradientUnits="userSpaceOnUse" xlink:href="#id0" x1="33564.63" y1="9832.79" x2="33564.63" y2="9370.27">
  </linearGradient>
  <linearGradient id="id2" gradientUnits="userSpaceOnUse" xlink:href="#id0" x1="-8330.27" y1="9832.79" x2="-8330.27" y2="9370.27">
  </linearGradient>
  <linearGradient id="id3" gradientUnits="userSpaceOnUse" xlink:href="#id0" x1="26414.21" y1="9318.89" x2="26414.21" y2="8830.68">
  </linearGradient>
 </defs>
 <g id="Layer_x0020_1">
  <metadata id="CorelCorpID_0Corel-Layer"/>
  <path class="fil0" d="M7411.43 7272.8c1485.43,-1255.44 3076.28,-3881.3 4753.39,-4485.06 1657.94,-603.76 3392.54,824.18 4341.3,2558.78 958.35,1744.19 1140.43,3804.63 1753.77,5797.99 603.76,1983.78 1638.77,3900.47 1495.02,5711.74 -134.17,1801.69 -1447.1,3497.96 -3009.2,4753.39 -1562.1,1255.43 -3382.96,2079.61 -5213.4,2319.19 -1840.02,249.17 -3689.63,-67.08 -5682.99,-373.75 -1983.77,-297.09 -4101.71,-575.01 -4992.97,-1868.77 -891.26,-1274.6 -536.68,-3584.21 -230.01,-5405.07 297.09,-1830.44 555.84,-3181.71 987.1,-4437.14 421.67,-1265.01 1015.85,-2415.03 1993.36,-2932.53 977.51,-517.51 2328.78,-392.92 3804.63,-1638.77z"/>
  <g id="_2420799844144">
   <g>
    <path class="fil1 str0" d="M7696.5 22087.41c0,0 57.43,-5.7 70.05,129.61 0,0 -797.12,422.92 -797.12,179.82 0,-243.1 65.84,-309.42 128.92,-309.42 86.02,-0.01 598.15,-0.01 598.15,-0.01z"/>
    <path class="fil1 str0" d="M5960.23 22073.87c0,0 -74.83,-21.94 -74.83,154.82 0,0 801.92,397.55 801.92,154.58 0,-243.1 -65.88,-309.4 -129.02,-309.4 -85.97,0 -598.07,0 -598.07,0z"/>
    <path class="fil2 str0" d="M5775.37 19588.12c0,0 148.83,2430.69 186.67,2570.83l188.94 269.44 453.55 -161.55 156.92 -2964.4 -383.7 -204.79 -602.36 53.88 0 436.59 -0.02 0z"/>
    <polygon class="fil2 str0" points="6885.22,19372.04 7041.83,22243.51 7375.41,22499.92 7685.76,22174.65 7968.69,19142.64 "/>
    <path class="fil3" d="M6141.04 22072.94c-37.88,-140.12 -144.12,-2505.62 -144.12,-2505.62l184.56 -488.82 -386.51 0 -19.6 454.71c0,0 195.23,2412.58 233.02,2552.67l188.94 269.47 309.3 -110.32 -365.59 -172.09z"/>
    <polygon class="fil3" points="7222.09,22087.41 7124.27,19226.35 6885.22,19289.74 7088.17,22159.82 "/>
    <path class="fil4 str0" d="M5863.2 20949.57c0,0 464.23,267.31 811.07,0l-88.65 1405.79 -633.03 0 -89.39 -1405.79z"/>
    <path class="fil5" d="M6120.25 21081.54c-138.11,-35.12 -234.85,-90.65 -234.85,-90.65l89.34 1405.81 229.1 0.01 -83.59 -1315.17z"/>
    <path class="fil4 str0" d="M6969.42 20949.57c0,0 701.12,319.45 843.16,-133.92l-140.96 1657.14 -597.47 23.98 -29.8 -188.58 -74.93 -1358.62z"/>
    <g>
     <path class="fil5" d="M7303.7 22349.53l-70.9 -1283.69c-126.32,-32.1 -241.97,-74.95 -241.97,-74.95l75.39 1369.01 50.72 178.17 215.15 -8.61 -28.39 -179.93z"/>
    </g>
    <path class="fil6 str0" d="M5868.59 15381.49c403.51,-518.65 293.82,-2352.52 293.82,-2352.52l474.29 -509.77 969.33 0c0,0 479.78,76.98 367.29,439.9 -112.55,362.82 29.6,2349.62 29.6,2349.62 942.02,1145.7 1123.65,3534.66 1123.65,3534.66 -278.35,653.46 -977.96,452.21 -977.96,452.21 -774.04,776.05 -1332.19,135.31 -1332.19,135.31 -644.18,528.2 -1147.76,-119.35 -1147.76,-119.35 -761.47,352.56 -1023.51,-452.8 -1023.51,-452.8 -69.62,-289.91 779.73,-2906.88 1223.44,-3477.26z"/>
    <path class="fil7" d="M8140.39 18997.97c-762.25,764.15 -1289.52,-62 -1289.52,-62 -634.31,520.17 -1075.47,-69.47 -1075.47,-69.47 -749.81,347.2 -831.29,-440.68 -831.29,-440.68 72.59,-276.68 759.96,-2836.06 1196.96,-3397.68 397.23,-510.8 468.04,-2336.93 468.04,-2336.93l80.3 -86.23 -70.08 -0.01 -467.04 501.78c0,0 108.07,1805.98 -289.23,2316.66 -437,561.75 -1273.35,3138.62 -1204.82,3424.09 0,0 258.06,793.18 1007.95,445.97 0,0 495.81,637.57 1130.17,117.42 0,0 549.6,631 1311.9,-133.16 438.49,83.56 739.04,32.59 906.76,-335.91 -254.12,77.07 -874.63,56.15 -874.63,56.15z"/>
    <path class="fil8 str0" d="M7422.33 15429.92c0,0 -63.15,-388.04 0,-816.49 63.22,-428.34 175.63,-1843.28 183.67,-1996.83 8.12,-153.58 -128.22,-212.65 -15.03,-180.32 113.18,32.35 831.21,167.97 831.21,286.55l-419.27 2585.91c0,-0.02 -304.2,161.63 -580.58,121.18z"/>
    <path class="fil9" d="M7646.06 14720.79c19.78,-400.17 -34.1,-878.08 -40.06,-969.66 -10.9,-86.36 66.06,-1285.33 36.33,-1293.84 -113.16,-32.34 0,0 -8.04,153.69 -8.12,153.58 -120.54,1568.38 -183.74,1996.83 -63.14,428.49 0,816.52 0,816.52 81.4,11.93 161.18,-22.56 238.99,-36.39 -8.15,-54.14 -63.11,-268.56 -43.48,-667.15z"/>
    <path class="fil8 str0" d="M6523.49 15421.96c0,0 66.91,-736.01 37.46,-962.21 -29.41,-226.2 75.71,-1940.53 75.71,-1940.53 0,0 206.25,-134.67 54.83,-112.73 -151.4,21.82 -984.59,48.44 -1372.64,743.73 -388.04,695.31 -403.08,1434.44 -403.08,1434.44 0,0 -146.66,-616.25 -197.21,-741.93 -50.54,-125.55 -807.73,-86.23 -794.42,93.69 9.2,123.9 450.46,1631.75 846.53,1769.2 396.23,137.49 488.81,-29.65 626.27,-191.33 137.39,-161.68 427.22,-1266.42 467.73,-1476.53 0,0 214.12,907.17 3.86,1343.76 0.06,-0.03 428.63,113.11 654.96,40.44z"/>
    <polygon class="fil10 str0" points="6726.14,11917.11 6683.59,12519.2 7059.26,12959.1 7606,12519.2 7486.16,11858.65 "/>
    <path class="fil11" d="M6997.82 12427.77c-50.8,-137.18 66.88,-552.24 66.88,-552.24l-319.23 24.62 -42.56 602.22 375.66 439.77 149.32 -138.61c0.03,-0.02 -179.27,-238.54 -230.07,-375.76z"/>
    <path class="fil12 str0" d="M5996.09 11481.9c0,0 -1121.11,661.68 -1891.17,-791.06 -486.74,-918.09 -667.2,-2750.08 423.74,-4140.55 1264.46,-1611.99 3222.41,-1533.75 3902.67,-1055.3 0,0 1065.63,-247.8 1911.52,2100.71 874.41,2427.64 -778.18,4589.97 -2062.99,3917.5 -590.48,-309.17 -826.41,273.27 -1166.72,232.19 -1000.11,-120.56 -1117.05,-263.49 -1117.05,-263.49z"/>
    <path class="fil13 str0" d="M4971.34 9345.04c0,0 -978.31,-2523.73 2138.82,-3139.65 0,0 60.88,-12.66 136.96,-37.28 126.49,-40.95 403.36,-95.36 403.36,-198.45 0,-165.38 111.59,-545.15 -505.71,-455 -617.31,90.16 -3548.36,807.14 -2506.7,3670.74l333.27 159.64z"/>
    <path class="fil2 str0" d="M5166.95 10255.29c305.37,1087.01 1241.34,1766.95 1971.88,1732.2 730.63,-34.87 1594.19,-645.18 1939.99,-1830.73 0,0 185.52,301.56 417.47,0 231.98,-301.57 394.32,-1218.01 -208.67,-916.58 0,0 23.12,128.06 -185.6,452.72 0,0 371.04,-1205.98 -208.72,-1716.23 0,0 -603.07,-579.89 -904.55,-1345.2 0,0 -389.23,525.23 -2017.76,1105.51 -672.6,239.66 -968.59,818.29 -899.08,1897.69l-158.39 -463.23c-160.29,-88.88 -410.23,-69.51 -380.55,405.42 19.27,308.52 102.32,468.43 220.34,603.09 166.12,189.45 413.64,75.34 413.64,75.34z"/>
    <path class="fil11" d="M5545.99 10302.7l-95 -620.59c-69.61,-1079.53 226.38,-1658.01 898.94,-1897.69 961.42,-342.65 1452.73,-637.58 1725.24,-845.05 -45.79,-89.67 -86.85,-169.79 -124.83,-266.17 0,0 -352.85,483.79 -1981.46,1064.07 -672.6,239.68 -969.46,857.5 -899.9,1937.01l-199.13 -479.96c-107.23,-69.74 -368.58,-92.07 -338.85,382.83 19.22,308.53 94.53,452.72 212.7,587.39 166.04,189.46 417.48,46.41 417.48,46.41 302.69,1077.5 1169.56,1765.54 1897.31,1743.24 -640.26,-170.72 -1260.92,-755.83 -1512.5,-1651.49z"/>
    <path class="fil14" d="M4840.29 9320.06c0,0 -289.94,-116.04 -191.35,354.19 92.83,442.06 438.77,644.82 458.09,332.75l-87 -332.75 -179.74 -354.19z"/>
    <path class="fil15 str0" d="M7366.13 9443.06c0,0 -194.67,-464.14 343.35,-614.76 538,-150.52 793.18,208.59 808.6,260.96 0,0 0,338.46 -123.69,353.79 -54.32,6.86 -256.86,-77.73 -469.43,-79.01 -271.86,-1.51 -558.83,79.02 -558.83,79.02z"/>
    <path class="fil15 str0" d="M6521.79 9399.17c0,0 194.79,-464.23 -343.27,-614.89 -538.03,-150.51 -793.13,208.6 -808.65,260.97 0,0 0.05,338.45 123.69,353.92 54.35,6.73 256.8,-77.85 469.45,-79.14 271.87,-1.48 558.78,79.14 558.78,79.14z"/>
    <path class="fil16 str0" d="M5269.35 8486.92c0,0 287.22,-371.17 1306.33,-69.62 0,0 296.41,-224.22 -157.56,-324.76 -453.84,-100.41 -1139.52,61.88 -1148.77,394.38z"/>
    <path class="fil16 str0" d="M8799.08 8486.92c0,0 -296.73,-371.17 -1349.54,-69.62 0,0 -306.24,-224.22 162.69,-324.76 468.98,-100.41 1177.27,61.88 1186.85,394.38z"/>
    <path class="fil16 str0" d="M5331.25 8745.49c0,0 91.23,81.91 315.83,0 224.65,-82.05 414.1,-175.63 673.73,87.75 0,0 -547.39,-251.71 -891.34,163.96l42.17 -128.83c-0.01,0 -98.3,0 -140.39,-122.88z"/>
    <path class="fil16 str0" d="M5671.4 9356.22c0,0 311.69,-162.32 649.38,0 0.02,0 -396.07,-63.81 -649.38,0z"/>
    <path class="fil16 str0" d="M5684.36 8828.56c0,0 -238.35,354.03 86.93,516.47l505.96 -24.98c0,0 203.84,-313.71 0,-519.27 -0.03,0 -384.5,-140.88 -592.89,27.78z"/>
    <path class="fil17 str0" d="M6263.56 9038.16c0,135.82 -125.17,245.87 -279.54,245.87 -154.41,0 -279.49,-110.08 -279.49,-245.87 0,-135.68 125.08,-245.76 279.49,-245.76 154.34,0.01 279.54,110.08 279.54,245.76z"/>
    <path class="fil16 str0" d="M6091.6 9018.89c0,59.97 -48.18,108.56 -107.61,108.56 -59.48,0 -107.61,-48.56 -107.61,-108.56 0,-60.11 48.13,-108.79 107.61,-108.79 59.41,0 107.61,48.68 107.61,108.79z"/>
    <path class="fil18 str0" d="M5939.48 8891.18c0,34.74 -31.63,62.78 -70.5,62.78 -38.93,0 -70.46,-28.04 -70.46,-62.78 0,-34.61 31.52,-62.65 70.46,-62.65 38.85,0.03 70.5,28.04 70.5,62.65z"/>
    <path class="fil18 str0" d="M6058.74 8944.45c0,18.89 -16.72,34.35 -37.41,34.35 -20.61,0 -37.33,-15.47 -37.33,-34.35 0,-18.88 16.72,-34.35 37.33,-34.35 20.68,0 37.41,15.46 37.41,34.35z"/>
    <path class="fil16 str0" d="M8556.75 8789.37c0,0 -91.31,82.05 -315.87,0 -224.5,-81.91 -414.02,-175.49 -673.73,87.88 0,0 547.51,-251.71 891.32,163.84l-42.09 -128.71c-0.01,0 98.21,0 140.37,-123.01z"/>
    <path class="fil16 str0" d="M8216.52 9400.2c0,0 -311.69,-162.44 -649.38,0 -0.02,0 396.13,-63.77 649.38,0z"/>
    <path class="fil16 str0" d="M8212.66 8872.43c0,0 238.35,354.18 -86.93,516.5l-505.96 -24.87c0,0 -203.87,-313.72 0,-519.41 0,0 384.48,-140.86 592.89,27.78z"/>
    <path class="fil19 str0" d="M7633.47 9082.18c0,135.82 125.17,245.75 279.54,245.75 154.38,0 279.49,-109.95 279.49,-245.75 0,-135.7 -125.11,-245.88 -279.49,-245.88 -154.37,0 -279.54,110.18 -279.54,245.88z"/>
    <path class="fil16 str0" d="M7805.4 9062.77c0,60.11 48.18,108.67 107.61,108.67 59.44,0 107.62,-48.59 107.62,-108.67 0,-59.96 -48.18,-108.66 -107.62,-108.66 -59.43,0 -107.61,48.67 -107.61,108.66z"/>
    <ellipse class="fil18 str0" cx="8028" cy="8935.2" rx="70.48" ry="62.75"/>
    <path class="fil18 str0" d="M7838.26 8988.46c0,18.89 16.72,34.25 37.36,34.25 20.66,0 37.41,-15.34 37.41,-34.25 0,-19.01 -16.72,-34.35 -37.41,-34.35 -20.64,-0.03 -37.36,15.32 -37.36,34.35z"/>
    <path class="fil20 str0" d="M6374.89 10663.08c0,0 726.79,105.88 1275.64,18.27 0,0 -23.13,550.85 -684.14,565.44 -0.03,0 -548.89,-7.21 -591.5,-583.71z"/>
    <path class="fil21 str0" d="M6583.8 11095.14c0,0 -61.83,-38.67 37.36,-75.34 113.67,-41.99 514.59,-54.79 725.97,10.53 62.13,19.27 83.76,59.97 83.76,59.97 0,0 -430.09,298.54 -847.09,4.84z"/>
    <path class="fil15 str0" d="M6520.58 10847.73c55.12,43.49 694.52,148.87 1008.98,-19.38l120.98 -137.73c0,0 -699.66,104.37 -1275.64,-27.52 -0.01,-0.02 90.59,141.15 145.68,184.63z"/>
    <path class="fil15 str0" d="M6513.67 11034.14c0,0 645.9,110.95 985.74,0 0,0 -212.21,187.03 -533.05,212.65 0,0 -280.79,-34.86 -452.69,-212.65z"/>
    <path class="fil22 str0" d="M7072.13 12959.1c0,0 -265.73,453.85 -514.08,68.23 0,0 -278.02,-387.16 125.55,-508.12l388.53 439.89z"/>
    <path class="fil22 str0" d="M7059.26 12959.1l546.74 -439.9c403.56,120.97 0,598.67 0,598.67 -310.47,269.46 -546.74,-158.77 -546.74,-158.77z"/>
    <path class="fil6 str0" d="M5885.4 22228.69c0,0 74.83,47.66 94.4,121.35 0,0 46.92,-221.13 277.51,-221.05 0,0 308.86,-0.11 312.76,239.43 0,0 15.21,-121.62 105.33,-119.72l20.53 236.76c0,0 236.8,827.95 46.35,952.09 -190.41,124.02 -899.16,132.92 -1027.65,-44.41 -128.4,-177.13 50.02,-779.23 79.37,-900.07 24.25,-99.39 91.4,-264.38 91.4,-264.38z"/>
    <path class="fil23" d="M6033.56 23365.5c-128.46,-177.14 50.02,-779.37 79.37,-900.05 24.15,-99.42 91.3,-264.41 91.3,-264.41 0,0 74.83,47.82 94.48,121.35 0,0 23.8,-110.31 119.08,-175.09 -79.5,-32.09 -160.47,-32.22 -160.47,-32.22 -230.61,-0.25 -277.51,234.98 -277.51,234.98 -19.6,-73.67 -94.4,-108.92 -94.4,-108.92 0,0 -42.94,156.09 -67.23,255.63 -29.29,120.72 -199.47,709.38 -71.02,886.52 92.25,127.35 429.25,139.88 713.22,101.57 -201.53,-8.9 -366.78,-36.4 -426.82,-119.36z"/>
    <path class="fil24 str0" d="M5979.82 22350.04c0,0 -277.4,563.55 -12.05,449.67 230.28,-98.9 333.84,-91.55 601.76,-4.45 101.39,32.84 98.28,-154.33 0.56,-426.82 0,0 30.17,-210.4 -312.76,-239.43 0,-0.02 -187.63,-25.61 -277.51,221.03z"/>
    <path class="fil6 str0" d="M5870.32 22523.12c0,0 179.86,-179.68 395.39,-176.78 226.18,2.94 339.02,155.22 378.77,197.09 29.35,30.8 50.16,127.07 19.15,176.5 -31.07,49.46 -238.84,-160.42 -425.91,-152.55 -155.45,6.35 -285.31,176.65 -355.69,172.95 -70.38,-3.7 -93.82,-108.13 -11.71,-217.21z"/>
    <path class="fil6 str0" d="M7766.54 22217.02c0,0 -70.05,73.05 -89.65,146.59 0,0 -46.91,-221.13 -277.53,-220.9 0,0 -308.83,-0.25 -312.77,239.4 0,0 -15.2,-121.74 -105.24,-119.84l-20.61 236.76c0,0 -236.81,828.08 -46.35,952.08 190.48,124.03 899.16,132.9 1027.68,-44.27 128.45,-177.28 -50.03,-779.37 -79.45,-900.08 -24.18,-99.55 -96.08,-289.74 -96.08,-289.74z"/>
    <path class="fil23" d="M7175.55 23370.96c-128.47,-177.16 50.03,-779.36 79.38,-900.08 24.23,-99.54 44.83,-191.12 44.83,-191.12 0,0 121.31,-25.59 140.89,47.95 0,0 -11.66,-59.59 83.68,-124.42 -79.55,-31.94 -156.32,-43.48 -156.32,-43.48 -230.67,-0.28 -269.8,236.89 -269.8,236.89 -19.61,-73.68 -107.35,-116.94 -107.35,-116.94 0,0 11.1,120.59 -13.13,220.13 -29.37,120.72 -202.2,725.61 -73.8,902.78 92.25,127.17 414.54,139.63 698.4,101.19 -201.51,-8.73 -366.75,-50.08 -426.78,-132.9z"/>
    <path class="fil24 str0" d="M7676.89 22363.61c0,0 277.33,563.54 12.06,449.64 -230.24,-98.93 -333.84,-91.43 -601.76,-4.42 -101.39,32.97 -98.28,-154.22 -0.57,-426.7 0,0 -30.16,-210.63 312.77,-239.4 -0.03,-0.02 187.59,-25.77 277.5,220.88z"/>
    <path class="fil6 str0" d="M7786.38 22536.67c0,0 -179.87,-179.66 -395.44,-176.76 -226.1,3.06 -338.95,155.2 -378.73,197.06 -29.36,30.83 -50.08,127.06 -19.14,176.52 31.07,49.45 238.84,-160.28 425.87,-152.57 155.49,6.47 285.32,176.65 355.7,172.98 70.4,-3.53 93.86,-108.16 11.74,-217.23z"/>
    <path class="fil11" d="M6937.54 10301.31c86.18,-23.2 182.79,-225.22 174.11,-271.75 -8.68,-46.4 -328.13,-79.62 -410.61,20.92 -82.61,100.44 150.45,273.91 236.5,250.83z"/>
    <path class="fil11" d="M7044.82 9117.79c-36.6,-10.15 -35.26,594.36 -146.93,867.01 0,0 84.97,57.69 158.41,-12.92 73.46,-70.54 25.16,-844.07 -11.48,-854.09z"/>
    <path class="fil25 str0" d="M7012.16 9356.22c0,0 -8.51,485.67 -149.19,635.95"/>
    <path class="fil25 str0" d="M7058.51 9981.51c0,0 -685.27,-61.26 -266.1,273.78"/>
    <path class="fil11" d="M9050.04 9951.83c0,0 322.91,-466.52 307.06,-606.79 0,0 243.6,-237.76 202.95,388.44 0,0 -91.5,558.95 -378.77,371.43 -183.63,-119.86 -131.24,-153.08 -131.24,-153.08z"/>
    <path class="fil11" d="M7012.98 11497.5c0,0 -148.19,4.96 -295.13,-71.26 94.22,187.81 293.3,181.49 293.3,181.49 173.35,-12.44 266.23,-101.96 316.08,-191.48 -82.56,42.07 -185.46,72.36 -314.25,81.25z"/>
    <path class="fil25 str0" d="M8002.91 15308.72c0,0 68.46,-1137.14 230.83,-1330.4"/>
    <path class="fil7" d="M5546.55 19097.64c-139.12,-1577.15 721.93,-3615.48 721.93,-3615.48 0,0 -833.76,3344.11 -329.2,3615.48l-392.73 0z"/>
    <g>
     <path class="fil7" d="M6717.89 19311.56c-271.75,-1513.1 167.33,-3829.37 167.33,-3829.37 0,0 -206.81,3602.4 101.14,3729.2 308.01,126.71 -307.95,-126.8 -307.95,-126.8l39.48 226.97zm0 0l0 0 0 0z"/>
    </g>
    <path class="fil7" d="M8237.51 19078.5c-118.55,-1508.67 -798.58,-3596.33 -798.58,-3596.33 0,0 624.65,3221.6 563.98,3582.38 -60.67,360.9 33.61,33.1 33.61,33.1l200.99 -19.15z"/>
    <path class="fil4" d="M7339.51 5520.48c-106.02,-48.3 -606.58,82.05 -606.58,82.05 -2204.27,658.65 -2080.29,2127.75 -1958.05,2848.88 -12.67,-769.22 439.84,-1606.52 1527.04,-2043.51 0,0 561.06,-289.61 792.74,-374.71 120.92,-44.51 388.16,-174.11 388.16,-274.05 0,-93.46 -41.99,-192.49 -143.31,-238.66z"/>
    <path class="fil4 str0" d="M9337.45 9240.18c0,0 439.7,-1852.17 -1018.33,-2784.11 0,0 -708.55,-279.37 -896.79,-378.26 -188.19,-99.03 -481.04,-827.05 535.21,-538.31 1016.25,288.73 1893.12,1053.27 1850.18,2223.33 -42.96,1170.06 -319.72,1456.15 -323.99,1455.13 -4.27,-1.11 -146.28,22.22 -146.28,22.22z"/>
    <path class="fil13" d="M8556.75 6512.39c0,0 -681.15,-347.83 -860.4,-487.07 -127.71,-99.03 -348.72,-436.33 8.43,-515.6 -717.8,-106.53 -453.73,477.94 -282.6,567.97 188.24,98.91 896.79,378.26 896.79,378.26 645.25,350.25 849.74,899.21 853.97,900.36 2.5,0.51 -191.53,-520.69 -616.19,-843.92z"/>
    <g>
     <path class="fil9" d="M4944.54 14763.06c0,0 192,-917.45 580.01,-1612.74 314.56,-563.6 867.73,-705.25 1167.03,-743.72 6.19,-15.42 48.3,-6.96 0,0 -151.4,21.81 -984.59,48.43 -1372.64,743.72 -176.48,316.21 -275.66,641.28 -331.52,902.01 -42.88,264.73 -42.88,710.73 -42.88,710.73z"/>
     <path class="fil9" d="M6059.12 15308.72c210.23,-436.61 -190.48,-1397.48 -190.48,-1397.48 -14.88,77.09 109.84,435.74 103.88,633.05 27.82,282.67 2.03,617.43 -103.88,837.33 0,0 297.91,43.24 531.33,17.5 -182.41,-15.08 -340.85,-90.4 -340.85,-90.4z"/>
     <path class="fil9" d="M4976.42 15705.76c-396.09,-137.46 -837.35,-1645.32 -846.56,-1769.22 -6.88,-92.83 191.33,-148.11 391.78,-162.75 -239.15,-20.1 -606.71,36.89 -597.42,162.75 9.2,123.9 450.46,1631.76 846.56,1769.22 156.25,54.27 264.92,60.59 348.04,39.06 -42.72,-8.24 -89.69,-20.81 -142.4,-39.06z"/>
    </g>
    <path class="fil8 str0" d="M7112.81 13449.39c0,50.73 -39.16,91.68 -87.37,91.68 -48.21,0 -87.26,-40.95 -87.26,-91.68 0,-50.6 39.06,-91.55 87.26,-91.55 48.2,0 87.37,40.95 87.37,91.55z"/>
    <ellipse class="fil8 str0" cx="7025.49" cy="13789.01" rx="87.31" ry="91.55"/>
    <g>
     <path class="fil8" d="M8355.92 12655.54c759.63,412.38 769.03,1868.66 747.42,2342.86 -6.68,146.9 -171.85,576.78 -460.02,619.36 -642.07,94.73 -2054.54,-157.85 -2054.54,-157.85 -184.82,-94.4 -16.99,-716.79 110.61,-716.79 0,0 1499.58,314.62 1522.75,59.8 21.66,-238.09 -242.87,-841.71 -242.87,-841.71l376.65 -1305.67zm0 0l0 0 0 0z"/>
     <path id="1" class="fil25 str0" d="M8355.92 12655.54c759.63,412.38 769.03,1868.66 747.42,2342.86 -6.68,146.9 -171.85,576.78 -460.02,619.36 -642.07,94.73 -2054.54,-157.85 -2054.54,-157.85 -184.82,-94.4 -16.99,-716.79 110.61,-716.79 0,0 1499.58,314.62 1522.75,59.8 21.66,-238.09 -242.87,-841.71 -242.87,-841.71m376.65 -1305.67l0 0 0 0z"/>
    </g>
    <path class="fil9" d="M6798.63 14859.37c98.43,-11.23 596.79,74.88 992.63,118.28 322.91,35.3 620.02,-48.85 629.76,-155.85 21.66,-238.04 -268.59,-762.89 -268.59,-762.89l-159.43 -106.63c0,0 373.1,711.78 240.55,910.74 -116.58,174.95 -1490.16,-92.99 -1550.11,-60.05 -221.49,121.75 -221.65,617.51 -35.16,632.65 0.03,-0.04 -28.36,-555.78 150.35,-576.25z"/>
    <g id="_2420886733376">
     <rect class="fil26 str1" x="4987.71" y="12897.82" width="2425.35" height="1937.52"/>
     <rect class="fil27 str1" x="4928.27" y="12600.57" width="2574.08" height="297.24"/>
     <polygon class="fil28" points="5873.45,12626.81 5611.87,12873.5 6010.2,12873.5 6289.54,12626.81 "/>
     <polygon class="fil28" points="6436.64,12626.81 6175.06,12873.5 6573.34,12873.5 6852.72,12626.81 "/>
     <polygon class="fil28" points="6996.98,12626.81 6735.39,12873.5 7133.72,12873.5 7413.06,12626.81 "/>
     <rect class="fil27 str1" transform="matrix(0.969313 -0.0605032 0.0605032 0.969314 4906.54 12307.3)" width="2650.62" height="305.99"/>
     <polygon class="fil28" points="5866.66,12514.14 5590.75,12294.24 5988.33,12269.39 6281.87,12488.13 "/>
     <polygon class="fil28" points="6428.67,12479.01 6152.78,12259.11 6550.34,12234.26 6843.88,12453 "/>
     <polygon class="fil28" points="6987.92,12444.12 6712.16,12224.25 7109.72,12199.39 7403.27,12418.14 "/>
     <polygon class="fil29 str1" points="4905.27,12422.23 4928.27,12896.2 5617.8,12896.2 5718.89,12736.04 5235.85,12282.44 4905.27,12282.44 "/>
     <path class="fil28" d="M5142.16 12442.16c0,37.19 -29.16,67.3 -65.29,67.3 -36.18,0 -65.42,-30.12 -65.42,-67.3 0,-37.17 29.27,-67.22 65.42,-67.22 36.13,0.03 65.29,30.04 65.29,67.22z"/>
     <path class="fil28" d="M5142.16 12722.83c0,37.13 -29.16,67.29 -65.29,67.29 -36.18,0 -65.42,-30.16 -65.42,-67.29 0,-37.03 29.27,-67.27 65.42,-67.27 36.13,-0.02 65.29,30.25 65.29,67.27z"/>
     <path class="fil28" d="M5611.87 12722.83c0,37.13 -29.27,67.29 -65.45,67.29 -36,0 -65.29,-30.16 -65.29,-67.29 0,-37.03 29.27,-67.27 65.29,-67.27 36.18,-0.02 65.45,30.25 65.45,67.27z"/>
     <line class="fil25 str2" x1="5047.06" y1="13236.66" x2="7365.54" y2= "13248.51" />
     <line class="fil25 str2" x1="5056.11" y1="13848.74" x2="7374.51" y2= "13860.54" />
     <line class="fil25 str2" x1="5041.23" y1="14346.88" x2="7359.56" y2= "14358.67" />
     <line class="fil25 str2" x1="5047.06" y1="14602.25" x2="7365.54" y2= "14614.15" />
     <line class="fil25 str2" x1="5041.23" y1="14080.8" x2="6467.83" y2= "14080.8" />
     <line class="fil25 str2" x1="6467.83" y1="13854.66" x2="6467.83" y2= "14358.67" />
     <line class="fil25 str2" x1="5837.73" y1="13236.66" x2="5831.74" y2= "13848.74" />
     <line class="fil25 str2" x1="6606.05" y1="13236.66" x2="6600.13" y2= "13848.74" />
    </g>
    <path class="fil2 str0" d="M5156.27 12120.35c0,0 167.58,-49.28 353.42,44.15 199.49,100.29 247.95,17.83 247.75,150.68 -0.16,111.44 -66.25,178.48 -278.34,112.34 -66.16,-20.61 -207.59,-52.55 -207.59,-52.55 0,0 -251.41,160.09 -310.86,182.59 0,0 -140.56,233.73 124.6,78.54 85.65,-50.08 154.38,-64.54 246.44,-34.25 128.76,42.42 276.28,132.9 276.28,132.9 0,0 153.58,38.74 153.58,94.32 0,140.76 -38.13,226.87 -224.6,163.79 -57.36,-19.4 -247.12,-124.68 -278.56,-125.85 -66.81,-2.55 -116.48,48.82 -270.52,96.25 0,0 148.63,-79.7 292.18,-18.78 143.54,60.95 380.12,120.46 422.02,185.85 42.04,65.41 34.05,88.69 21.38,104.6 -10.85,13.69 -7.43,164.73 -151.22,81.22 -23.84,-13.82 -246.63,-100.06 -281.37,-112.11 -238.68,-82.82 -275.91,68.66 -275.91,68.66 -24.31,-4.75 71.35,-54.35 189.34,-27.01 125.65,29.04 330.06,146.1 330.06,146.1 0,0 52.47,129.15 -55.17,151.74 -47.85,10.02 -183.41,-43.69 -285.67,-54.35 -128.07,-13.38 -247.76,69.87 -247.76,69.87l-315.87 199.77c0,0 -26.13,190.27 -177.6,190.19 -91.82,-0.04 -273.09,60.88 -351.72,-12.69 -87.8,-82.23 -35.43,-324.81 -4.93,-547.36 30.5,-222.57 298.76,-587.14 394.52,-740 95.71,-152.79 666.12,-528.61 666.12,-528.61z"/>
    <g id="_2420887574240">
     <path class="fil11" d="M5488.2 12397.92c152.38,47.49 236.56,-6.92 223.48,-10.98 -66.17,-20.6 -251.8,-81.27 -251.8,-81.27 0,0 -115.62,-26.81 -171.28,26.34 46.2,21.87 171.54,57.14 199.6,65.91z"/>
     <path class="fil11" d="M5114.28 13149.45c10.38,2.93 20.73,5.76 31.99,9.68 0.15,0.08 0.48,0.21 0.62,0.25 35.22,-7.94 83.38,-11.53 136.83,0.83 81.35,18.83 288.25,119.03 358.72,155.97 17.4,-23.59 32.79,-28.6 36.9,-44.64 -75.68,-30.5 -285.89,-144.94 -309.06,-152.98 -156.99,-54.47 -226.55,-7.6 -256,30.89z"/>
     <path class="fil11" d="M4279.06 13889.55c-87.82,-82.23 -35.89,-313.09 -5.4,-535.64 30.51,-222.55 310.04,-620.8 405.78,-773.66 77.32,-123.38 499.62,-433.81 499.62,-433.81 0,0 -584.69,349.73 -680.49,502.6 -95.73,152.89 -364,517.45 -394.49,739.99 -30.51,222.56 -82.87,465.14 4.93,547.37 78.63,73.56 168.1,12.57 259.91,12.61 33.46,0 137.47,-50.38 159.75,-64.85 -79.48,10.48 -202.54,49.46 -249.61,5.39z"/>
     <path class="fil11" d="M5425.99 13448.64c-79.53,-8.3 -204.55,-24.61 -251,-1.46 98.96,14.98 272.38,117.63 312.64,96.39 21.28,-11.23 19.55,-49.78 23.67,-79.97 -43.06,-11.02 -45.17,-10.77 -85.31,-14.96z"/>
     <path class="fil11" d="M5327.17 12772.3c-49.73,-1.9 -90.07,26.13 -170.88,60.05 1.44,0.64 2.93,1.34 4.37,2.03 53.58,-10.46 82.07,0.18 149.11,28.65 62.83,26.69 229.97,93.53 304.33,120.27 9.72,-10.19 78.78,-9.58 84.5,-24.2 -70.59,-29.42 -342.52,-185.64 -371.43,-186.8z"/>
    </g>
    <g id="_2420887553184">
     <path class="fil2 str0" d="M6773.52 14847.63c152.83,0 92.38,518.56 -32.86,518.48 -83.95,-0.05 -458.89,-16.78 -603.35,-24.54 -144.51,-7.76 -557.13,-124.01 -611.35,-159.65 -54.32,-35.77 -291.98,-395.22 -284.72,-439.91 7.24,-44.76 0.92,-326.53 22.95,-399.72 21.89,-73.23 141.55,-21.6 152.53,8.39 10.91,29.99 13.69,293.79 22.84,350.96 9.12,57.22 15.03,131.9 77.67,141.02l0 0c0,0 -38.62,-103.79 -54.47,-183.86 -15.96,-80.14 -33.69,-447.89 -31.46,-552.16 2.24,-104.43 184.85,-81.63 190.92,0 6.12,81.53 21.95,428.96 32.87,485.34 10.97,56.27 40.51,213.22 120.76,229.77 80.28,16.5 20.61,-9.39 20.61,-9.39 0,0 -104.87,-152.6 -108.49,-278.69 -3.59,-126.08 -6.76,-504.24 -8.56,-581.46 -2.87,-122.87 173.71,-149.42 189.27,-40.98 9.15,63.88 61.28,385.27 66.97,476.56 9.17,148.13 83.04,362.57 170.84,381.07 87.76,18.65 18.78,0 18.78,0 0,0 -38.15,-235.22 -28.39,-338.2 9.76,-102.84 41.45,-355.06 59.66,-452.34 18.32,-97.15 201.25,-66.47 198.53,0 -2.7,66.56 -10.95,513.47 3.98,568.64 14.93,55.22 2.03,150.28 135.75,237.19l137.81 54.27c-0.02,0.03 91.99,9.21 140.91,9.21z"/>
     <g>
      <path class="fil11" d="M5908.85 14884.16c8.38,1.78 14.13,2.91 19.27,3.91 -9.34,-1.88 -19.27,-3.91 -19.27,-3.91z"/>
      <path class="fil11" d="M6240.06 14868.33c87.81,18.58 30.73,-2.18 30.73,-2.18 0,0 -74.23,-319.49 -64.41,-422.38 9.76,-102.99 78.16,-486.07 82.63,-491.5 -52.03,-22.51 -96.33,14.19 -104.99,60.18 -18.25,97.25 -35.97,308.96 -45.74,411.87 -5.98,63.42 16.58,232.85 37.28,335.22 30.1,61.46 32.2,101.91 64.5,108.79z"/>
      <path class="fil11" d="M5706 14033.96c6.06,81.51 26.77,505.79 37.72,562.09 10.94,56.3 63.66,262.38 143.94,278.9 0,0 -86.49,-186.91 -90.16,-312.95 -3.6,-126.19 -34.15,-506.45 -35.95,-583.7 -1.16,-51.08 0.28,-70.48 34.92,-84.66 -76.03,-24.67 -92.72,45.01 -90.47,140.32 0.56,22.1 -1.96,-26.19 0,0z"/>
      <path class="fil11" d="M5586 15083.25c-54.27,-35.77 -242.46,-283.52 -235.19,-328.18 7.3,-44.76 0.93,-326.59 22.89,-399.85 2.75,-9.07 -2.59,-3.54 2.75,-9.07 -40.37,-19.7 -66.91,-31.19 -81.81,18.66 -22,73.25 -13.28,349.99 -20.56,394.68 -7.27,44.71 197.59,358.47 251.86,394.19 54.24,35.64 427.93,126.37 571.13,147.21 93.92,13.61 247.42,21.89 213.22,-14.83 -117.53,-18.88 -672.47,-168.76 -724.29,-202.81z"/>
      <path class="fil11" d="M5586 14876.04c0,0 -14.93,-119.17 -30.81,-199.21 -15.95,-80.14 -31.6,-386.79 -29.34,-491.01 0.28,-15.78 -5.12,-96.69 2,-105.02 -52.12,-26.7 -60.21,4.9 -61.44,66.48 -1.18,51.36 3.57,30.19 9.9,182.1 3.51,63.82 47.09,537.54 109.69,546.66z"/>
     </g>
    </g>
   </g>
   <g>
    <path class="fil30 str0" d="M12696.79 21603.88c0,0 344.11,-107.55 905.94,45.89l1.62 -124.13c0,0 -398.82,-224.23 -907.56,-57.56l0 135.8z"/>
    <path class="fil30 str0" d="M15331.51 21592.57c0,0 -344.14,-107.43 -905.86,46.15l0 -150.5c0,0 399.38,-219.65 908.07,-52.88l-2.21 157.23z"/>
    <path class="fil31 str0" d="M14453.27 22076.2c0,0 12.3,-196.54 387.03,-233.31 374.74,-36.92 454.62,27.37 485.25,148.73 30.76,121.38 -35.56,195.05 -35.56,195.05l-790.63 0 -46.09 -110.47z"/>
    <path class="fil22 str0" d="M15449.32 13171.76l-644.85 -191.51 -1765.5 94.36c0,0 -387.53,120.98 -898.13,343.65 -510.51,222.69 330.86,1190.56 330.86,1190.56l0 2335.05c0,0 746.83,169.69 1417.53,136.22 632.97,-31.71 1280.4,-279.37 1280.4,-279.37l5.93 -2124.17c0,0 10.79,-8.38 29.6,-23.84l456.07 36.33 94.89 -1140.31 -306.8 -376.97z"/>
    <polygon class="fil2 str0" points="12638.7,19585.95 12822.32,22236.62 13494.47,22171.33 13641.68,19557.82 "/>
    <polygon class="fil2 str0" points="14267.83,19494.27 14555.1,22036.92 15227.9,21967.42 15264.64,19361.12 "/>
    <polygon class="fil3" points="12849.58,19247.6 12638.7,19253.59 12822.32,21904.39 13023.31,21884.73 "/>
    <polygon class="fil3" points="14561.83,19408.56 14275.3,19446.84 14562.57,21989.46 14813.07,21963.61 "/>
    <path class="fil32 str0" d="M12471.7 17232.11c0,0 -34.35,2503.5 41.9,2610.25 76.29,106.76 1111.35,170.7 1197.76,-14.72 86.42,-185.39 157.56,-1271.89 157.56,-1271.89l137.23 0c0,0 94.09,1179.98 152.5,1274.2 58.45,94.07 1110.6,119.33 1179.26,-20.42 68.63,-139.73 -73.24,-1399.85 -73.24,-1908.46l-79.7 -794.73 -2713.27 125.77z"/>
    <g id="_2420887585664">
     <path class="fil33" d="M12657.01 17218.17l-162.11 7.6c0,0 -34.38,2503.36 41.9,2610.13 15.29,21.43 69.82,41.09 147.09,57.42 -53.06,-403.62 -29.59,-2454.16 -26.88,-2675.15z"/>
     <path class="fil33" d="M14158.01 18511.74l-135.26 44.01c0,0 6.08,111.49 0,197.06 29.29,336.95 115.34,1000.16 159.07,1070.68 11.87,19.01 64.78,35.25 141.53,47.79 -57.58,-290.52 -165.34,-1359.54 -165.34,-1359.54z"/>
    </g>
    <path class="fil32 str0" d="M12471.7 16873.87c-81.87,-2.28 -75.63,317.16 0,358.22 75.67,41.11 679.48,151.3 1426.9,139.5 448.34,-7.09 1219.85,-178.17 1286.36,-265.28 66.52,-87.26 58.36,-373.1 -18.89,-377.62 -77.24,-4.44 -742.33,264.9 -1271.89,286.55 -490.87,20.31 -1340.58,-138.95 -1422.48,-141.37z"/>
    <polygon class="fil10 str0" points="13276.94,12407.83 13271.54,12893.63 13911.56,13268.12 14488.91,12838.1 14488.91,12374.61 14427.18,12118.58 13379.18,12134.57 "/>
    <polygon class="fil34" points="13668.46,12996.74 13673.86,12316.54 13728.77,12110.98 13404.92,12116.04 13302.66,12389.33 13297.29,12875 13937.28,13249.59 13958.05,13234.12 "/>
    <path class="fil12 str0" d="M11131.33 9762.33c0,0 -209.62,-952.71 -111.98,-1364.34 97.64,-411.51 2217.32,-2004.23 2217.32,-2004.23l2379.14 476.31 1177.92 1056.82c0,0 219.98,29.55 -202.24,1704.95l-445.89 564.17 -4536.47 61.87 -477.8 -495.55z"/>
    <g id="_2420887583712">
     <path class="fil35" d="M16346.9 7677.73l-507.35 -277.95c0,0 -639.32,716.84 -1688.61,758.57 0,0 409.91,-250.45 284.06,-622.52 0,0 -87.13,166.61 -330.98,327.44 93.71,354.8 -293.21,591.3 -293.21,591.3 1049.19,-41.61 1688.56,-758.45 1688.56,-758.45l507.31 277.84c477.06,562.39 395.32,1714.7 395.32,1714.7 30.44,-63.78 107.74,-79.76 189.78,-56.17 63.85,-253.23 112.83,-468.33 150.22,-651.79 -19.61,-386.92 -101.4,-956.78 -395.1,-1302.97z"/>
     <path class="fil35" d="M12696.59 8452.54c868.65,-21.44 1241.08,-403.52 1356.22,-557.08 -217.32,130.35 -543.2,249.04 -1015.99,260.71 0,0 291.91,-252.09 176.5,-438.88 0,0 -517.17,419.74 -950.62,484.67 0,0 -191.58,29.93 -345.59,297.37 3.31,-0.77 5.45,-1.16 5.45,-1.16 433.42,-64.77 950.57,-484.4 950.57,-484.4 115.35,186.8 -176.54,438.77 -176.54,438.77z"/>
    </g>
    <path class="fil2 str0" d="M11625.02 10998.73c0,0 696.65,1493.54 2323.44,1403.27 1626.85,-90.04 2067.93,-1410.36 2055.11,-1424.83 0,0 226.38,254.64 504.65,-144.05 0,0 345.94,-600.19 342.83,-848.61 -4.17,-321.72 -372.99,-457.02 -449.15,-297.49 0,0 81.76,-1152.3 -395.32,-1714.59l-507.3 -277.98c0,0 -639.3,716.84 -1688.57,758.55 0,0 409.89,-250.32 284.11,-622.52 0,0 -309.88,593.61 -1398.25,620.49 0,0 291.9,-252.09 176.5,-439 0,0 -517.11,419.74 -950.62,484.67 0,0 -591.12,91.03 -530.99,1402.11 0,0 -374.4,-404.27 -553.02,177.04 0,0 -136.18,354.06 379.11,1002.42 -0.05,0.02 349.83,289.92 407.47,-79.48z"/>
    <g id="_2420887581696">
     <path class="fil11" d="M16757.3 9685.61c-6.71,-5.7 -13.53,-11.26 -20.45,-16.35 -1.28,30.29 -2.49,47.31 -2.49,47.31 5.91,-12.29 13.95,-22.2 22.94,-30.96z"/>
     <path class="fil11" d="M11957.49 11028.16c-42.27,-97.77 -233.59,-1099.94 -233.59,-1099.94 -60.19,-1310.96 530.99,-1402.14 530.99,-1402.14 211.29,-31.58 378.85,-134.54 560.38,-245.13 52.04,-83.18 150.04,-196.67 96.44,-283.55 0,0 -517.11,419.76 -950.6,484.53 0,0 -620.31,147.11 -560.2,1458.18 0,0 -341.1,-441.67 -546.23,110.21 0,0 -134.23,368.49 381.06,1016.89 0,0 336.59,278.46 394.27,-91.04 0,0 632.08,1288.51 2013.1,1405.79 -1172.38,-255.77 -1633.95,-1234.09 -1685.62,-1353.8z"/>
     <path class="fil11" d="M13029.01 8480.42c506.81,-12.41 788.87,-169.41 1005.35,-310.56 59.08,-100.93 148.75,-207.2 99.08,-353.93 0,0 -232.92,485.95 -1023.34,616.92 -41.06,47.44 -81.09,47.57 -81.09,47.57z"/>
     <path class="fil11" d="M14143.18 8482.45c839,-33.22 1415.5,-497.97 1612.97,-683.01l-218.2 -119.56c0,0 -468.5,558.59 -1268.16,733.58 -64.99,63.03 -126.61,68.99 -126.61,68.99z"/>
    </g>
    <path class="fil4 str0" d="M11584.21 8313.68c858.12,-436.1 1690.75,-965.01 2353.79,-1012.32 663.04,-47.27 1258.27,665.51 2002.05,904.17 743.84,238.66 954.67,7.73 907.96,-406.03 0,0 255.72,-466.14 12.13,-854.18 -243.66,-388.15 -821.86,-1977.33 -2889.4,-1850.9 -2067.57,126.42 -2592.98,1130 -2808.51,1539.84 -215.51,409.73 -306.7,935.33 -156.53,1165.38 -0.04,-0.04 -279.68,950.14 578.51,514.04z"/>
    <path class="fil12 str0" d="M11921.54 9159.1c0,0 245,-398.69 692.9,-413.02 448.02,-14.19 889.01,-42.61 797.99,206.57 0,0 -28.04,135.18 -343.08,71.14 -314.92,-64.03 -622.88,-149.49 -1147.81,135.31z"/>
    <path class="fil12 str0" d="M15932.26 9159.1c0,0 -244.98,-398.69 -692.97,-413.02 -447.95,-14.19 -888.93,-42.61 -797.95,206.57 0,0 28.04,135.18 343.04,71.14 314.99,-64.04 622.96,-149.49 1147.88,135.31z"/>
    <path class="fil15 str0" d="M13234.75 9948.88c0,0 176.26,-427.59 -310.86,-566.2 -487.13,-138.73 -718.13,192.13 -732.14,240.31 0,0 0,311.55 112.01,325.89 49.18,6.21 232.51,-48.82 424.95,-49.96 246.23,-1.41 506.04,49.96 506.04,49.96z"/>
    <path class="fil16 str0" d="M12476.46 9423.26c0,0 -215.77,326.15 78.75,475.67l445.68 11.29c0,0 196.98,-323.25 12.38,-512.42 0.01,-0.03 -348.08,-129.88 -536.81,25.46z"/>
    <path class="fil36 str0" d="M13000.89 9616.38c0,125.17 -113.31,226.48 -253.07,226.48 -139.81,0 -253.05,-101.32 -253.05,-226.48 0,-125.03 113.22,-226.34 253.05,-226.34 139.76,-0.01 253.07,101.31 253.07,226.34z"/>
    <ellipse class="fil16 str0" cx="12747.8" cy="9598.49" rx="97.44" ry="100.06"/>
    <path class="fil18 str0" d="M12707.43 9481.09c0,31.84 -28.6,57.72 -63.78,57.72 -35.17,0 -63.7,-25.87 -63.7,-57.72 0,-31.96 28.53,-57.81 63.7,-57.81 35.18,0 63.78,25.85 63.78,57.81z"/>
    <path class="fil18 str0" d="M12815.48 9530.02c0,17.5 -15.16,31.58 -33.79,31.58 -18.7,0 -33.84,-14.08 -33.84,-31.58 0,-17.38 15.16,-31.58 33.84,-31.58 18.63,0 33.79,14.23 33.79,31.58z"/>
    <g>
     <path class="fil16" d="M12191.75 9622.99c0,0 64.86,-285.96 346.14,-339.23 281.24,-53.52 522.84,29.55 669.72,255.03 0,0 -204.19,-199.99 -520.35,-191.86 0,0 -351.13,-15.99 -495.51,302.17l0 -26.11zm0 0l0 0 0 0z"/>
     <path id="1" class="fil25 str0" d="M12191.75 9622.99c0,0 64.86,-285.96 346.14,-339.23 281.24,-53.52 522.84,29.55 669.72,255.03 0,0 -204.19,-199.99 -520.35,-191.86 0,0 -351.13,-15.99 -495.51,302.17m0 -26.11l0 0 0 0z"/>
    </g>
    <path class="fil16 str0" d="M12358.21 9944.56c0,0 565.71,-93.33 802.05,-8.61 0,0 -496.56,92.82 -802.05,8.61z"/>
    <path class="fil15 str0" d="M14569.66 9953.32c0,0 -176.29,-427.34 310.84,-566.23 487.21,-138.6 718.11,192.13 732.06,240.33 0,0 -0.08,311.68 -112.03,325.89 -49.08,6.35 -232.39,-48.7 -424.87,-49.82 -246.21,-1.4 -506,49.83 -506,49.83z"/>
    <path class="fil16 str0" d="M15327.93 9427.83c0,0 215.72,326.16 -78.73,475.68l-445.68 11.28c0,0 -196.98,-323.11 -12.49,-512.57 0,-0.01 348.15,-129.74 536.9,25.61z"/>
    <path class="fil37 str0" d="M14803.52 9620.96c0,125.03 113.36,226.47 253.04,226.47 139.81,0 253.15,-101.45 253.15,-226.47 0,-125.03 -113.31,-226.35 -253.15,-226.35 -139.67,-0.01 -253.04,101.31 -253.04,226.35z"/>
    <ellipse class="fil16 str0" cx="15056.56" cy="9603.07" rx="97.44" ry="100.16"/>
    <path class="fil18 str0" d="M15096.96 9485.65c0,31.96 28.53,57.71 63.7,57.71 35.25,0 63.86,-25.71 63.86,-57.71 0,-31.95 -28.61,-57.82 -63.86,-57.82 -35.18,0 -63.7,25.87 -63.7,57.82z"/>
    <ellipse class="fil18 str0" cx="15022.73" cy="9534.59" rx="33.82" ry="31.57"/>
    <g>
     <path class="fil16" d="M15612.56 9627.43c0,0 -64.78,-285.84 -346.09,-339.23 -281.24,-53.27 -522.7,29.8 -669.72,255.12 0,0 204.17,-199.99 520.36,-191.84 0,0 351.22,-15.98 495.45,302.18l0 -26.23zm0 0l0 0 0 0z"/>
     <path id="1" class="fil25 str0" d="M15612.56 9627.43c0,0 -64.78,-285.84 -346.09,-339.23 -281.24,-53.27 -522.7,29.8 -669.72,255.12 0,0 204.17,-199.99 520.36,-191.84 0,0 351.22,-15.98 495.45,302.18m0 -26.23l0 0 0 0z"/>
    </g>
    <path class="fil16 str0" d="M15446.13 9949.13c0,0 -565.63,-93.33 -802,-8.63 0,0 496.56,92.97 802,8.63z"/>
    <path class="fil20 str0" d="M13008.87 11122.38c0,0 389.33,54.66 856.14,33.61 284.11,-12.93 595.84,-79.12 868.93,-129.58 0,0 -39.49,673.75 -913.33,730.05 0.02,-0.05 -726.72,24.31 -811.74,-634.08z"/>
    <path class="fil21 str0" d="M13307.26 11615.03c0,0 -37.62,-58.22 91.99,-103.73 148.49,-52.24 611.86,-71.02 894.68,-12.93 83.07,17.11 133.92,61 133.92,61 0,0 -555.04,348.72 -1120.59,55.66z"/>
    <path class="fil15 str0" d="M13131.74 11273.77c60.43,71.54 406.85,104.51 733.26,100.58 275.29,-3.42 527.32,-26.5 673.62,-142.53l195.34 -205.43c0,0 -956.81,204.3 -1725.09,96l122.87 151.38z"/>
    <path class="fil15 str0" d="M13218.23 11546.43c-17.86,-35.65 290.46,53.88 618.31,44.37 313.79,-9.12 647.85,-108.79 652.37,-87.76 9.26,43.25 -395.01,264.28 -668.28,253.36 -273.35,-11.01 -567.48,-140.36 -602.4,-209.97z"/>
    <polygon class="fil32 str0" points="14725.58,12941.06 14614.14,17283.48 14922.9,17218.29 15035.27,13048.8 "/>
    <path class="fil38 str0" d="M13271.54 12880.96l-232.56 193.64c0,0 641.25,664.61 727.94,631.64 86.73,-32.97 144.64,-438.12 144.64,-438.12l-640.02 -387.16z"/>
    <path class="fil38 str0" d="M14488.91 12823.37l236.68 117.69c0,0 -459.56,748.55 -538,765.17 -78.45,16.6 -275.99,-438.12 -275.99,-438.12l577.31 -444.74z"/>
    <path class="fil4 str0" d="M13911.56 13330.11c0,0 645.05,-188.19 714.74,-16.86 69.69,171.44 31.94,394.89 -95.43,448.16 -127.37,53 -206.23,6.96 -592.07,-171.44l-27.24 -259.86z"/>
    <path class="fil4 str0" d="M13883.7 13348.61c0,0 -663.22,-239.66 -714.74,-20.53 -51.69,219.14 13.32,419.24 93.13,448.54 79.76,29.42 206.25,8 592.97,-168.4l28.64 -259.61z"/>
    <path class="fil39" d="M14127.19 13454.5c-5.85,-52.11 -28.6,-93.45 -28.6,-93.45 0,0 106.76,-35.65 280.77,-100.19l-485.61 76.34 27.21 240.04c60.43,69 139.14,8.39 179.43,-44.63 27.71,-36.25 29.1,-56.93 26.8,-78.11z"/>
    <path class="fil39" d="M14108.49 13480.12c-18.53,49.08 -50.82,83.43 -50.82,83.43 0,0 94.64,60.87 247.24,166.63l-451.65 -194.28 77.73 -204.66c75.64,-51.88 144.97,5.19 170.88,66.45 17.85,42.12 14.22,62.41 6.62,82.43z"/>
    <path class="fil4 str0" d="M14051.91 13454.5c0,98.8 -70.82,178.79 -158.18,178.79 -87.37,0 -158.26,-80.01 -158.26,-178.79 0,-98.64 70.89,-178.79 158.26,-178.79 87.36,0 158.18,80.15 158.18,178.79z"/>
    <polygon class="fil32 str0" points="12779.43,13171.73 12779.43,17300.59 13073.41,17337.39 13038.97,13074.6 "/>
    <ellipse class="fil32 str0" cx="13911.51" cy="14149.04" rx="99.26" ry="106.63"/>
    <ellipse class="fil32 str0" cx="13911.51" cy="14729.81" rx="99.26" ry="106.63"/>
    <ellipse class="fil32 str0" cx="13911.51" cy="15338.48" rx="99.26" ry="106.63"/>
    <ellipse class="fil32 str0" cx="13911.51" cy="15978.63" rx="99.26" ry="106.63"/>
    <path class="fil32 str0" d="M14010.74 16617.49c0,58.81 -44.43,106.63 -99.26,106.63 -54.78,0 -99.23,-47.82 -99.23,-106.63 0,-58.97 44.45,-106.64 99.23,-106.64 54.86,0 99.26,47.67 99.26,106.64z"/>
    <path class="fil40 str0" d="M13025.7 17140.2c0,58.95 -44.45,106.64 -99.32,106.64 -54.83,0 -99.21,-47.7 -99.21,-106.64 0,-58.99 44.4,-106.63 99.21,-106.63 54.84,-0.03 99.32,47.64 99.32,106.63z"/>
    <path class="fil40 str0" d="M14876.24 17050.53c0,58.81 -44.43,106.61 -99.29,106.61 -54.79,0 -99.22,-47.79 -99.22,-106.61 0,-58.97 44.43,-106.67 99.22,-106.67 54.86,0 99.29,47.73 99.29,106.67z"/>
    <path class="fil4 str0" d="M14499.36 21671.69c0,0 513.57,91.68 756.52,-82.43l-15.7 740.2 -677.79 64.68 -63.03 -722.45z"/>
    <path class="fil41" d="M14759.19 21694.89c-134.54,-4.83 -236.49,-22.97 -236.49,-22.97l63.01 722.57 225.73 -21.56 -52.25 -678.04z"/>
    <path class="fil6 str0" d="M15652.36 23125.43c0,0 -132,-678.8 -300.71,-985.67 -6.06,-11.05 -16.6,-112.24 -27.09,-122.39 -19.53,-18.62 -178.79,17.66 -183.61,95.87 0,0 -67.12,-137.57 -243.16,-142.81 -194.44,-5.84 -248.47,156.51 -248.47,156.51 -10.59,-57.72 -183.18,-82.84 -199.22,-51.11 -6.27,12.41 8.31,99.29 2.86,110.59 -104.51,218.87 -257.06,769.99 -233.08,979.86 0,0 791.16,296.59 1432.48,-40.85z"/>
    <path class="fil42" d="M14730.06 22100.46c1.62,-4.34 0.8,-19.04 -0.52,-36.67 -47.33,42.61 -63.85,91.2 -63.85,91.2 -10.58,-56.85 -173.29,-100.58 -189.39,-69.26 -6.2,12.18 -1.52,116.66 -7.02,127.94 -104.42,215.72 -256.97,758.96 -233,965.78 0,0 114.45,42.25 291.56,76.34 -25.11,-254.5 107.53,-898.94 202.22,-1155.33z"/>
    <path class="fil24 str0" d="M15656.62 23202.54c13.75,-291.03 -290.67,-744.88 -713.6,-764.02 -422.97,-19.02 -849.39,594.73 -740.21,828.07 109.18,233.34 1367.79,221.52 1453.81,-64.05z"/>
    <path class="fil43" d="M14593.33 23184.52c-20.61,-232.7 214.86,-575.31 542.09,-687.55 -69.58,-23.87 -165.91,-45.79 -236.85,-40.47 -418.09,31.58 -703.7,462.49 -679.84,731.83 57.17,156.84 527.29,208.85 916.7,178.04 -268.75,-15.96 -502.84,-74.16 -542.1,-181.85z"/>
    <path class="fil44 str0" d="M15643.49 23069.02c0,0 -865.72,253.48 -1443.09,21.3 0,0 -45.76,115.25 41.17,216.82 43.42,50.85 503.7,130.89 672.39,122.51 168.43,-8.38 660.16,-91.45 701.66,-148.88 82.61,-115 27.87,-211.75 27.87,-211.75z"/>
    <path class="fil25 str0" d="M14530.12 22370.45c0,0 367.03,-373.48 750.25,-12.44"/>
    <path class="fil25 str0" d="M14526.65 22487.07c0,0 367.03,-373.43 750.25,-12.38"/>
    <g>
     <path class="fil32" d="M13614.81 18467.64c0,0 315.13,198.32 599.75,0l-599.75 0zm0 0l0 0 0 0z"/>
     <path id="1" class="fil25 str0" d="M13614.81 18467.64c0,0 315.13,198.32 599.75,0m-599.75 0l0 0 0 0z"/>
    </g>
    <path class="fil4 str0" d="M14425.65 21514.07c0,0 344.78,107.54 908.07,-46.02l0 150.5c0,0 -398.19,237.37 -908.07,70.63l0 -175.11z"/>
    <path class="fil31 str0" d="M13576.65 22117.81c0,0 -12.22,-196.67 -386.96,-233.44 -374.72,-36.95 -454.6,27.37 -485.31,148.85 -30.76,121.36 35.64,195.03 35.64,195.03l790.53 0 46.1 -110.44z"/>
    <path class="fil11" d="M13809.09 10745.25c86.05,-23.2 182.72,-225.22 174.03,-271.75 -8.68,-46.4 -328.12,-79.66 -410.66,20.81 -82.48,100.55 150.53,274.14 236.63,250.94z"/>
    <path class="fil4 str0" d="M13530.55 21713.16c0,0 -513.57,91.67 -756.46,-82.44l15.64 740.21 677.87 64.78 62.95 -722.55z"/>
    <path class="fil41" d="M13044.56 22467.81l-14.01 -664.71c-83.12,-15.85 -161.62,-42.74 -222.83,-86.62l15.72 740.21 677.87 64.67 0.83 -9.89 -457.58 -43.66z"/>
    <path class="fil6 str0" d="M12422.29 23173.37c0,0 107.92,-682.98 265.69,-995.69 5.7,-11.28 12.58,-112.72 22.76,-123.13 18.75,-19.43 179.17,11.02 186.88,89.29 0,0 62.15,-139.86 237.91,-151.43 194.16,-12.66 253.89,147.6 253.89,147.6 8.48,-58.09 180.12,-89.27 197.24,-58.09 6.73,12.08 -4.7,99.43 1.15,110.45 112.08,215.08 284.16,760.48 267.61,970.98 0.02,0 -780.14,324.5 -1433.13,10.02z"/>
    <path class="fil42" d="M12712.31 23134.59c0,0 104.81,-672.5 258.06,-980.37 3.45,-6.86 7.21,-47.31 11.97,-79.89 -50.33,41.22 -70.94,87.49 -70.94,87.49 -7.43,-76.95 -163.27,-107.02 -181.51,-87.88 -9.84,10.18 -16.6,110.08 -22.04,121.23 -153.2,307.88 -258.09,980.38 -258.09,980.38 375.13,182.97 793.31,146.18 1072.55,85.3 -246.99,23.21 -539.7,5.74 -810,-126.26z"/>
    <path class="fil24 str0" d="M12420.85 23250.59c-24.08,-290.28 264.12,-754.64 686.08,-788.75 422.02,-33.97 869.89,564.17 769.16,801.33 -100.86,237 -1359.04,269.71 -1455.24,-12.58z"/>
    <path class="fil43" d="M12798.7 23255.67c-20.56,-244.37 190.01,-614.89 517.25,-732.83 -69.56,-25 -141.07,-37.41 -212.04,-31.68 -418.14,33.1 -703.66,485.64 -679.79,768.7 57.12,164.73 527.27,219.39 916.68,186.91 -268.86,-16.86 -502.94,-77.86 -542.1,-191.1z"/>
    <path class="fil44 str0" d="M12429.31 23116.56c0,0 874.15,222.83 1442.99,-29.79 0,0 49.8,113.63 -33.48,218.23 -41.58,52.37 -498.8,148.63 -667.72,146.21 -168.59,-2.42 -662.94,-67.84 -706.37,-123.88 -86.74,-112.13 -35.42,-210.77 -35.42,-210.77z"/>
    <path class="fil25 str0" d="M13517.22 22379.03c0,0 -380.16,-360.14 -750.25,14.21"/>
    <path class="fil25 str0" d="M13524.9 22495.58c0,0 -380.19,-360.27 -750.28,14.08"/>
    <path class="fil4 str0" d="M13604.35 21555.7c0,0 -344.86,107.38 -908.07,-46.04l0 150.5c0,0 398.14,237.27 908.07,70.51l0 -174.97z"/>
    <path class="fil14" d="M11398.26 10071c0,0 -424.72,-338.33 -404.83,186.91 19.89,525.37 296.42,664.23 404.65,652.56 108.24,-11.66 143.02,-278.35 143.02,-278.35l-142.84 -561.12z"/>
    <path class="fil3" d="M16384.14 9959.92c0,0 452.95,-396.16 302.74,227.61 -150.35,623.78 -407.05,683.88 -513.68,688.97 -106.71,5.06 -44.79,-267.17 -44.79,-267.17l255.73 -649.41z"/>
    <path class="fil45" d="M13345.75 11287.98l-98.75 -118.2c-63.46,-4.18 -126.42,-9.76 -187.98,-17.37l98.85 119.45c32.84,34.35 150.08,54.14 310.45,66.45 -72.64,-14.2 -103.15,-27.77 -122.57,-50.33z"/>
    <path class="fil46" d="M14383.78 11104.75l-176.96 165.96c-44.22,31.32 -99.7,53.79 -162.14,70.77 184.57,-10.41 372.89,-44.4 476.68,-117.94l154.25 -164.08c0,0.02 -113.65,21.67 -291.83,45.29z"/>
    <path class="fil11" d="M13916.36 9561.6c-36.64,-10.02 -35.22,594.49 -146.95,867.11 0,0 84.9,57.72 158.36,-12.93 73.49,-70.5 25.11,-844.03 -11.41,-854.18z"/>
    <path class="fil25 str0" d="M13916.36 10447.88c0,0 -620.41,-56.42 -240.91,252.09"/>
    <path class="fil25 str0" d="M13883.7 9810.66c0,0 -8.55,485.7 -149.26,635.96"/>
    <path class="fil11" d="M13843.7 11896.65c0,0 -148.25,4.94 -295.08,-71.25 94.14,187.8 293.23,181.59 293.23,181.59 173.42,-12.54 266.3,-102.09 316.1,-191.74 -82.56,42.22 -185.49,72.54 -314.25,81.4z"/>
    <path class="fil41" d="M12863.86 21697.31l0 -123.26c-46.4,-7.35 -94.09,-26.37 -144.25,-36.93l0 122.52c0,0 67.14,30.19 180.1,56.81 -23.17,-11.54 -35.85,-19.14 -35.85,-19.14z"/>
    <path class="fil47" d="M13844.34 13443.22c0,-61.48 48.06,-107.27 101.14,-132.25 -11.59,-2.67 -34.79,-11.15 -47.15,-11.15 -87.44,0 -158.28,69.23 -158.28,154.72 0,85.49 70.85,154.71 158.28,154.71 24.51,0 47.54,-5.83 68.27,-15.72 -69.97,-16.02 -122.26,-77 -122.26,-150.31z"/>
    <path class="fil39" d="M13406.03 13749.33c-79.84,-26.49 -144.9,-207.2 -93.22,-405.16 12.49,-47.79 60.79,-71.26 126.68,-79.63 -131.36,-11.66 -245.63,2.03 -265.8,79.63 -51.67,197.96 13.33,378.64 93.14,405.16 34.05,11.42 76.78,14.21 144.43,1.52 -1.76,-0.49 -3.51,-0.87 -5.23,-1.52z"/>
    <path class="fil13" d="M16838.3 6984.21c-20.12,49.82 -36.08,79.12 -36.08,79.12 46.02,410.23 -161.7,639.25 -894.32,402.63 -732.73,-236.76 -1319.09,-943.46 -1972.13,-896.66 -653.13,46.91 -1473.29,571.38 -2318.66,1003.8 -845.3,432.53 -569.87,-509.63 -569.87,-509.63 -3.15,-4.83 -5.57,-10.66 -8.48,-15.72 -82.55,297.11 -91.83,586.85 8.48,741.56 0,0 -275.45,942.19 569.87,509.77 845.37,-432.42 1665.53,-957.14 2318.66,-1003.93 653.04,-46.92 1239.41,659.9 1972.13,896.66 732.62,236.6 940.34,7.6 894.32,-402.62 0,0 233.86,-429.36 36.08,-804.98z"/>
    <path class="fil48" d="M11871.41 7585.91c-151.74,-225.73 -59.61,-741.33 158.35,-1143.44 163.32,-301.41 502.67,-929.76 1542.31,-1277.98 -1703.34,231.93 -2170.53,1094.85 -2371.13,1465.05 -217.98,402.1 -310.22,917.7 -158.36,1143.44 0,0 -282.8,932.3 585.21,504.32 93.19,-45.92 186.08,-92.94 278.54,-140.24 -153.69,-158.81 -34.92,-551.15 -34.92,-551.15z"/>
    <path class="fil13" d="M12494.77 6863.24c0,0 1362.41,-1088.3 2686,-80.28 0.03,0.01 -1326.46,-1450.44 -2686,80.28z"/>
    <path class="fil49" d="M12839.55 23384.25c-75.39,-89.4 -50.67,-158.36 -41.9,-177.5 -211.58,-24.62 -353.37,-69.76 -353.37,-69.76 0,0 -51.28,90.32 35.3,193.03 30.27,35.87 291.36,61.62 496.49,83.43 -64.54,-14.22 -124.46,-15.01 -136.52,-29.2z"/>
    <path class="fil49" d="M14656 23374.87c-75.49,-86.49 -87.77,-149.78 -78.97,-168.3 -211.49,-23.69 -357.98,-85.95 -357.98,-85.95 0,0 -38.01,87.33 48.77,186.65 30.22,34.64 400.15,81.32 388.18,67.6z"/>
    <path class="fil41" d="M14645.34 21693.25l0 -119.44c-131.57,-6.85 -204.36,-23.84 -204.36,-23.84l0 127.84c106.9,26.88 208.24,38.67 301.87,41.85 -31.96,-7.27 -64.44,-15.88 -97.51,-26.41z"/>
    <circle class="fil50 str0" cx="13893.71" cy="17218.17" r="255.1"/>
    <g>
     <path class="fil22" d="M12487.17 14562.66c0,0 -487.95,1109.44 -696.37,1415.94 -121.82,179.2 -371.04,393.6 -584.34,342.49 -203.07,-48.69 -359.24,-424.92 -417.47,-660.06 -79.94,-323.19 -47.63,-1071.64 -80.14,-1308.79 -32.46,-237.22 728.54,-245.29 743.75,-41.19 15.21,204.13 -18.89,721.24 -18.89,721.24 289.08,-734.11 419.82,-1426.57 589.45,-1522.31l464.01 1052.68zm0 0l0 0 0 0z"/>
     <path id="1" class="fil25 str0" d="M12487.17 14562.66c0,0 -487.95,1109.44 -696.37,1415.94 -121.82,179.2 -371.04,393.6 -584.34,342.49 -203.07,-48.69 -359.24,-424.92 -417.47,-660.06 -79.94,-323.19 -47.63,-1071.64 -80.14,-1308.79 -32.46,-237.22 728.54,-245.29 743.75,-41.19 15.21,204.13 -18.89,721.24 -18.89,721.24 289.08,-734.11 419.82,-1426.57 589.45,-1522.31m464.01 1052.68l0 0 0 0z"/>
    </g>
    <g>
     <path class="fil51" d="M11412.01 15205.97c204.51,-519.41 607.74,-1257.53 723.66,-1538.69l-108.57 -157.26c-123.44,69.69 -226.55,455.76 -384.81,943.42 -44.76,231.32 -230.28,752.53 -230.28,752.53z"/>
     <path class="fil51" d="M11394.32 16187.57c-203.09,-48.69 -313.66,-399.58 -371.88,-634.79 -79.94,-323.1 -27.06,-1082.95 -59.51,-1320.12 -1.49,-10.63 -34.13,-18.5 -32.51,-28.21 -113.55,28.08 -211.31,55.14 -200.14,136.51 32.48,237.25 19.94,1010.42 99.94,1333.51 58.22,235.22 192.07,572.29 395.14,620.87 149.13,35.74 300.74,-64.32 429.11,-185.28 -85.6,44.43 -175.64,97.71 -260.15,77.51z"/>
    </g>
    <g>
     <path class="fil22" d="M15449.32 13171.76c759.57,412.38 788.48,1820.02 766.92,2294.22 -6.71,146.9 -171.87,576.78 -460.07,619.28 -642,94.79 -2004,-99.93 -2004,-99.93 -184.8,-94.36 -67.52,-774.66 60.11,-774.66 0,0 1499.57,314.58 1522.8,59.84 21.64,-238.09 -242.89,-841.7 -242.89,-841.7l357.13 -1257.05zm0 0l0 0 0 0z"/>
     <path id="1" class="fil25 str0" d="M15449.32 13171.76c759.57,412.38 788.48,1820.02 766.92,2294.22 -6.71,146.9 -171.87,576.78 -460.07,619.28 -642,94.79 -2004,-99.93 -2004,-99.93 -184.8,-94.36 -67.52,-774.66 60.11,-774.66 0,0 1499.57,314.58 1522.8,59.84 21.64,-238.09 -242.89,-841.7 -242.89,-841.7m357.13 -1257.05l0 0 0 0z"/>
    </g>
    <path class="fil51" d="M13911.48 15326.94c98.47,-11.28 596.84,74.88 992.66,118.17 322.91,35.38 620.03,-48.79 629.74,-155.71 21.68,-238.17 -268.57,-762.94 -268.57,-762.94l-159.41 -106.64c0,0 373.1,711.84 240.55,910.72 -116.53,174.95 -1419.89,-71.21 -1479.86,-38.21 -221.46,121.75 -262.24,619.84 -75.7,634.93 0,0 -58.09,-579.91 120.59,-600.32z"/>
    <g>
     <polygon class="fil51" points="12683.9,16859.43 12594.3,14692.5 12490.77,14574.97 12502.25,16837.87 "/>
    </g>
    <path class="fil8 str0" d="M13790.89 13809.46c0,50.72 -39.19,91.68 -87.36,91.68 -48.21,0 -87.26,-40.96 -87.26,-91.68 0,-50.6 39.06,-91.55 87.26,-91.55 48.16,-0.03 87.36,40.93 87.36,91.55z"/>
    <ellipse class="fil8 str0" cx="13703.58" cy="14149.04" rx="87.31" ry="91.55"/>
    <g>
     <rect class="fil26 str1" x="11665.64" y="13332.99" width="2425.35" height="1937.52"/>
     <rect class="fil27 str1" x="11606.21" y="13035.75" width="2574.05" height="297.24"/>
     <polygon class="fil28" points="12551.33,13061.99 12289.81,13308.68 12688.16,13308.68 12967.46,13061.99 "/>
     <polygon class="fil28" points="13114.58,13061.99 12853.02,13308.68 13251.25,13308.68 13530.68,13061.99 "/>
     <polygon class="fil28" points="13674.86,13061.99 13413.3,13308.68 13811.65,13308.68 14090.99,13061.99 "/>
     <rect class="fil27 str1" transform="matrix(0.969313 -0.0605032 0.0605032 0.969314 11584.7 12742.7)" width="2650.6" height="305.99"/>
     <polygon class="fil28" points="12544.6,12949.31 12268.69,12729.41 12666.21,12704.56 12959.78,12923.31 "/>
     <polygon class="fil28" points="13106.63,12914.19 12830.72,12694.29 13228.25,12669.43 13521.79,12888.18 "/>
     <polygon class="fil28" points="13665.86,12879.29 13390.03,12659.41 13787.66,12634.57 14081.17,12853.31 "/>
     <polygon class="fil29 str1" points="11583.21,12857.4 11606.21,13331.38 12295.67,13331.38 12396.8,13171.21 11913.73,12717.61 11583.21,12717.61 "/>
     <path class="fil28" d="M11820.1 12877.34c0,37.19 -29.16,67.29 -65.24,67.29 -36.21,0 -65.45,-30.11 -65.45,-67.29 0,-37.18 29.24,-67.22 65.45,-67.22 36.08,0.03 65.24,30.03 65.24,67.22z"/>
     <path class="fil28" d="M11820.1 13158.01c0,37.1 -29.16,67.29 -65.24,67.29 -36.21,0 -65.45,-30.17 -65.45,-67.29 0,-37.03 29.24,-67.28 65.45,-67.28 36.08,0 65.24,30.25 65.24,67.28z"/>
     <path class="fil28" d="M12289.81 13158.01c0,37.1 -29.27,67.29 -65.48,67.29 -35.97,0 -65.24,-30.17 -65.24,-67.29 0,-37.03 29.27,-67.28 65.24,-67.28 36.21,0 65.48,30.25 65.48,67.28z"/>
     <line class="fil25 str2" x1="11724.97" y1="13671.84" x2="14043.51" y2= "13683.68" />
     <line class="fil25 str2" x1="11734.04" y1="14283.92" x2="14052.44" y2= "14295.74" />
     <line class="fil25 str2" x1="11719.14" y1="14782.05" x2="14037.47" y2= "14793.82" />
     <line class="fil25 str2" x1="11724.97" y1="15037.43" x2="14043.51" y2= "15049.36" />
     <line class="fil25 str2" x1="11719.14" y1="14516" x2="13145.74" y2= "14516" />
     <line class="fil25 str2" x1="13145.74" y1="14289.83" x2="13145.74" y2= "14793.82" />
     <line class="fil25 str2" x1="12515.69" y1="13671.84" x2="12509.68" y2= "14283.92" />
     <line class="fil25 str2" x1="13283.96" y1="13671.84" x2="13278.07" y2= "14283.92" />
    </g>
    <path class="fil2 str0" d="M11915.15 12531.94c0,0 167.55,-49.29 353.41,44.15 199.48,100.31 247.91,17.83 247.8,150.67 -0.2,111.47 -66.32,178.48 -278.35,112.35 -66.2,-20.61 -207.6,-52.55 -207.6,-52.55 0,0 -251.45,160.08 -310.93,182.58 0,0 -140.53,233.73 124.65,78.55 85.61,-50.08 154.35,-64.54 246.39,-34.25 128.78,42.42 276.32,132.89 276.32,132.89 0,0 153.58,38.75 153.58,94.33 0,140.76 -38.16,226.86 -224.58,163.79 -57.38,-19.41 -247.14,-124.65 -278.59,-125.86 -66.83,-2.54 -116.48,48.82 -270.46,96.26 0,0 148.62,-79.71 292.15,-18.76 143.56,60.92 380.03,120.47 422.02,185.83 41.98,65.42 33.99,88.7 21.29,104.64 -10.78,13.69 -7.35,164.71 -151.16,81.21 -23.84,-13.82 -246.62,-100.05 -281.39,-112.11 -238.63,-82.79 -275.92,68.66 -275.92,68.66 -24.33,-4.74 71.38,-54.31 189.33,-27 125.68,29.03 330.08,146.08 330.08,146.08 0,0 52.49,129.14 -55.14,151.73 -47.87,10.02 -183.45,-43.68 -285.71,-54.34 -128.04,-13.39 -247.78,69.89 -247.78,69.89l-315.9 199.78c0,0 -26.1,190.33 -177.53,190.19 -91.81,0 -273.13,60.84 -351.76,-12.69 -87.72,-82.2 -35.38,-324.79 -4.93,-547.34 30.58,-222.55 298.78,-587.13 394.52,-739.99 95.8,-152.84 666.19,-528.69 666.19,-528.69z"/>
    <g>
     <path class="fil11" d="M12247.05 12809.51c152.39,47.5 236.57,-6.92 223.52,-10.98 -66.19,-20.61 -251.86,-81.28 -251.86,-81.28 0,0 -115.58,-26.8 -171.25,26.34 46.21,21.87 171.5,57.15 199.59,65.92z"/>
     <path class="fil11" d="M11873.15 13561.04c10.39,2.93 20.74,5.77 31.95,9.68 0.2,0.05 0.54,0.2 0.64,0.25 35.25,-7.94 83.43,-11.54 136.82,0.83 81.41,18.83 288.25,119.02 358.73,155.96 17.45,-23.58 32.83,-28.6 36.89,-44.63 -75.62,-30.52 -285.81,-144.95 -309.01,-153.02 -157.01,-54.43 -226.59,-7.56 -256.02,30.93z"/>
     <path class="fil11" d="M11037.86 14301.14c-87.75,-82.23 -35.87,-313.09 -5.32,-535.65 30.44,-222.55 310.04,-620.79 405.81,-773.65 77.29,-123.39 499.59,-433.82 499.59,-433.82 0,0 -584.73,349.74 -680.51,502.63 -95.74,152.86 -364,517.45 -394.5,739.99 -30.52,222.55 -82.88,465.14 4.94,547.34 78.62,73.53 168.07,12.56 259.88,12.69 33.49,0 137.47,-50.44 159.79,-64.9 -79.5,10.46 -202.56,49.41 -249.68,5.37z"/>
     <path class="fil11" d="M12184.87 13860.23c-79.53,-8.3 -204.56,-24.62 -250.97,-1.47 98.92,14.99 272.32,117.64 312.56,96.39 21.32,-11.22 19.55,-49.77 23.74,-79.96 -43.15,-11.03 -45.22,-10.77 -85.33,-14.96z"/>
     <path class="fil11" d="M12085.99 13183.91c-49.72,-1.91 -90.08,26.13 -170.84,60.02 1.39,0.64 2.9,1.34 4.37,2.03 53.58,-10.46 82.09,0.19 149.05,28.65 62.9,26.7 230.03,93.53 304.36,120.28 9.76,-10.2 78.78,-9.56 84.51,-24.2 -70.58,-29.43 -342.55,-185.65 -371.45,-186.78z"/>
    </g>
    <g>
     <path class="fil2 str0" d="M13866.59 15292.33c152.86,0 92.46,518.53 -32.83,518.48 -83.95,-0.07 -458.92,-16.8 -603.35,-24.54 -144.49,-7.76 -557.16,-124.02 -611.35,-159.67 -54.27,-35.76 -291.98,-395.22 -284.67,-439.87 7.21,-44.79 0.87,-326.56 22.96,-399.72 21.82,-73.26 141.51,-21.64 152.48,8.35 10.91,29.99 13.69,293.82 22.84,351.02 9.1,57.21 15.03,131.87 77.65,141l0 0c0,0 -38.59,-103.79 -54.45,-183.88 -15.93,-80.14 -33.69,-447.9 -31.46,-552.11 2.22,-104.48 184.8,-81.66 190.92,0 6.06,81.52 21.95,428.93 32.84,485.3 11.02,56.3 40.54,213.25 120.76,229.77 80.28,16.5 20.61,-9.38 20.61,-9.38 0,0 -104.87,-152.61 -108.49,-278.67 -3.62,-126.11 -6.81,-504.26 -8.55,-581.51 -2.94,-122.85 173.72,-149.39 189.24,-40.95 9.2,63.85 61.34,385.28 66.94,476.57 9.19,148.11 83.04,362.53 170.87,381.06 87.76,18.66 18.76,0 18.76,0 0,0 -38.16,-235.24 -28.4,-338.2 9.76,-102.85 41.45,-355.05 59.67,-452.33 18.31,-97.21 201.24,-66.53 198.52,0 -2.67,66.52 -10.91,513.44 4.01,568.61 14.88,55.22 2,150.27 135.72,237.17l137.86 54.29c0.05,0.01 92.03,9.21 140.9,9.21z"/>
     <g>
      <path class="fil11" d="M13001.95 15328.87c8.38,1.74 14.16,2.9 19.27,3.9 -9.32,-1.89 -19.27,-3.9 -19.27,-3.9z"/>
      <path class="fil11" d="M13333.16 15312.99c87.83,18.58 30.76,-2.19 30.76,-2.19 0,0 -74.25,-319.49 -64.45,-422.37 9.79,-103 78.12,-486.06 82.61,-491.56 -52.03,-22.48 -96.28,14.24 -104.96,60.19 -18.3,97.28 -35.95,308.98 -45.74,411.89 -5.99,63.42 16.57,232.83 37.31,335.2 30.04,61.56 32.19,102 64.47,108.84z"/>
      <path class="fil11" d="M12799.11 14478.66c6.06,81.48 26.78,505.79 37.68,562.09 10.97,56.3 63.66,262.35 143.94,278.9 0,0 -86.46,-186.88 -90.16,-312.97 -3.58,-126.16 -34.13,-506.4 -35.9,-583.63 -1.18,-51.09 0.29,-70.51 34.87,-84.72 -75.96,-24.68 -92.72,45.03 -90.43,140.33 0.52,22.13 -2.03,-26.21 0,0z"/>
      <path class="fil11" d="M12679.09 15527.93c-54.27,-35.76 -242.46,-283.52 -235.17,-328.15 7.22,-44.76 0.88,-326.61 22.84,-399.85 2.78,-9.1 -2.54,-3.57 2.78,-9.1 -40.31,-19.7 -66.91,-31.16 -81.79,18.69 -22,73.23 -13.33,350 -20.58,394.65 -7.27,44.71 197.57,358.5 251.86,394.21 54.27,35.64 427.98,126.37 571.16,147.21 93.89,13.64 247.42,21.87 213.17,-14.83 -117.53,-18.88 -672.47,-168.76 -724.27,-202.83z"/>
      <path class="fil11" d="M12679.09 15320.73c0,0 -14.91,-119.15 -30.81,-199.22 -15.92,-80.14 -31.63,-386.76 -29.36,-491 0.31,-15.79 -5.06,-96.69 2,-105 -52.09,-26.74 -60.21,4.89 -61.44,66.45 -1.2,51.36 3.65,30.19 9.9,182.1 3.48,63.83 47.14,537.54 109.71,546.67z"/>
     </g>
    </g>
   </g>
  </g>
 </g>
</svg>
